<mxfile host="app.diagrams.net" modified="2021-04-24T10:46:57.584Z" agent="5.0 (Windows NT 6.1; Win64; x64) AppleWebKit/537.36 (KHTML, like Gecko) Chrome/89.0.4389.114 Safari/537.36" etag="MC7DX1U0EK29ovChsfTl" version="14.6.1" type="github">
  <diagram id="QA0bJ5i-_w0NXoJZr5kA" name="Page-1">
    <mxGraphModel dx="-729" dy="-1684" grid="1" gridSize="10" guides="1" tooltips="1" connect="1" arrows="1" fold="1" page="1" pageScale="1" pageWidth="850" pageHeight="1100" math="1" shadow="0">
      <root>
        <mxCell id="0" />
        <mxCell id="1" parent="0" />
        <mxCell id="taAj6aya3iwNu6nGRGRA-267" value="" style="shape=cube;whiteSpace=wrap;html=1;boundedLbl=1;backgroundOutline=1;darkOpacity=0.05;darkOpacity2=0.1;shadow=1;flipV=0;flipH=1;size=6;spacing=2;rotation=-90;fillColor=#ffe6cc;strokeColor=#d79b00;" vertex="1" parent="1">
          <mxGeometry x="2797.5" y="2368.5" width="17" height="11" as="geometry" />
        </mxCell>
        <mxCell id="taAj6aya3iwNu6nGRGRA-250" value="" style="shape=cube;whiteSpace=wrap;html=1;boundedLbl=1;backgroundOutline=1;darkOpacity=0.05;darkOpacity2=0.1;shadow=1;flipV=0;flipH=1;size=10;spacing=2;rotation=-90;fillColor=#ffe6cc;strokeColor=#d79b00;" vertex="1" parent="1">
          <mxGeometry x="2793" y="2399" width="30" height="15" as="geometry" />
        </mxCell>
        <mxCell id="taAj6aya3iwNu6nGRGRA-97" value="" style="shape=cube;whiteSpace=wrap;html=1;boundedLbl=1;backgroundOutline=1;darkOpacity=0.05;darkOpacity2=0.1;shadow=1;flipV=0;flipH=1;size=70;spacing=2;rotation=-90;fillColor=#d5e8d4;strokeColor=#82b366;" vertex="1" parent="1">
          <mxGeometry x="2520" y="2429.88" width="230" height="75" as="geometry" />
        </mxCell>
        <mxCell id="taAj6aya3iwNu6nGRGRA-98" value="" style="shape=cube;whiteSpace=wrap;html=1;boundedLbl=1;backgroundOutline=1;darkOpacity=0.05;darkOpacity2=0.1;shadow=1;flipV=0;flipH=1;size=10;spacing=2;rotation=-90;fillColor=#dae8fc;strokeColor=#6c8ebf;" vertex="1" parent="1">
          <mxGeometry x="2195" y="2445.88" width="30" height="42.75" as="geometry" />
        </mxCell>
        <mxCell id="taAj6aya3iwNu6nGRGRA-99" value="" style="shape=cube;whiteSpace=wrap;html=1;boundedLbl=1;backgroundOutline=1;darkOpacity=0.05;darkOpacity2=0.1;shadow=1;flipV=0;flipH=1;size=19;spacing=2;rotation=-90;fillColor=#dae8fc;strokeColor=#6c8ebf;" vertex="1" parent="1">
          <mxGeometry x="2295.5" y="2448.63" width="60" height="37.75" as="geometry" />
        </mxCell>
        <mxCell id="taAj6aya3iwNu6nGRGRA-100" value="" style="shape=cube;whiteSpace=wrap;html=1;boundedLbl=1;backgroundOutline=1;darkOpacity=0.05;darkOpacity2=0.1;shadow=1;flipV=0;flipH=1;size=10;spacing=2;rotation=-90;fillColor=#dae8fc;strokeColor=#6c8ebf;" vertex="1" parent="1">
          <mxGeometry x="2055" y="2446.13" width="30" height="42.75" as="geometry" />
        </mxCell>
        <mxCell id="taAj6aya3iwNu6nGRGRA-101" value="" style="shape=cube;whiteSpace=wrap;html=1;boundedLbl=1;backgroundOutline=1;darkOpacity=0.05;darkOpacity2=0.1;shadow=1;flipV=0;flipH=1;size=70;spacing=2;rotation=-90;fillColor=#e1d5e7;strokeColor=#9673a6;" vertex="1" parent="1">
          <mxGeometry x="1775.55" y="2429.63" width="230" height="75" as="geometry" />
        </mxCell>
        <mxCell id="taAj6aya3iwNu6nGRGRA-102" value="" style="shape=cube;whiteSpace=wrap;html=1;boundedLbl=1;backgroundOutline=1;darkOpacity=0.05;darkOpacity2=0.1;shadow=1;flipV=0;flipH=1;size=34;spacing=2;rotation=-90;fillColor=#dae8fc;strokeColor=#6c8ebf;" vertex="1" parent="1">
          <mxGeometry x="1909.55" y="2445.63" width="109" height="43" as="geometry" />
        </mxCell>
        <mxCell id="taAj6aya3iwNu6nGRGRA-103" value="" style="shape=cube;whiteSpace=wrap;html=1;boundedLbl=1;backgroundOutline=1;darkOpacity=0.05;darkOpacity2=0.1;shadow=1;flipV=0;flipH=1;size=19;spacing=2;rotation=-90;fillColor=#dae8fc;strokeColor=#6c8ebf;" vertex="1" parent="1">
          <mxGeometry x="1990" y="2448.38" width="60" height="37.75" as="geometry" />
        </mxCell>
        <mxCell id="taAj6aya3iwNu6nGRGRA-104" value="" style="shape=cube;whiteSpace=wrap;html=1;boundedLbl=1;backgroundOutline=1;darkOpacity=0.05;darkOpacity2=0.1;shadow=1;flipV=0;flipH=1;size=6;spacing=2;rotation=-90;fillColor=#dae8fc;strokeColor=#6c8ebf;" vertex="1" parent="1">
          <mxGeometry x="2116" y="2443.76" width="17" height="47" as="geometry" />
        </mxCell>
        <mxCell id="taAj6aya3iwNu6nGRGRA-105" value="" style="shape=cube;whiteSpace=wrap;html=1;boundedLbl=1;backgroundOutline=1;darkOpacity=0.05;darkOpacity2=0.1;shadow=1;flipV=0;flipH=1;size=10;spacing=2;rotation=-90;fillColor=#f8cecc;strokeColor=#b85450;" vertex="1" parent="1">
          <mxGeometry x="2161" y="2445.88" width="30" height="42.75" as="geometry" />
        </mxCell>
        <mxCell id="taAj6aya3iwNu6nGRGRA-106" value="" style="shape=cube;whiteSpace=wrap;html=1;boundedLbl=1;backgroundOutline=1;darkOpacity=0.05;darkOpacity2=0.1;shadow=1;flipV=0;flipH=1;size=19;spacing=2;rotation=-90;fillColor=#f8cecc;strokeColor=#b85450;" vertex="1" parent="1">
          <mxGeometry x="2275" y="2448.63" width="60" height="37.75" as="geometry" />
        </mxCell>
        <mxCell id="taAj6aya3iwNu6nGRGRA-107" value="" style="shape=cube;whiteSpace=wrap;html=1;boundedLbl=1;backgroundOutline=1;darkOpacity=0.05;darkOpacity2=0.1;shadow=1;flipV=0;flipH=1;size=10;spacing=2;rotation=-90;strokeColor=#82b366;fillColor=#d5e8d4;" vertex="1" parent="1">
          <mxGeometry x="2245" y="2445.88" width="30" height="42.75" as="geometry" />
        </mxCell>
        <mxCell id="taAj6aya3iwNu6nGRGRA-108" value="" style="shape=cube;whiteSpace=wrap;html=1;boundedLbl=1;backgroundOutline=1;darkOpacity=0.05;darkOpacity2=0.1;shadow=1;flipV=0;flipH=1;size=19;spacing=2;rotation=-90;fillColor=#d5e8d4;strokeColor=#82b366;" vertex="1" parent="1">
          <mxGeometry x="2342" y="2448.63" width="60" height="37.75" as="geometry" />
        </mxCell>
        <mxCell id="taAj6aya3iwNu6nGRGRA-109" value="" style="shape=cube;whiteSpace=wrap;html=1;boundedLbl=1;backgroundOutline=1;darkOpacity=0.05;darkOpacity2=0.1;shadow=1;flipV=0;flipH=1;size=34;spacing=2;rotation=-90;fillColor=#dae8fc;strokeColor=#6c8ebf;" vertex="1" parent="1">
          <mxGeometry x="2379" y="2445.88" width="109" height="43" as="geometry" />
        </mxCell>
        <mxCell id="taAj6aya3iwNu6nGRGRA-110" value="" style="shape=cube;whiteSpace=wrap;html=1;boundedLbl=1;backgroundOutline=1;darkOpacity=0.05;darkOpacity2=0.1;shadow=1;flipV=0;flipH=1;size=34;spacing=2;rotation=-90;fillColor=#f8cecc;strokeColor=#b85450;" vertex="1" parent="1">
          <mxGeometry x="2368" y="2445.88" width="109" height="43" as="geometry" />
        </mxCell>
        <mxCell id="taAj6aya3iwNu6nGRGRA-111" value="" style="shape=cube;whiteSpace=wrap;html=1;boundedLbl=1;backgroundOutline=1;darkOpacity=0.05;darkOpacity2=0.1;shadow=1;flipV=0;flipH=1;size=34;spacing=2;rotation=-90;fillColor=#d5e8d4;strokeColor=#82b366;" vertex="1" parent="1">
          <mxGeometry x="2429.5" y="2445.88" width="109" height="43" as="geometry" />
        </mxCell>
        <mxCell id="taAj6aya3iwNu6nGRGRA-112" value="" style="shape=cube;whiteSpace=wrap;html=1;boundedLbl=1;backgroundOutline=1;darkOpacity=0.05;darkOpacity2=0.1;shadow=1;flipV=0;flipH=1;size=70;spacing=2;rotation=-90;fillColor=#dae8fc;strokeColor=#6c8ebf;" vertex="1" parent="1">
          <mxGeometry x="2440" y="2430" width="230" height="75" as="geometry" />
        </mxCell>
        <mxCell id="taAj6aya3iwNu6nGRGRA-113" value="" style="shape=cube;whiteSpace=wrap;html=1;boundedLbl=1;backgroundOutline=1;darkOpacity=0.05;darkOpacity2=0.1;shadow=1;flipV=0;flipH=1;size=70;spacing=2;rotation=-90;fillColor=#f8cecc;strokeColor=#b85450;" vertex="1" parent="1">
          <mxGeometry x="2433" y="2430" width="230" height="75" as="geometry" />
        </mxCell>
        <mxCell id="taAj6aya3iwNu6nGRGRA-114" value="" style="endArrow=classic;html=1;rounded=1;shadow=1;" edge="1" parent="1">
          <mxGeometry width="50" height="50" relative="1" as="geometry">
            <mxPoint x="1891" y="2388" as="sourcePoint" />
            <mxPoint x="2555" y="2388" as="targetPoint" />
            <Array as="points">
              <mxPoint x="1891" y="2370" />
              <mxPoint x="2232" y="2370" />
              <mxPoint x="2555" y="2370" />
            </Array>
          </mxGeometry>
        </mxCell>
        <mxCell id="taAj6aya3iwNu6nGRGRA-147" style="edgeStyle=orthogonalEdgeStyle;orthogonalLoop=1;jettySize=auto;html=1;exitX=0;exitY=0;exitDx=5;exitDy=37.75;exitPerimeter=0;entryX=0;entryY=0;entryDx=5;entryDy=37.75;entryPerimeter=0;rounded=1;strokeWidth=2;shadow=1;" edge="1" parent="1">
          <mxGeometry relative="1" as="geometry">
            <mxPoint x="2070.375" y="2457.505" as="sourcePoint" />
            <mxPoint x="2208.375" y="2457.255" as="targetPoint" />
            <Array as="points">
              <mxPoint x="2070" y="2430" />
              <mxPoint x="2208" y="2430" />
            </Array>
          </mxGeometry>
        </mxCell>
        <mxCell id="taAj6aya3iwNu6nGRGRA-148" style="edgeStyle=orthogonalEdgeStyle;orthogonalLoop=1;jettySize=auto;html=1;exitX=0;exitY=0;exitDx=9.5;exitDy=28.25;exitPerimeter=0;entryX=0;entryY=0;entryDx=9.5;entryDy=28.25;entryPerimeter=0;rounded=1;shadow=1;" edge="1" parent="1">
          <mxGeometry relative="1" as="geometry">
            <mxPoint x="2018.375" y="2447.755" as="sourcePoint" />
            <mxPoint x="2323.875" y="2448.005" as="targetPoint" />
            <Array as="points">
              <mxPoint x="2018" y="2410" />
              <mxPoint x="2324" y="2410" />
            </Array>
          </mxGeometry>
        </mxCell>
        <mxCell id="taAj6aya3iwNu6nGRGRA-149" style="edgeStyle=orthogonalEdgeStyle;orthogonalLoop=1;jettySize=auto;html=1;exitX=0;exitY=0;exitDx=17;exitDy=26;exitPerimeter=0;entryX=0;entryY=0;entryDx=17;entryDy=26;entryPerimeter=0;rounded=1;shadow=1;" edge="1" parent="1">
          <mxGeometry relative="1" as="geometry">
            <mxPoint x="1963.5500000000002" y="2430.63" as="sourcePoint" />
            <mxPoint x="2433" y="2430.88" as="targetPoint" />
            <Array as="points">
              <mxPoint x="1964" y="2390" />
              <mxPoint x="2433" y="2390" />
            </Array>
          </mxGeometry>
        </mxCell>
        <mxCell id="taAj6aya3iwNu6nGRGRA-180" value="" style="endArrow=classic;html=1;rounded=1;strokeWidth=2;shadow=1;" edge="1" parent="1">
          <mxGeometry width="50" height="50" relative="1" as="geometry">
            <mxPoint x="1891" y="2388.38" as="sourcePoint" />
            <mxPoint x="2555" y="2388.38" as="targetPoint" />
            <Array as="points">
              <mxPoint x="1891" y="2370.38" />
              <mxPoint x="2232" y="2370.38" />
              <mxPoint x="2555" y="2370.38" />
            </Array>
          </mxGeometry>
        </mxCell>
        <mxCell id="taAj6aya3iwNu6nGRGRA-181" style="edgeStyle=orthogonalEdgeStyle;orthogonalLoop=1;jettySize=auto;html=1;exitX=0;exitY=0;exitDx=17;exitDy=26;exitPerimeter=0;entryX=0;entryY=0;entryDx=17;entryDy=26;entryPerimeter=0;rounded=1;strokeWidth=2;shadow=1;" edge="1" parent="1">
          <mxGeometry relative="1" as="geometry">
            <mxPoint x="1963.5500000000002" y="2431.01" as="sourcePoint" />
            <mxPoint x="2433" y="2431.26" as="targetPoint" />
            <Array as="points">
              <mxPoint x="1964" y="2390.38" />
              <mxPoint x="2433" y="2390.38" />
            </Array>
          </mxGeometry>
        </mxCell>
        <mxCell id="taAj6aya3iwNu6nGRGRA-182" style="edgeStyle=orthogonalEdgeStyle;orthogonalLoop=1;jettySize=auto;html=1;exitX=0;exitY=0;exitDx=9.5;exitDy=28.25;exitPerimeter=0;entryX=0;entryY=0;entryDx=9.5;entryDy=28.25;entryPerimeter=0;rounded=1;strokeWidth=2;shadow=1;" edge="1" parent="1">
          <mxGeometry relative="1" as="geometry">
            <mxPoint x="2018.375" y="2448.135" as="sourcePoint" />
            <mxPoint x="2323.875" y="2448.385" as="targetPoint" />
            <Array as="points">
              <mxPoint x="2018" y="2410.38" />
              <mxPoint x="2324" y="2410.38" />
            </Array>
          </mxGeometry>
        </mxCell>
        <mxCell id="taAj6aya3iwNu6nGRGRA-208" value="" style="endArrow=classic;html=1;strokeWidth=2;fillColor=#76608a;strokeColor=#432D57;shadow=1;" edge="1" parent="1">
          <mxGeometry width="50" height="50" relative="1" as="geometry">
            <mxPoint x="1844" y="2467.22" as="sourcePoint" />
            <mxPoint x="1891" y="2467.23" as="targetPoint" />
          </mxGeometry>
        </mxCell>
        <mxCell id="taAj6aya3iwNu6nGRGRA-209" value="" style="endArrow=classic;html=1;strokeWidth=2;fillColor=#1ba1e2;strokeColor=#006EAF;shadow=1;" edge="1" parent="1">
          <mxGeometry width="50" height="50" relative="1" as="geometry">
            <mxPoint x="1928" y="2467.22" as="sourcePoint" />
            <mxPoint x="1963" y="2467.22" as="targetPoint" />
          </mxGeometry>
        </mxCell>
        <mxCell id="taAj6aya3iwNu6nGRGRA-210" value="" style="endArrow=classic;html=1;strokeWidth=2;fillColor=#1ba1e2;strokeColor=#006EAF;shadow=1;" edge="1" parent="1">
          <mxGeometry width="50" height="50" relative="1" as="geometry">
            <mxPoint x="1985" y="2467.22" as="sourcePoint" />
            <mxPoint x="2013" y="2467.22" as="targetPoint" />
          </mxGeometry>
        </mxCell>
        <mxCell id="taAj6aya3iwNu6nGRGRA-211" value="" style="endArrow=classic;html=1;strokeWidth=2;jumpSize=6;endSize=4;fillColor=#1ba1e2;strokeColor=#006EAF;shadow=1;" edge="1" parent="1">
          <mxGeometry width="50" height="50" relative="1" as="geometry">
            <mxPoint x="2039" y="2467.22" as="sourcePoint" />
            <mxPoint x="2055" y="2467.22" as="targetPoint" />
          </mxGeometry>
        </mxCell>
        <mxCell id="taAj6aya3iwNu6nGRGRA-212" value="" style="endArrow=classic;html=1;strokeWidth=2;jumpSize=6;endSize=4;fillColor=#1ba1e2;strokeColor=#006EAF;shadow=1;" edge="1" parent="1">
          <mxGeometry width="50" height="50" relative="1" as="geometry">
            <mxPoint x="2091" y="2467.22" as="sourcePoint" />
            <mxPoint x="2105" y="2467.22" as="targetPoint" />
          </mxGeometry>
        </mxCell>
        <mxCell id="taAj6aya3iwNu6nGRGRA-213" value="" style="endArrow=classic;html=1;strokeWidth=2;jumpSize=6;endSize=4;fillColor=#e51400;strokeColor=#B20000;shadow=1;" edge="1" parent="1">
          <mxGeometry width="50" height="50" relative="1" as="geometry">
            <mxPoint x="2148" y="2467.22" as="sourcePoint" />
            <mxPoint x="2161" y="2467.22" as="targetPoint" />
          </mxGeometry>
        </mxCell>
        <mxCell id="taAj6aya3iwNu6nGRGRA-214" value="" style="endArrow=classic;html=1;strokeWidth=2;jumpSize=6;endSize=4;fillColor=#008a00;strokeColor=#005700;shadow=1;" edge="1" parent="1">
          <mxGeometry width="50" height="50" relative="1" as="geometry">
            <mxPoint x="2231" y="2467.22" as="sourcePoint" />
            <mxPoint x="2245" y="2467.22" as="targetPoint" />
          </mxGeometry>
        </mxCell>
        <mxCell id="taAj6aya3iwNu6nGRGRA-215" value="" style="endArrow=classic;html=1;strokeWidth=2;jumpSize=6;endSize=4;fillColor=#e51400;strokeColor=#B20000;shadow=1;" edge="1" parent="1">
          <mxGeometry width="50" height="50" relative="1" as="geometry">
            <mxPoint x="2282" y="2467.22" as="sourcePoint" />
            <mxPoint x="2298" y="2467.22" as="targetPoint" />
          </mxGeometry>
        </mxCell>
        <mxCell id="taAj6aya3iwNu6nGRGRA-216" value="" style="endArrow=classic;html=1;strokeWidth=2;jumpSize=6;endSize=4;fillColor=#008a00;strokeColor=#005700;shadow=1;" edge="1" parent="1">
          <mxGeometry width="50" height="50" relative="1" as="geometry">
            <mxPoint x="2344" y="2467.22" as="sourcePoint" />
            <mxPoint x="2364" y="2467.22" as="targetPoint" />
          </mxGeometry>
        </mxCell>
        <mxCell id="taAj6aya3iwNu6nGRGRA-217" value="" style="endArrow=classic;html=1;strokeWidth=2;jumpSize=6;endSize=6;fillColor=#e51400;strokeColor=#B20000;shadow=1;" edge="1" parent="1">
          <mxGeometry width="50" height="50" relative="1" as="geometry">
            <mxPoint x="2392" y="2467.22" as="sourcePoint" />
            <mxPoint x="2420" y="2467.22" as="targetPoint" />
          </mxGeometry>
        </mxCell>
        <mxCell id="taAj6aya3iwNu6nGRGRA-218" value="" style="endArrow=classic;html=1;strokeWidth=2;jumpSize=6;endSize=6;fillColor=#008a00;strokeColor=#005700;shadow=1;" edge="1" parent="1">
          <mxGeometry width="50" height="50" relative="1" as="geometry">
            <mxPoint x="2456" y="2467.22" as="sourcePoint" />
            <mxPoint x="2481" y="2467.22" as="targetPoint" />
          </mxGeometry>
        </mxCell>
        <mxCell id="taAj6aya3iwNu6nGRGRA-219" value="" style="endArrow=classic;html=1;strokeWidth=2;jumpSize=6;endSize=6;fillColor=#e51400;strokeColor=#B20000;shadow=1;" edge="1" parent="1">
          <mxGeometry width="50" height="50" relative="1" as="geometry">
            <mxPoint x="2505" y="2467.22" as="sourcePoint" />
            <mxPoint x="2545" y="2467.22" as="targetPoint" />
          </mxGeometry>
        </mxCell>
        <mxCell id="taAj6aya3iwNu6nGRGRA-220" value="" style="endArrow=classic;html=1;strokeWidth=2;jumpSize=6;endSize=6;fillColor=#008a00;strokeColor=#005700;shadow=1;" edge="1" parent="1">
          <mxGeometry width="50" height="50" relative="1" as="geometry">
            <mxPoint x="2592" y="2467.22" as="sourcePoint" />
            <mxPoint x="2632" y="2467.22" as="targetPoint" />
          </mxGeometry>
        </mxCell>
        <mxCell id="taAj6aya3iwNu6nGRGRA-223" value="&lt;font face=&quot;Times New Roman&quot; style=&quot;font-size: 16px&quot;&gt;$$c_4$$&lt;/font&gt;" style="text;html=1;strokeColor=none;fillColor=none;align=center;verticalAlign=middle;whiteSpace=wrap;rounded=0;shadow=1;fontSize=16;" vertex="1" parent="1">
          <mxGeometry x="2107" y="2472.78" width="40" height="23.62" as="geometry" />
        </mxCell>
        <mxCell id="taAj6aya3iwNu6nGRGRA-225" value="&lt;font face=&quot;Times New Roman&quot; style=&quot;font-size: 16px&quot;&gt;$$c_3$$&lt;/font&gt;" style="text;html=1;strokeColor=none;fillColor=none;align=center;verticalAlign=middle;whiteSpace=wrap;rounded=0;shadow=1;fontSize=16;" vertex="1" parent="1">
          <mxGeometry x="2247.22" y="2479.76" width="40" height="23.62" as="geometry" />
        </mxCell>
        <mxCell id="taAj6aya3iwNu6nGRGRA-226" value="&lt;font face=&quot;Times New Roman&quot; style=&quot;font-size: 16px&quot;&gt;$$c_2$$&lt;/font&gt;" style="text;html=1;strokeColor=none;fillColor=none;align=center;verticalAlign=middle;whiteSpace=wrap;rounded=0;shadow=1;fontSize=16;" vertex="1" parent="1">
          <mxGeometry x="2362" y="2494" width="40" height="23.62" as="geometry" />
        </mxCell>
        <mxCell id="taAj6aya3iwNu6nGRGRA-227" value="&lt;font face=&quot;Times New Roman&quot; style=&quot;font-size: 16px&quot;&gt;$$c_1$$&lt;/font&gt;" style="text;html=1;strokeColor=none;fillColor=none;align=center;verticalAlign=middle;whiteSpace=wrap;rounded=0;shadow=1;fontSize=16;" vertex="1" parent="1">
          <mxGeometry x="2481" y="2518.97" width="40" height="23.62" as="geometry" />
        </mxCell>
        <mxCell id="taAj6aya3iwNu6nGRGRA-228" value="&lt;font face=&quot;Times New Roman&quot; style=&quot;font-size: 16px&quot;&gt;$$f_0$$&lt;/font&gt;" style="text;html=1;strokeColor=none;fillColor=none;align=center;verticalAlign=middle;whiteSpace=wrap;rounded=0;shadow=1;fontSize=16;" vertex="1" parent="1">
          <mxGeometry x="2640" y="2576.19" width="40" height="23.62" as="geometry" />
        </mxCell>
        <mxCell id="taAj6aya3iwNu6nGRGRA-229" value="" style="endArrow=classic;html=1;strokeWidth=2;fillColor=#76608a;strokeColor=#432D57;shadow=1;" edge="1" parent="1">
          <mxGeometry width="50" height="50" relative="1" as="geometry">
            <mxPoint x="2341" y="2560.659999999999" as="sourcePoint" />
            <mxPoint x="2381" y="2560.189999999999" as="targetPoint" />
          </mxGeometry>
        </mxCell>
        <mxCell id="taAj6aya3iwNu6nGRGRA-234" value="&lt;font face=&quot;Times New Roman&quot;&gt;Res-layer&lt;/font&gt;" style="text;html=1;strokeColor=none;fillColor=none;align=center;verticalAlign=middle;whiteSpace=wrap;rounded=0;shadow=1;fontSize=16;" vertex="1" parent="1">
          <mxGeometry x="2382.45" y="2550.189999999999" width="79.55" height="20" as="geometry" />
        </mxCell>
        <mxCell id="taAj6aya3iwNu6nGRGRA-235" value="" style="endArrow=classic;html=1;strokeWidth=2;fillColor=#1ba1e2;strokeColor=#006EAF;shadow=1;" edge="1" parent="1">
          <mxGeometry width="50" height="50" relative="1" as="geometry">
            <mxPoint x="2181" y="2560.659999999999" as="sourcePoint" />
            <mxPoint x="2221" y="2560.189999999999" as="targetPoint" />
          </mxGeometry>
        </mxCell>
        <mxCell id="taAj6aya3iwNu6nGRGRA-236" value="&lt;font face=&quot;Times New Roman&quot;&gt;Stem-layer&lt;/font&gt;" style="text;html=1;strokeColor=none;fillColor=none;align=center;verticalAlign=middle;whiteSpace=wrap;rounded=0;shadow=1;fontSize=16;" vertex="1" parent="1">
          <mxGeometry x="2226" y="2550.189999999999" width="79.55" height="20" as="geometry" />
        </mxCell>
        <mxCell id="taAj6aya3iwNu6nGRGRA-237" value="" style="endArrow=classic;html=1;strokeWidth=2;fillColor=#e51400;strokeColor=#B20000;shadow=1;" edge="1" parent="1">
          <mxGeometry width="50" height="50" relative="1" as="geometry">
            <mxPoint x="2021" y="2590.469999999999" as="sourcePoint" />
            <mxPoint x="2061" y="2589.999999999999" as="targetPoint" />
          </mxGeometry>
        </mxCell>
        <mxCell id="taAj6aya3iwNu6nGRGRA-238" value="&lt;span style=&quot;font-family: &amp;#34;times new roman&amp;#34;&quot;&gt;Up-sample&lt;/span&gt;" style="text;html=1;strokeColor=none;fillColor=none;align=center;verticalAlign=middle;whiteSpace=wrap;rounded=0;shadow=1;fontSize=16;" vertex="1" parent="1">
          <mxGeometry x="2065.45" y="2579.809999999999" width="79.55" height="20.19" as="geometry" />
        </mxCell>
        <mxCell id="taAj6aya3iwNu6nGRGRA-239" value="" style="endArrow=classic;html=1;strokeWidth=2;fillColor=#008a00;strokeColor=#005700;shadow=1;" edge="1" parent="1">
          <mxGeometry width="50" height="50" relative="1" as="geometry">
            <mxPoint x="2181" y="2590.279999999999" as="sourcePoint" />
            <mxPoint x="2221" y="2589.809999999999" as="targetPoint" />
          </mxGeometry>
        </mxCell>
        <mxCell id="taAj6aya3iwNu6nGRGRA-240" value="&lt;font face=&quot;Times New Roman&quot;&gt;Conv-layer&lt;/font&gt;" style="text;html=1;strokeColor=none;fillColor=none;align=center;verticalAlign=middle;whiteSpace=wrap;rounded=0;shadow=1;fontSize=16;" vertex="1" parent="1">
          <mxGeometry x="2222.45" y="2579.809999999999" width="89.55" height="20" as="geometry" />
        </mxCell>
        <mxCell id="taAj6aya3iwNu6nGRGRA-241" value="" style="endArrow=classic;html=1;strokeWidth=2;fillColor=#e51400;shadow=1;" edge="1" parent="1">
          <mxGeometry width="50" height="50" relative="1" as="geometry">
            <mxPoint x="2021" y="2560.559999999999" as="sourcePoint" />
            <mxPoint x="2061" y="2560.0899999999992" as="targetPoint" />
          </mxGeometry>
        </mxCell>
        <mxCell id="taAj6aya3iwNu6nGRGRA-242" value="&lt;span style=&quot;font-family: &amp;#34;times new roman&amp;#34;&quot;&gt;Copy&lt;/span&gt;" style="text;html=1;strokeColor=none;fillColor=none;align=center;verticalAlign=middle;whiteSpace=wrap;rounded=0;shadow=1;fontSize=16;" vertex="1" parent="1">
          <mxGeometry x="2047.5" y="2550.189999999999" width="79.55" height="20.19" as="geometry" />
        </mxCell>
        <mxCell id="taAj6aya3iwNu6nGRGRA-253" value="" style="endArrow=classic;html=1;shadow=1;fontSize=16;endSize=4;strokeColor=#6D1F00;strokeWidth=2;fillColor=#a0522d;" edge="1" parent="1">
          <mxGeometry width="50" height="50" relative="1" as="geometry">
            <mxPoint x="2767" y="2406.3" as="sourcePoint" />
            <mxPoint x="2806" y="2406.687096774194" as="targetPoint" />
          </mxGeometry>
        </mxCell>
        <mxCell id="taAj6aya3iwNu6nGRGRA-254" value="&lt;font face=&quot;Times New Roman&quot; style=&quot;font-size: 16px&quot;&gt;$$c_3$$&lt;/font&gt;" style="text;html=1;strokeColor=none;fillColor=none;align=center;verticalAlign=middle;whiteSpace=wrap;rounded=0;shadow=1;fontSize=16;" vertex="1" parent="1">
          <mxGeometry x="2696.5" y="2394.6800000000007" width="40" height="23.62" as="geometry" />
        </mxCell>
        <mxCell id="taAj6aya3iwNu6nGRGRA-257" value="" style="endArrow=none;dashed=1;html=1;strokeWidth=3;shadow=1;fontSize=16;endSize=4;" edge="1" parent="1">
          <mxGeometry width="50" height="50" relative="1" as="geometry">
            <mxPoint x="2695" y="2590" as="sourcePoint" />
            <mxPoint x="2695" y="2350" as="targetPoint" />
          </mxGeometry>
        </mxCell>
        <mxCell id="taAj6aya3iwNu6nGRGRA-263" value="" style="endArrow=classic;html=1;shadow=1;fontSize=16;endSize=4;strokeColor=#6D1F00;strokeWidth=2;fillColor=#a0522d;" edge="1" parent="1">
          <mxGeometry width="50" height="50" relative="1" as="geometry">
            <mxPoint x="2768" y="2373.36" as="sourcePoint" />
            <mxPoint x="2804" y="2373.747096774194" as="targetPoint" />
          </mxGeometry>
        </mxCell>
        <mxCell id="taAj6aya3iwNu6nGRGRA-266" value="&lt;font face=&quot;Times New Roman&quot; style=&quot;font-size: 16px&quot;&gt;$$c_4$$&lt;/font&gt;" style="text;html=1;strokeColor=none;fillColor=none;align=center;verticalAlign=middle;whiteSpace=wrap;rounded=0;shadow=1;fontSize=16;" vertex="1" parent="1">
          <mxGeometry x="2696.5" y="2361.5000000000005" width="40" height="23.62" as="geometry" />
        </mxCell>
        <mxCell id="taAj6aya3iwNu6nGRGRA-268" value="&lt;font face=&quot;Times New Roman&quot; style=&quot;font-size: 16px&quot;&gt;$$c_2$$&lt;/font&gt;" style="text;html=1;strokeColor=none;fillColor=none;align=center;verticalAlign=middle;whiteSpace=wrap;rounded=0;shadow=1;fontSize=16;" vertex="1" parent="1">
          <mxGeometry x="2696.5" y="2449.0700000000006" width="40" height="23.62" as="geometry" />
        </mxCell>
        <mxCell id="taAj6aya3iwNu6nGRGRA-269" value="&lt;font face=&quot;Times New Roman&quot; style=&quot;font-size: 16px&quot;&gt;$$c_1$$&lt;/font&gt;" style="text;html=1;strokeColor=none;fillColor=none;align=center;verticalAlign=middle;whiteSpace=wrap;rounded=0;shadow=1;fontSize=16;" vertex="1" parent="1">
          <mxGeometry x="2696.5" y="2530.660000000001" width="40" height="23.62" as="geometry" />
        </mxCell>
        <mxCell id="taAj6aya3iwNu6nGRGRA-270" value="" style="shape=cube;whiteSpace=wrap;html=1;boundedLbl=1;backgroundOutline=1;darkOpacity=0.05;darkOpacity2=0.1;shadow=1;flipV=0;flipH=1;size=19;spacing=2;rotation=-90;fillColor=#ffe6cc;strokeColor=#d79b00;" vertex="1" parent="1">
          <mxGeometry x="2782.5" y="2449.78" width="60" height="24" as="geometry" />
        </mxCell>
        <mxCell id="taAj6aya3iwNu6nGRGRA-271" value="" style="shape=cube;whiteSpace=wrap;html=1;boundedLbl=1;backgroundOutline=1;darkOpacity=0.05;darkOpacity2=0.1;shadow=1;flipV=0;flipH=1;size=34;spacing=2;rotation=-90;fillColor=#ffe6cc;strokeColor=#d79b00;" vertex="1" parent="1">
          <mxGeometry x="2765.52" y="2522.96" width="109" height="39.03" as="geometry" />
        </mxCell>
        <mxCell id="taAj6aya3iwNu6nGRGRA-273" value="" style="endArrow=classic;html=1;shadow=1;fontSize=16;endSize=6;strokeColor=#6D1F00;strokeWidth=2;fillColor=#a0522d;" edge="1" parent="1">
          <mxGeometry width="50" height="50" relative="1" as="geometry">
            <mxPoint x="2759" y="2461.59" as="sourcePoint" />
            <mxPoint x="2809" y="2461.977096774194" as="targetPoint" />
          </mxGeometry>
        </mxCell>
        <mxCell id="taAj6aya3iwNu6nGRGRA-274" value="" style="endArrow=classic;html=1;shadow=1;fontSize=16;endSize=6;strokeColor=#6D1F00;strokeWidth=2;fillColor=#a0522d;" edge="1" parent="1">
          <mxGeometry width="50" height="50" relative="1" as="geometry">
            <mxPoint x="2766" y="2542.28" as="sourcePoint" />
            <mxPoint x="2819" y="2542.667096774194" as="targetPoint" />
          </mxGeometry>
        </mxCell>
        <mxCell id="taAj6aya3iwNu6nGRGRA-275" value="" style="endArrow=classic;html=1;strokeWidth=2;fillColor=#a0522d;strokeColor=#6D1F00;shadow=1;" edge="1" parent="1">
          <mxGeometry width="50" height="50" relative="1" as="geometry">
            <mxPoint x="2341" y="2590.279999999999" as="sourcePoint" />
            <mxPoint x="2381" y="2589.809999999999" as="targetPoint" />
          </mxGeometry>
        </mxCell>
        <mxCell id="taAj6aya3iwNu6nGRGRA-276" value="&lt;font face=&quot;Times New Roman&quot;&gt;Transition&lt;/font&gt;" style="text;html=1;strokeColor=none;fillColor=none;align=center;verticalAlign=middle;whiteSpace=wrap;rounded=0;shadow=1;fontSize=16;" vertex="1" parent="1">
          <mxGeometry x="2377.45" y="2579.809999999999" width="89.55" height="20" as="geometry" />
        </mxCell>
        <mxCell id="taAj6aya3iwNu6nGRGRA-261" value="" style="shape=cube;whiteSpace=wrap;html=1;boundedLbl=1;backgroundOutline=1;darkOpacity=0.05;darkOpacity2=0.1;shadow=1;flipV=0;flipH=1;size=34;spacing=2;rotation=-90;fillColor=#d5e8d4;strokeColor=#82b366;" vertex="1" parent="1">
          <mxGeometry x="2692.5" y="2520.9700000000003" width="109" height="43" as="geometry" />
        </mxCell>
        <mxCell id="taAj6aya3iwNu6nGRGRA-258" value="" style="shape=cube;whiteSpace=wrap;html=1;boundedLbl=1;backgroundOutline=1;darkOpacity=0.05;darkOpacity2=0.1;shadow=1;flipV=0;flipH=1;size=6;spacing=2;rotation=-90;fillColor=#dae8fc;strokeColor=#6c8ebf;" vertex="1" parent="1">
          <mxGeometry x="2740.5" y="2350.5" width="17" height="47" as="geometry" />
        </mxCell>
        <mxCell id="taAj6aya3iwNu6nGRGRA-249" value="" style="shape=cube;whiteSpace=wrap;html=1;boundedLbl=1;backgroundOutline=1;darkOpacity=0.05;darkOpacity2=0.1;shadow=1;flipV=0;flipH=1;size=10;spacing=2;rotation=-90;strokeColor=#82b366;fillColor=#d5e8d4;" vertex="1" parent="1">
          <mxGeometry x="2731.8" y="2385.1200000000003" width="30" height="42.75" as="geometry" />
        </mxCell>
        <mxCell id="taAj6aya3iwNu6nGRGRA-260" value="" style="shape=cube;whiteSpace=wrap;html=1;boundedLbl=1;backgroundOutline=1;darkOpacity=0.05;darkOpacity2=0.1;shadow=1;flipV=0;flipH=1;size=19;spacing=2;rotation=-90;fillColor=#d5e8d4;strokeColor=#82b366;" vertex="1" parent="1">
          <mxGeometry x="2714.3" y="2442.0099999999998" width="60" height="37.75" as="geometry" />
        </mxCell>
        <mxCell id="taAj6aya3iwNu6nGRGRA-288" value="&lt;font face=&quot;Times New Roman&quot; style=&quot;font-size: 16px&quot;&gt;$$f_3$$&lt;/font&gt;" style="text;html=1;strokeColor=none;fillColor=none;align=center;verticalAlign=middle;whiteSpace=wrap;rounded=0;shadow=1;fontSize=16;" vertex="1" parent="1">
          <mxGeometry x="2817.5" y="2397.5" width="16.5" height="23.62" as="geometry" />
        </mxCell>
        <mxCell id="taAj6aya3iwNu6nGRGRA-289" value="&lt;font face=&quot;Times New Roman&quot; style=&quot;font-size: 16px&quot;&gt;$$f_4$$&lt;/font&gt;" style="text;html=1;strokeColor=none;fillColor=none;align=center;verticalAlign=middle;whiteSpace=wrap;rounded=0;shadow=1;fontSize=16;" vertex="1" parent="1">
          <mxGeometry x="2812" y="2362.19" width="18.5" height="23.62" as="geometry" />
        </mxCell>
        <mxCell id="taAj6aya3iwNu6nGRGRA-290" value="&lt;font face=&quot;Times New Roman&quot; style=&quot;font-size: 16px&quot;&gt;$$f_2$$&lt;/font&gt;" style="text;html=1;strokeColor=none;fillColor=none;align=center;verticalAlign=middle;whiteSpace=wrap;rounded=0;shadow=1;fontSize=16;" vertex="1" parent="1">
          <mxGeometry x="2815.5" y="2451.6800000000007" width="40" height="23.62" as="geometry" />
        </mxCell>
        <mxCell id="taAj6aya3iwNu6nGRGRA-291" value="&lt;font face=&quot;Times New Roman&quot; style=&quot;font-size: 16px&quot;&gt;$$f_1$$&lt;/font&gt;" style="text;html=1;strokeColor=none;fillColor=none;align=center;verticalAlign=middle;whiteSpace=wrap;rounded=0;shadow=1;fontSize=16;" vertex="1" parent="1">
          <mxGeometry x="2830.5" y="2533.2700000000013" width="40" height="23.62" as="geometry" />
        </mxCell>
        <mxCell id="taAj6aya3iwNu6nGRGRA-296" value="" style="shape=image;verticalLabelPosition=bottom;labelBackgroundColor=#ffffff;verticalAlign=top;aspect=fixed;imageAspect=0;image=data:image/png,iVBORw0KGgoAAAANSUhEUgAAASwAAAOWCAYAAABVs69PAAAgAElEQVR4AezdC3Bb15kn+IP3gxckQPBNggT4OuATpEhQfOlBWg9KNEU9LCeWIMuWLTtxLNmKJdN2MnZsS+7m9Gxip7uVzaO9046j7u2tjcZV1uzsbsZVnUwl29mtnlk7/drZ2qrdqu5dazerqt5Uxz3V3f+t7+Je8hICQIAEQDw+V6FAUyBw73e/88N3zj33HgH+jyPAEeAIlEgERIlsJ28mR4AjwBHAGlj/7if/jsPBEeAIcASKOgJrYF14/CJ+8P4fFPXG8sZxBDgClR2BNbDGxqYwP3cYP/gBo1XZKcF7zxEo3gisgbVv30EI4cK+vQfwztu/XbxbzFvGEeAIVGwE7gOL0OrtHcI7b79dsUHhHecIcASKMwJJwSK0wmHJaBXnMeOt4ghUbARSgmW1WtHfF8ZXXnm5YoPDO84R4AgUVwRSgiWEAKE1NDSIJ594ori2mreGI8ARqMgIpAWL0LJYLAgFg4xWRaYH7zRHoLgisClYhBY92tsDKlqffvppce0Bbw1HgCNQMRHIGCxCq621ldGqmNTgHeUIFF8EUoDlVKsqvboyPjc3NzNaxXcceYs4AhURgRRguVKCRXg1NjYwWhWRHryTHIHiioABrAPqTHeagxV/xMeujNWV8ee6ujpGq7iOJW8NR6DsI2AAaw5CUFcwM7AIr9paH6NV9inCO8gRKJ4IGMDaAyGsBrTSV1h6teX11jBaxXM8eUs4AmUdgQSwCClCy5F2DEvHSn/2eDwqWp98/HFZB4t3jiPAEdjZCCQBi9CyZAUWwVVVVcVo7eyx5E/nCJR9BFKAlVl3UK+w9GeX08lolX3K8A5yBHYuAjkFi+Cy2+0qWrdu/WDn9oo/mSPAESjLCOQcLEKLLpqmC6YZrbLMGd4pjsCORSAvYBFaJpOJ0dqxw8ofzBEozwjkDSx9XIsrrfJMHN4rjsBORCDvYBFcszPT3D3ciaPLn8kRKLMIFAQsQmtqcpLRKrPk4d3hCBQ6AgUDi9DaPRFltAp9hPnzOAJlFIGCgkVojY+PMVpllEC8KxyBQkag4GARWrtGRxmtQh5l/iyOQJlEYEfAIrQikWFGq0ySiHeDI1CoCOwYWIQWrcjDk0sLdaj5czgCpR+BHQWL0Bro7+cFW0s/j3gPOAIFicCOg0Vo8SrTBTnW/CEcgZKPQFGARWj19vZwpVXy6cQ7wBHIbwSKBixCq7urS73+ML+7zO/OEeAIlGoEigosQisU4lWmSzWZeLs5AvmOQNGBRWh1tLdzpZXvI8/vzxEowQgUJViEVltbm4rWp59+WoJh5U3mCHAE8hGBogWL0Gpp4VWm83HQ+T05AqUagaIGi9BqbGzkSqtUs4u3myOQ4wgUPViEVn09rzKd4+POb8cRKMkIlARYhJa/tpYrrZJMMd5ojkDuIlAyYBFaXq+X0crdsed34giUXARKCixCq7o6vso0nz0suVzjDeYIbDsCJQcWocWrTG/7uPMbcARKMgIlCRah5XK51O7hJx9/XJKB543mCHAEso9AyYJFaOmrTP/oRz/Kfs/5LzgCHIGSi0BJg0Vo8SrTJZdzvMEcgS1HoOTBIrTMZl5lessZwH/IESihCJQFWIQWPXiV6RLKPN5UjsAWIlBWYBFaszMzfJ/4LSQC/wlHoBQiUHZgEVrTU7zKdCkkH28jRyDbCJQlWITW7t0TXGllmw38eo5AkUegbMEitKLj44xWkScgbx5HIJsIlDVYhNbYLl5lOpuE4NdyBIo5AmUPFqE1EolwpVXMWcjbxhHIMAIVARahNcyrTGeYEvwyjkDxRqBiwCK0BgZ4leniTUXeMo7A5hGoKLAIrb5wmBds3Twv+BUcgaKMQMWBRWjxKtNFmYu8URyBTSNQkWARWrzK9Ka5wS/gCBRdBCoWLEIrFAqp1x8W3VHhDeIIcASSRqCiwSK0Ojp4lemkmcG/5AgUYQQqHixCK8CrTBdhavImcQTujwCDpd2ahleZvj85+DccgWKLAIOlgUWVVlMTrzJdbAnK28MRMEaAwTKARWg11Nfz2ofGDOGfOQJFFAEGKwEsQsvv9zNaRZSkvCkcAT0CDFYSsAgtn8+HJ594Erxgq54q/MwR2PkIMFgpwBLChOpqRmvnU5S3gCOwHgEGKw1YQligKDVqpfXJx5+sR41/4ghwBHYkAgzWJmARWi6XgiefuAhGa0dylD+UI7AWAQYrA7AILYejitFaSxv+gSOwMxFgsDIESwgrbDa3itatW3+wM0eLP5UjUOERYLCyAEsIG8xmB6NV4Y2Gd3/nIsBgZQkWoUUPGtPiSmvnEpc/uTIjwGBtESxC64knnmS0KrPd8F7vUAQYLCNYVjNo0mj8YQINtq8/rGplpVdY+vP01Cxu3bq1Q4ePP5YjUFkRYLDWgBIQThuEjZAitDIDi+Ca3D3Fy4hVVrvhvd2hCDBYRrDcDgh6qGhlDhadQZyI8irTO5TD/LEVFAEGywhWlQNCccbRshq7g/Rz8i5hvGtI/0arTO/iSquCGg/vauEjwGAlA4vQcjq0MSsdrs3BIrRGR3iV6cKnMX9ipUSAwUoFltsJIYxoZQYWoTU8PMSVVqW0IN7PgkaAwdoULB2tzMEitAYHBnjB1oKmMn9YJUSAwcoILEIrO7AIrb4+XmW6EhoR72PhIsBgpQLLpXcJCSsdLBrPis903/hMmOnztzY+y95errQKl8/8SWUeAQbLCI1+llA9U5gIFmFFGCVDKzVY9Dc93d28YGuZNyTevcJEgMHKGqxkaKUHi9Dq7ORVpguT0vwp5RwBBmtLYOlo6eNam4NFaAU7OrjSKufWxPuW9wgwWBmDlQwluvaQfp/s3zaOZcW7kwKBQBuvyJP3tOYPKNcIMFhGsOhaQhq/SjuGlQiRjlbi71P/f2tLC6NVri2K9yuvEWCwjGCZTRAue5ZgEUzGuzykhkqvsui5qamJ0cpravObl2MEGCwjWPSzxRxHa22muz6tQT9LmBlIRpxS/dzQwKtMl2Oj4n3KXwQYrESw6P+p0nLQfCsdK3rOPVgEGa8ynb/k5ncuvwgwWMnA0tFSJ4nqaOUHLEIrvsr0E7zKdPm1L96jHEeAwUoFlvp7uieWXmnlDyxCq6a6mse0cpzc/HblFwEGKy1YNF6lo5VfsAgtRaEFW5/AJx9/XH6ZxnvEEchBBBisTcHS0co/WISW2+1itHKQ2PwW5RkBBisjsHJ3ZpBQ2uzhcNDah1xplWeT473aTgQYrAwA2QyYfPy7zUZrHz7BNwLcTnbz35ZdBBisIgWLEDSbzYxW2TU53qHtRIDBKmKw9MqNK63tpDj/bTlFgMEqAbAILkarnJod78tWI8BglQhYhNbMNC/YutVE578rjwgwWCUEFqE1ObmbB+LLo+3xXmwhAgxWiYFFaPEq01vIdP6TsogAg1WCYBFaY2O8ynRZtEDeiawiwGCVKFiE1ujICHcPs0p3fnGpR4DBKmGwCK0IrzJd6m2Qtz+LCDBYJQ4WoTU4yKtMZ5Hz/NISjgCDVQZgEVr9fX28YGsJN0Te9MwiwGCVCViElpS8ynRmac+vKtUIMFhlBBahxatMl2pT5O3OJAIMVpmBRWjxKtOZpD6/phQjwGCVIViEVjDIq0yXYoPkbU4fAQarTMEitNoDAfWi6U8//TR9FvC/cgRKJAIMVhmDRWi1trYyWiXSGHkzN48Ag1XmYBFazc28yvTmTYFfUQoRYLAqACxCq7GhgSutUmiRvI1pI8BgVQhYhFZdXR2jlbY58D8WewTKHywTrSu4+Uo1lfKaWp+P0Sr2VsnblzIC5Q+WwwrBaG1Au6amhtFK2ST4H4o5AuUPltMG4bJDmLnSMlaRHg+vMl3MDZO3LXkEKgMsxcFoJekWu91utdL65OOPk2cH/5YjUGQRqBywdLSEeUP3yFh1VOLPTqeT0SqyRsmbkzoClQUWoWVyQDBaG9DmVaZTNxD+l+KKQAWC5YIQTkYroYtosVjUSuvWrR8UV4by1nAEDBGoULAYrWTdX5PJxGgZGgf/WHwRqGCwCC3qHvIcrcQY8CrTxddQeYviEahwsKhryGAli8HMzDRu3brF7YQjUFQRYLAYrJRoT01P4dYf/VFRJSxvTGVHgMFisFKCJSwWTOzbz2hVthFFtfcMFoOVFiyhVGN8zx5Gq6iabeVuDIPFYG0KFqG1a2YGt/7wv6zclsJ7XhQRYLAYrIzAIrQi47tx69YfFkXi8kZUZgQYLAYrY7CEvQpDg2N45+3frszWwnu94xFgsBisrMASwoX+/lFGa8ebbmVuQAWCRXOvaNKoPtud52Elm4el/s5iAXUF1x72qrXYhWUE77z9TmW2Gt7rHYtABYJlX2t08WsKGaytgEXg9/T04iuvvLxjycsfXHkRqECwbBCC0KJKi2e6p8SKusppKqx4hWpGV1enev1h5TUd3uOdiECFgqWjRXBxhZUyBhmARX8bCgYZrZ1ovRX4mRUMFqFlZbDSgZ0hWIRWezuvMl2BfhR8lxmsdA220v/NbF4fcKfBd8Ogu94lNFZnbbzKdMEbcKV9IINV6Sil239abchdtY7WJmARXs3NzWr38NNPP620tsT7W4AIMFjpGiz/G4TNvo5WBmARWo2NvMp0AdpuRX4Eg8UopR/HoypLRytDsAgtXmW6Ij3J+04zWAxWerAoPjpaNn3Crf6cfgWi2lpeZTrvLbjCPqD8wbLRbG3H+sNEZwf1B58lNA6ap/2Z0DJT3IxXCqQHi97Py6tMVxgp+d3d8geLGhotV6+jxWBtXlGlrToJeboXPlVZm4NFaHk8HnUgnhdszW9jroR3L3+w9C4NoVVF6xLq1RU9c4WVtqpKCZdFQyszsOgzqqp4lelKACXf+1gZYBnRYrC2WWHpVwYQWpmDRWjxKtP5bs7l//6VA5aKFjU2amRUWXGFtbXqSgeLnk1Z42e329XuIS/YWv645GMPKwustS6OjhZ3CbePlhGwzH62Wq2MVj5acwW8Z4WCRQ1LRyuzRrYTDbucP5NXma4AXfKwixUMFkGVfZemnBHZiX3jVabz0KrL+C0rHCyurnYCqcTPnFVXmf5BGTcz3rVcRYDBWhvXYrwSISnk/09NToIH4nPVrMv3fRgsI1h0OxXj//PPBY3H7okoo1W+1uRkzxgsI0p2B4SZ5hdxtbVTMRgfH2O0ctK0y/NNGCwjTlVVEE5X/F7mxt/zzwVFfNfoKKNVnt5se68YLCNGBBbdWZPQ4kqroEglVnSRyDCjte3mXX5vwGAlA4vQctBdCXhMKxGSQv7/0OAgo1V+5mxrjxisVGC5Fe3yHUarkEglftZAfx/eefvtbSU5/3H5RIDBSgsW3UaFrjlktBIhKeT/h8OS0Sofc7a1JwzWpmDpaPGs+EIilfhZvT09jNa2mnp5/DGDlRFYhBZXWYmIFPr/eZXp8kBnO3vBYGUMFs/PKjRQyT6PV5neTnMv/b9lsBisHZ2+kAylzX7X3t6u3p6m9Jsf70G2EWCwGKySA4tAa2trVdHiBVuzbfKl/XoGi8FKDZapuC9RamnhVaZLm5/st57BMoJlXJZdnYdFg+36owLHsMwmCEtxn2xobGzkSiv7dl+yf8FgGcFyOiEUT/zyHAYLwmKCqLJDWIsb6/r6OkarZAnKbsMZLCNYdP2gyx1Hi8GKg0XrOa6hVbxz0fy1tYxWdm2/JF/NYBnBop8t1jhaDNY6WDpa6gXhxYuW1+tltEqSocw3msFKBEtFy6Jd/KyPX9FzcXeLNpsKsKV/py6hvmI2PdvsWhyKF63qal5lOvPmX3qvZLCSgUW/U6sJuo5QR4vBEnSDQ1H8aFVVVamV1icff1x6LZK3OG0EGKxUYKm/pzNktHYhV1hqpaWCVRqAu1wuRitt0y/Nf2Sw0oJF85B0tLjCildYOlj0XLxdQ+oC8yrTpYlSuq1msDYFi9Cihlnc85G2NEa12b4njmFtqLCKHyyKCa8yna75l96/MVibNdq1fy/uamJnwCoNxM1mk9o95GXESg+oxC1msNZAKu7LUPIC0mb7vmmFVRpg6bHjVaYTm3/p/T+DtVmjreR/LzOwCC5eZbr0kDJuMYNVySBttu9lCBahNT3Fq0wbESilnxmszRptJf87XfxsnDh636B7aXUJ9a4hPe+emOAVeUpJKm1bGaxKBimTfXfa19EqI7BoysPBAw8wWiWGFoOVSaOt5NfQPbGcNogqB+6fh1W6FZZebUXHxxitEkKrsGCZKnBqQLlgR2jZjJNG6efSB4sqrZFIhNEqEbQKCxbdV6nIbwinf/Pyc5JpHlbjtZXlAZZ+nIeHeJXpUjCrsGDZrfHuBaOV+rbERV+RGdEq/QpLB4ueBwb6ee3DIlersGA5rPEBXOpeMFplgFZ5gUVo9YXDjFYRo7UzYNGpckLLVH4Jb/zGLu+f6S4W5Xn8ent5leliNWvnwCK0zPq9lZKMlxR914i3udjv1rCdL4zuri71+sNibbiVul2pwcrHGT29S6hPRjS7KvdeUwxy0XeJQ6EQo1VkMiYHi7CyU5ctx9MQkoLFaG2nEuC/zW+l29HBq0wXk1mpwapyQTjsEOYcjlOkBEtHK7/Jx42b47uVHAi0tamVFq8yvfN0pQZLcUPoaOVqcDUtWM6i7yJsJdn5b8oDSV5leuexoi1ID5aOljo4noNKi8FilEt47K6JV5necbU2B4vQslCXjc7obRMtBovBKmGwqFqur6/n7uEOspUZWFY3hMgBWgwWg1XiYBFafj+vMr1TZmUJlo7WFsclbJb1W5Wo87Do/fQHj2HxeNcW82oHEORVpneGrC2ARcBsMbHohnAu2zpa6jwsBmvL8dzqceC/23oOG2JXXV3N3cMCu7VFsLYxP4uuIaTLcrjCykmjYey2+OVpgGc7MVR4lemCklV4sChRdLS4wmK0cgTHdtDZ7t/yKtOFM2tnwNLRUqdLcJdwuw2G/35nqyyKv8PhULuHP/rRjwrXeivwk3YOLEJLvVsDTZcgtHjQneHZeXi2cwx4len8C7qzYKndAZrbRWgxWNtpLPy3xYGd2WxWKy1eZTo/eCUHiyBxuyBo0ig91uZh6d23bQy6q0glJhehRXeyTPw9/z/HpDRzgFeZLjRYNts6WnkHi5Jym7PoGTsGv8hy4IknLvDiFjl2K3WFRQffZo2jVRCwSvOblCsgPm7pcmB6aorRyiFa6cHS0bLQ+JLeHaTnXHcJOenTJT3/W2nnx+RuXmU6V2ZtDhahZaL7d9OyTjpaDBYjUtqIFPr4RaPjXGnlQK3MwFLHBiwGtBisQic8f17pAzm2a5TR2iZaWYBFCaOjxWAxIKUPyE4cw5ERXmV6O2ZlCZaOFifrTiQ7f2Z55N3w0BBXWltUawtglUfScOPn47iTOTDIq0xviSwGSx2f48a7k423Uj+7r49Xmc5WLQaLweIJpzuYA7K3F++8/Xa27bZiX89g7WCyVmplwfu9saLv7uZVpjMVmMFisLjCKoIc6ORVpjMyi8EqgmTlimNjxVGp8Qh2dKh3esio5VboixgsBosrrCLKgUCAV5lOZzGDVUTJWqmVBe/3xgqztaWFF7dIoRaDxWBxhVWEOdDU1MRoJUGLwSrCZOWKY2PFUanxaGjgVaYTzWKwGCyusIo4B/x+P1daBrUYrCJO1kqtLHi/N1aYPp+P0dLQYrAYLK6wSiAHaniVaZUsBqsEkpUrjo0VR6XGQ1EUtdL65OOPDZ2kyvqRwWKwuMIqoRxwu10VjRaDVULJWqmVBe/3xgpTX2W6EistBovB4gqrBHPAZrOplValLdjKYJVgsnLFsbHiqNR4VOIq0wwWg8UVVonnQCWtMp0cLJMJwsorMVfqNzfvd+lVcJWyynRqsBQHhJVWySm9g8fbzMesEnNgZrr8V5lODxahZWO0KjH5eZ9LE/3Jyd1lvSLP5mARWmbuHnIDLs0GXInHbaKMV5nODCwrLVXPi6dWYvLzPpcm1GNju8qy0soCLOoaMlrcgEuzAVficRsdGSk7tLIEi9Di7mElJj/vc2lCHRkur1WmtwAWD8Jz4y3Nxlupx21wcKBs1j5ksHjaBk9dqYAc6O/rKwu0GKwKSNZKrSx4vzdWwlKW/irTDBaDxRVWBeVAT3e3etF0qd5Fi8GqoGTlimNjxVGp8ejsDJUsWinAEhA0YVR/qPOwaLBdf/CBr9Rk5/0uj9wPBktzlenUYLntDBZXX9xdLOMcaA8E1Err008/LZkeYnKw6CDRhc86WtlUWHYfJ3kZJzlXWOVRYenHsbW1tFaZTg2WEa1swHI2QrjbGC1Gi3OgRHKgual0VplOD5aKlhnCoo9d6c9pvmWcTRBKN4Q7wAlbIgmrf9vyc5q8LvNj2dDQUBLdw83BogNlostxdKzoOc2B1cEitOjndK/lf+P4cA4UTQ7U1RX/KtOZgaUmFV34rKOVIVguqrJsRXNAGM80x43h4DwVAsW+ynQWYFGy62ilSXxjhbUGFqHFd3pgMNPkDYNZNGDW1NQUbfcwS7B0tNIkXkqwuNJisNLkDYNVNGBRnno8xbnK9BbA2iTp0oLFt6ZhtDbJH4araOByu91qpVVMC7YyWNxAiqaBMObFh7nT6SwqtPIKlmXDGBZ1CbnC4kZZfI2Sj0n6Y1JMq0wbwNqXm29aQ5ewppzAMm8ynYMrtdzkD8exKONosVjUSuvWrR/s6GU8BrD256YCMoDVUE5guaohrHzigKuR9NVIOcfHZDLtOFoJYFEVsc1umwGspnICK9AP4W+FsNqL8huwnBsK71txIfnkE0/s2OIWScDSJ4ducd6Utz5+aY7SjZZyAqtrDGJiGaIuAGFzMFrcdavoHNipVabTgEWVxBbQavBDNIdUtILFDpZ6yVGG3149UYj95yB2H4do6Nh+JcoNvqIbfDlUjVM7sMp0GrCoitgCWs1+iO52iJYQuoodLOreOd2ZNRwCa/4xiLlzEJMnIEwUny2AzlBlFm+OU0nEaSIaLWj3cBOwdLQyrEIoyQgsGVDR6msIwqSiR4PVWUxrMGXxedtJbIcLorkdwlm1eXLoYKloPQph9Wr7xGiVQ7XA+7D1NjdewFWmMwAry0pCB0sGMNTeiUY7XQBN75ENWCaIntbNEdkOVvS3BJYchmgJQrg2QcsIFqFlrYUQytaq0O1uN/99/nODY5xVjEdHC7PKdIZgZXHm0ABWJNSJ3qohOBztECZn5uM+JhPE8hTEUDCroGX9LamDJSMQrSEIlyf15yUFi15PaFlT/x0nPsemQnIgMjyc9+5hXsHqC3ViQNkFT9UQBKGVacMmsE5MQ5zZD89AZ/4SXgPLRGDRo60nJVqOnihMVFnpD7XCqoYQhJYrf9tYIcme9ZcNx6Uoc25ocDCvC7bmHqxWbQxLBtAc6kRYGUO1sguiahjCUpNZkHWwYnNoOrEfvoGuzP4u2yTWwLLJCMwqWuMQbRLCTRBt7NO7eqJQ5h+D+T6w6LUZDtwnvGfiZ/D/b4w5x6M049Hfn79VpnMPVocfoj+gDrxbQ50IqGCNQShjELaGzM6sGcE6OYf2pb1wDefhlssaWG4ZgSIjMMlxCBmFCIQhXNTVW08YpScK7/xjaJx/DJa1MSzCisEyxol/Xs+ZSo5FWMq8VFq5B6vTDzEagBgIgMDyGcGy0y2TaWLqJmfWDGDVEVjL+1GztAtihOY/5TAhNLCqZASNMgKLDhah1Uxd0fXtrOmJon7+MQTmH0Mrg5Xb45DLY8rvVTTHpqenG1955eWcXntoAIsuftZnudMzndnTH1kMuhNY0YCKlq0rFViboGUAy3pyDs3L++FdHoOJ0NqVw4F4DSyfjKBZRmAzghUa0k4SxNGq7YmqWHXMP4YgdQ3XxrC4wsrplwiDUzTg5OK4dnV1qtcf5kotA1h7tYpCR0vHip63AFY0AFe4E9VJKyz9M1JUSxpYptgcxMk5OJf3o47AWh6DILRCjbk5qBpY9TKCgIzAfh9Y+naaUNs9jpCGFT0zWCmOHYOTm9wsoziGgsGcoWUAa48WaKooqKFuHyz3QCdcyhhqafyKHmtdQh2CFEmvgWWLzcF8cg625f1o18EitEZCmZ9xTHfgNbAaZARBGYEnJVgWKMFhBOceVdFisFIct3Sx5n+raMja23OzynQSsLRlvdRLT3S0sqiwQrXxLmE0AMdAJ+zKGJq3CFZVbA5VJ+dgXd6PDiNYowQWTUTd5vwnDaw6GUFIRuCT4zDR+BU91C6hDqsFlqZOtEydRHDunIoWV1iMVi66TJX0Hm2trWql9emnn265h5gCLBOE3aFdL5dll7DWDTHWpqJl0sCiM4WbV1gmCAshRGDG52F5YnNoPDkH8/J+BJKCtU20NLDoDGGHjKA2DVh0wXP1wDQap06gY+4cdwm5Yqroimmr0DY3N28LrdRgVTkMaGVRYVnNEC01cbQ0sDqUMZg36xISUk4vzHa7Cpb3xDQIrNaTczAt74dveQxm6g7SY63CIrDosX42L6tAOqog5AjoLGGtjKAuDVjmhg4oMgpH/xTqp47D5qjTpjTwoHtWMWfoKh66xsatrzKdGizFAUEPqrSyGXSnhLRbIJqrIfpDapcwqIypz2nHsOhWL0ojbD4frFUOtJyYRrMGlljeD+vyGCx6lXUfWFmAamwwjmoIOYsqOQo6UxhIA5atoQM1MgqrjMLSPwW/rw3CQhdAM1gMFnePs82Burq6LVVam4NFaJlprCjLKobQqvPCrowgpIyhatMKKw6Ws7kJVW21aDg4hY7YHLwn50BgUWVl0x73V1jbAesovHIPfHIU7WnAcjV0oEEDi8a4BnoGIKpbIEyEFs90zzZh+fWMXG2tL2u0MgNLvS0woZAlWjYLLPZ6dCgj8GQBllc2wT02gaalfXAngOVM2iXcOlhmuYR6eRR14b1o64+mHHR3NXagLRyFXbzdTvAAACAASURBVBuUH5ZDEF0DEDZCK81F08aKjn+u+O4QQ70Ram+Wq0xnARaNFWWPlslkQ7WtDooyAmHTZ7rrZ98MG693CZubQGCZw1G4JmZgP7hvQ4XlzjFYHrmEBnkMTeFFNE7NwjQwkfQsoSvUgfaBKBzh+FnETgKrewhCGYSw1mePOePFeHEOqDng8XjUSuv//Ju/2fTsYZZgEVqEjQGaDH62mKyw2fwQNprwqWOV8D4aWGYdLBmFKTwF89gMxHy8S0iD7q4cg9Uil9CsgnUMvkMPwDQ7C0FoJUxrcHV3oGc2CidVYeEoatbAGoJw0cXZtD9ZVqAZxC7bWPPrs8tNjldxxKuqyo3//X/7X/MBFqGV/U6aTFYIM92GJQ1Y1Y0QzU2olk3qGTkhpyDCUxCj8xBzx9RxLBp8z9UYlslRjYBcQps8hvrwMdQeOQDT4hzEnlmI7uEN2+rq6YCci8I9HoVN7TrqFZYOlo45o7WV/OC/yb5NlVvM/vLPf1E8YMWDq3cpdbQMB8lihmhohGhtgkc2oVVGYSawVLTmIUYvwbpnOX55To7OEpod1aAKi8DyhY+h8cgBWJbnIR6cgxgfvw+s8HwUVbujaNwVhQgnA0tHy7BfW8C93BKR94fzIZMc+LOP/0OxgaUfOIIroUtIYPU2QoSaoPQ1ISRpgFsDS85DhF+Fs/8yPNETOauwLI5q1GtjWARW+5EDcBJY9Ni/+z6wOgisySjaolGYCayeIYhqY4VFYNGDq6xMEpRfo7cHfqZcKGKw6AAlNGoCSzZCDDfBORQHy2EES74Gd/BVtLQ8B2cwqsGgA7G1s4QEllcuwSOPQdHA8i3Pw0RgzU/eB1btfBTOySgCOlg0juUfgnDTGJa+LQwWQ8QAbSUHihyshINqAMsUbUJHOIpEsKo6XkPI8yq83sMJQGwNLOoS+uQS7PIYbOFjCBw5gNrleZiTgdXdAe98FNbJKBqNYHUNQdQwWFtJUP6bhDZQ4cMHJQuWJdqEQL8GVg91C+dhkq+hpuM1dCqvoc55PCdgCUc1GuQSHPIYTOFjaEsHVjCImvkJWHdHURONopG6hFRh0aOFwWJ8GJ/t5kDJguWKNqFdB6t9CqbuOFjNHa+hRwXrRM7AapVL8GYCVnsIzqlJWHdPoDoaxZARrHYGa7vJyn/P4JUWWHTR9GCTOoalRJsQ1MGqm4K5bR42+RpaOl5Df47BomkNLfIYrJtUWI5ACPaJKZgik1DGJzAcppV2tAqLwdrSVBdGipEy5kDpgTXbDDHSBM94E0IGsKzeedTK19DU+RoGcgxWszatwRE+hs4jB+BNMYZlDYRgjU5BDEzBMjCJPpofpq60MwTBYDFYFT7+ZIRnqz/nECzjGTD6OcNvBrplTKavpQprfwvEeAs8o80I9U3EB93rpmDxzqNDvobavtfQXU9jWLnrEvrVawmPwRk+BnnkAFwpwBKBEMwEVv+UOgO/KvwcTHIG6pqGDFbmxznTfODXVVxMcwgW3a2BHjpcGYJlNkNYM7wrKIE11wIx0QpPfytaOvfBLqch6qZg8s6jWb4Gz8hrqB14DT5PbsFS5DG4wscQ1iaOJpvWQGAJDSyazGqWr8Mir8Em90C09xhiw9MaMv6SYpQqDqV0uZFjsGiip45WhmBZLBBuN4Qtg6rMCJZsg7vuFKzBgxB10xDeebjka6geeQ1i/jU423IHVq1cggqWPIbuvbH4lIYk0xpEcCNYQl6HVb6FRrkC0T4KIewGtLKoLLnRcqPlHFBzIA9gWSDomkB3hvOeCCylGsLp2hytBLCs3kdg8p2F8B2C8D4Ai3wNfg0s0Zc7sBS5hCqqsOQxhMa+jKG5x+Iz3RMmjoruEMR0vEuoXi6kgrWKNvkWRPt5bdEOHS0GK903Kf9bhl/4FQZZfsAyWyC6bBBVGaClg0Vouasg6G9THQQDWC7ZBgJLKBcgqs9C1CzBLF9FfR7AcmvzsOJgvYDliZfgOHzhvpnuoicEsX8KYiQ+hhWvsFYRkKsQ7V+AEFUGtBislMc51fHn36duGxUSm1/8z/8+V9cSUldQu2CZ0Nnjgui1QdAYVbpgGsEitGxUgaT4GwNYDtmGOh0sQssTg7n9y6iPvKp2CXNZYbm0me4EVnDsBRyPvgJl7iWI2YfW91lYYCGw5qcgJqbgGJqCuZe6hDpYz0AIWtqe7jxKt5RmsNLmRbqc4X9L36bKOD6f/Ic/xT/+4z+mRSvD+2ElAWvOBeEgtNJUTYlg2Z0aAknQMoBlk21o9z4CK2GlPh6H2XsB9V1XIOb+GXIJlt1QYRFYRwms/a9ATD61ASx3TwhmAmtyCp6xKdS0Xoe9NxEsqrIILQaLweJuX7Y58O//p5/j17/+Nf7hH/4hJVrbA0shtJwQZqqckhyglGARcgloGcAyyzZ0eB+BwwiWEkN97QWIwSsQ4dxdmkO3SKZBd7c8ho6xFxCNvoIqFaynN4Dl6wnBroFVE51CwHcd/pZVdPRQl1CvsAgseiTsW7LY8O+S5wzHpWLj8j/+Dz/F3bt306K1fbAUD4TDC2FJglZasBIqMwNYQquw6hPBUmIQdY9DtC4YzsjRGcgtAqGumrMEvzyGGnkM7btewGj0FTiTgFXbE4J7fgqmySnUR6cQrLmOUM0qwi2rsLYlgpWwb9wIK7YRJv0i53xImg8//ckf4y/+4i9AC63+3d/9XdJKKzdgKS0QTt/9aG0DrID3EYwqF2DTu4RUYRFY6mNvTsGie7rTo3n4BUTGX4EjCVi9HXINrFB0Cj0119GlrGKkehV1tQwWN8wkPQyGKSlMqXLljz/6EX7yk59sQCtxTCs5WBRotz2+LiEt86VO/qSqwRIfs6JBdxrDoi4hVVgE1hpahhVkaP4VDbbrj7UxLO29jAfUUGGZZBsIrCPKBVQrF2BSHofZCJZzJudg0X3d6/peQH/kFTj20RjWxi7hUKAPDZMH1QprIDqFwZrrkMoqdimr6HYzWKmSkH/PkGWaA//2v/s3uH37Nn784x/jz//8z9VK6z/9p/+0YTwrNVgW0zpamYKlotUJYamNy5pNhUWfNxuf6U5g9WhgNSgXYFYehz0fYNlrIOQSWqm6otskyxfQ1f8K7NOvQOzeCNZgoA/N0QWYhg5iMDqF0ZrrGFRW1Uevi8HKNCn5dQxYqhz40X/73+C9995T0frjP/5jFa2//du/zRAsqn50tLIBi9YfdA7F0coGLLruMNwAMdYCAmuX9xHMKhegg6UoMTToXcJcVVhWL0TwBDrkMUgNrGD4Fdiir0Ds2ghWSAerfwGD/Qexy/smRqi6UlbRymBlVfqnSlj+fWVj9t//m3+N733ve/j93/99/PCHPwSh9dd//df4p3/6pzW0UldYenfNbIIgeBLnYSXrEqpdwzEIZQ7CISEcbevdQeoWpusSEli+WohwI0yyFdPeR9CrXAANvFOF5csHWGYvRN3nEAieREQeQ5t8ASpYY69ADG8ES6EuIVVYBJZcwL7u0xitfgvtyioUBovB0tsLP285Fwis73znO2toUffwr/7qrzYMvm8OFh0AE8lPZ+I2GcMygkVoVe+DqX5yHa3NwFJ8EK21MMkmzPofQ6tyAXXKBXiVx1GbL7CUs2iq+zwGOk6iU76AfqqwCKzBjWC5An3wRRdg7l9An1zAnFzCVPdDaKm5DhODteUk5aqqsqsq4/EnsL797W+raH33u9/F97//ffzpn/4pjONYmYG19q1hTj/ongiW/zTMoRdgpwuYM6mwCKxmAqsO820rCHm/BL9yAb3K42jMI1gNylkE/Z9Hb8cXEQm/AnsSsNztcbCs/QvokAvYK5cwI5dg6TkFoVzUZrrr87B4WoMxEflnRimTHNDBIrTo8e677+JnP/sZ/v7v/z6LLuEaVlrQaYXm6RRnCRPAMvlPwyJvwtN+DWbP7OZdQgNYC/JtjLbeQKPvWYwoj6M9z2A1K2fR5z+LUPuzcCQBqzrUB+/uBRBYPrmAAbmESbmkDtqLwH4GKzFP+P+56swyBxLBovEsmubw2WefbQMs2ohBR/x6wsRpDQlgWf2n4ZA34eu+CZvnJQjnwPpYmDomZvjmoTEsDSxBFZb8Jg72fh+h1rcw7ruEkBJTqyx1HlauBt1pDEs5i1rlLAisAeUkqv1nYOv90n1dQl93Hzx7FmAZXEB1eAF1cglDOljte7QZ7lxhZfJNyq8x5H2WjbqcY5cIFnULaYrD9sGymeJobQKWw38aDfIm6rtvwu65CVH1MIS1zYCW4cAlgBWQ38ScfB9Dvd/HvrbfRHvts1sDi943VVJoYHk0sPqVk7AoJ2BuOAMROmPYTgtqe/pQNbcA09gCPH1UZS2hYw2sWQYrVYz596nzj2OzITb5A4sG4a0mCKcDQlHWJ46qFRYNss+pD6f/NLrkTXR234SDwFKegXBPQ1gD2s0Ak4DVWguqsGzym+iX72OXfB9H5Q/Q1PZ1NNVeis90z6bCstshUqGlgeXWwOpSwToOQXc0rVvS7i4RP0Pq6+mDe34BYvcCbCNxsGgBC5rHJdoZrJRfCtwoNzRKjpOhzSfkRv7Aog8itAgCjwvC26yi5VTB2rUGlst/Gt3yJiLdN+HWwVIOQ7hnIKztG+9qoFdYPbUQg3UQ8psIyPexKN/HEXkLtfI2WgLfgLn2MkQ2YDmdEC4nBM2kV892GgKmgVWtgdWonIRHOQ5BD89BCDfdeJCukbRA6emDh8CaXIBpfAHeME04ZbC4ARryKaEBcmyyi01+wdIPTo0FIlSnouVSWuBVxmDWKiy3/zQG5U2MdN+ExwiWitYs7DbvOlpGsObqIMLfRIt8H5+X72Ne3oJffoBWeRv2wDsQNYuZX5pDYFEV2Er4JKClgdWknEWbchZ+5STalOMwq2gdhFDca2i5evrQNL8A0+QCRDQOFo1jcYWVXVJyI+Z4pcqBAoFlhtjnhuisg1LTDL8yhkllDjZlDor/NHbLm3ggGVjKYVRVhWCyeSDozKMOVm8txHwdxEAcrLPyfeyTtxCQH6BNfgC3vA3R9hSEq8aAVpq7NRBYHgWiS4Fod0G46DbPWtJoYPUrZ9GtgRVUjsNqBEtDyxOcQtv8AmwGsLwMFnd39C9uft52LhQOrHmXipYj0AB/7S7sV+ZwRJmD138ae+VNnOu+ibbECks5DI/SC3NVCwShRTcCpLOECWCdlO9jr7yFkPwAXfIDVMsPYJL/DKK5HcKto5UBWD0KhFQgdnkgPDQBVkBoYIWVsxg1gGVLBEtxwxc4jLqJJ+EwgFXDYG07SVN92/LvK68SKyxYGlp14Qj21c7hhDKHcf9pTMmbuNR9E8Oem6ivewaCuoPaw01gKe0QVa0Qdrqrg/8+sKbk+9itgdUrP0Cn/AA2+SpMcgCipQPCTd3KDMHq80Ds9UJMVUPUWiCsPnVaQ5dyFiPKWdQrJ0EVVjKwaluX4Bl8Bdbei2tdQlpxh7uEldewGNP8HPPCgzXvQsPhfkwN7sWifw6T/tNokjfxZPdNTHpuYijwDGrb1sGyKb1wEFg6WkozRJd/Q5dwUr4PKW9hQH4AAqtPfoBm+SpschCC0GrtgPDS/KcUQdS7hFRhEVj7vRCHvBBHqyHq6iA8ZxFSzmJQOYtAWrDorqRvwtT0FVSHnoI3/CBaGKzUcU91PPj3HLMUObAzYC32YdfiDMaG9yLadAqN8iZGu29ixHMT013PoHfoMEz9cbRMSi+8OljqcwdEczPEbP3aGNaEfB+98hb2yw/QLz9Q4QrKV9GogqWhFW6CqKX7xSdBKxlYCz6IM16IgwGIhkcR9MRA41ijykm0p6ywCKzrMPnfRLP/q3DJvQjIB7nCShZz/l3yXOS4pI3LjoDlX+zDyPIMmhZn0Bc5jMa+31LPElZ7bmK46xmMRA/DfOQwxBCh1YvGDWAFIao7IGQrRH980H1UA2tefoBdGlgh+Spa5SAsOlpTIYihOgib6/6ApAIr5oN4KAgx/CQC9efR74lhSjmJhmSD7oobta1xsMz+6wh43oS1dxz1tDK1XOR5WNwQ7887jknWMdkRsJyLfehfnkH98gzaD82gPvI4hnt/S53WYOp6Bj0Th2H5/GGIpcMQfUnAUoIQNSEI+Q5a5PcxJN9HWN7CQfkBxjSw2uSraDOCNR2C2NMK4a6D2ZrQPUwH1sNBiOhTaJQXIevOY8ZzEn7lOCxJBt11sBz+6wgp12HuHYFXRiAIrXa6A6p+WQ4988XPSatdbsRZN+JKiuOOgGVe7INveQa1yzNoOzKNuvFp9Aw/imrfP4foegamicMwnzkMcfYwxMFeePraITzaOBZhRQ9PJ0T3N9Aifx9D8vvol7fwiPwAUxpY9fJV+BLB2tsG4WmF1d0Cm82/nhgZgNUw+DS6ui5isv5z8HtOJAWrpjleYVX76U6j12HrHUENjaERWu1DDBZjtJ5zlRwLmp6kTxvKMg47ApZY7IN1eQb25Rm0HJmGPxpF+/gUantiMHdfhJg4DEFgxQ5DnOiF9YF2iP52iGpCKxGsdzFMaPX/Pp6QH+BRDaw69SzhIMx6l5AqLBWsNliVTnjcfXDqaGUIVkg+jdGux9FU/zlY6NIcRZs4SvOwFDcctcfg6boOAmtWuY6qNbAGINq7IQSNoelVFldYlVQZ8L4axo7pLsU2w1zHLNAqDFjtNgia0qA/FvsglmdgWp6B98g0vNEo2qJR1I9NwdX3EMT4whpYtpO9EMfaIQ5oaHnuBysi38VY5Hfx0NQ7eF5+gGH5AfzyVQgdK3o2gGVRuuBVovC5+2G11UFkAVZEXkSw63FYGj4XvzRHw0qd8a4cg7/hOmp9cbDqNoDVCSHoEh5a9Zm7hNyADQ04iwZbFnEjsGjhGnv2aBUGrBrzOlaElgYWoaUcmYYtGkUjgRWNonpoAWLoOMynFtQKy3OyF6bl9jha89Q13AiWT74LAmt6fBWD5xfw3NTXMSI/gD0RrJH1CsukdKFKmUCdEoXLPQDhboHweCCM0xroLCENumtjWNQllPJpEFid8knYuh+HqFuMX5qzhtYxNCnX0Vp9HbuV69gIVsgw657Q4gqrLBpfpWGTi/3VwdLRymIV9MKARRMw9eoqCVimaBQuDS0vnRkMn4Z78jjE6QV4TvTCTGDR4yh1CzeCZZfvolMDy3ZD4OKjBzEy+VswJYIVDkGM0hgW3UO+C2ZlAtXKBNzKBIQyGP99j2d9HlYCWP7Bp9FHXUIdLPkkRPtJ7W4U8S6hUI6hVbmOTuU6+pTr8G6osIxgbWNh11wkDL8HjyXtZA4YwSK06AqWDNEqDFhOE8SMcx0tQ4XlPDINEY3CGo2iORqFf+gwzPI0avpOwzR5AlUPhtfAMi8mgNX5DQj5LurkuxgZXwWBdeZ1gZEz8xCjFzd2CWUIoncdLKFMqGg5VLDGIZQhiNY2CFkdnziaAFaNVmHtkhcxSBUWgRV6CMJshXDQLXQIrWPq2UECK6hch6N3BFXqoDuNYSWCleYeXDuZTPzZjFm+cyARLGv8bieZoFUYsOiMQKcNYlpDywCWWQPLHI2iNRpFYOgwXPI0vPI0zH2nYR0bhOVIh9oltC22w2essJq+AdHzLjzyXfSOr8Kng7UiIOZ2Q4ToDB1NHKVHCKJnI1g6WkIhsMYgvMMQgQDEvloIDSyT1iV0Dz6NoFZhjcon4dDBUhfd0NDyLKFLuY5u5TratGkNVgaLAcg3AKX2/knBol7H5pVWYcCigBJaISvElBPiaHzQncawhAYWdQsJrNDQYbTI06iTdK/30xB9w3Dt6oI40gHb0XZ062ApnRA134Bofhfe/ncRGl9F2w2BRaqwCKzlGoiGfgNaycEitOJgjUN4xiFqh2EaD8J0yK+OYZkfDsIafQoEVrN8GiPyIoYTwdLQcvr2odPzhgpWnQaWemkQocUVFsNVarDka3tTgqWjlfqEROHA0nc+aIXY1wVxbEY9U6iDRd1CnwZWUJ5GQNK93k9DyGFU9XVDjHbBdrADPTRhVJ3a0Anh+QZEzbtoGn8XQ5OrCN0QmH1dYFwHS+mHqO+HCFKllQFYVGlVj8HcF4F9KgjxeT8sDwehRJ+CooFFg+4yGVjCAm/9GNpankWP5w34lesw9Y7Er2VksBgrPf/5Ob74Mo1d6Q+1S0hY6Y9iAosOWFcdxNyuOFpahaWPY9UNHUZIngahRd1CE4EluyH6umGOdCNU2w3hIbQ6IZRvQHjeRcfsuzh5aBWh1wUmXheYNIKlo9UeSNol3FBhEViecZh6x6AMRCAOhGA5EYI3+hRoDIvmYelnCe3GLqFaylpQ2xBBY88jGG79Emo9bzBY3DgZ6mQ5kLbCIrRSj+8WvsJSd8AM0dUGsX90rUtIYNHDNnRY7Q4SWrVqt3AYTgJLdsMc7oG/KwqLrwcmT1ccLOVdBPe8i6snVtH5okD0qwJTiWARWjWNEK0Na2cJ41BRd9DQJdTAEj1jqAqPQQyOwLRHwjd6Dr7BpzGUeJaQBt01rOjZ2xBBgzyFaM8j8LQ+A0vvKFdYyRKWf1fZkJUkWNTQO1shZiIqVDpYdMGzTZ6G3wCWWQdL9qBGTsHTNQFXrYSl+usQyrs4sOddvHRyFZ1fEhi7IjD+gjaGRVDpD2stRJUHwtWgTmtIBKtGHXjXxrF6xmCXYxCEVu8Qajv3wR8+hzH5NMblRQSMZwkNYFkaIqiXp7BbnoK75/NokXu1AX8ew+I5V6m7ORUXm5IFixp7ezNE/8A6WjQPS55W0XLL07DKYbW6ogrLJHvgkdOokdPo6t6NGv9vwlL9PZzZ8y5+h8B6RmD0aYHw0wLiwZp1rAgtAotmmVsJLVoQQ6+u4hWWXxmH2VBhmQgsenQNw18TQHPbXox2xzAhL6JePglrki6hqSECjzyFMXkKTnkK/fIghJyJo8WD7pVdVXBVuX78SxosQqu+AaKvP46WBhahRWcJzQawhOyBS06jWk5DyhlMdV9Ftf938Pm938P3T66im8B6SqD9nIA4kAIsQstCaHUb0BoHgWVRxmGiMaweDSsNLJ+nGaHqVgw1z2JEnkGtfBKWJGDZGyJQ5CmE5CkVrmFJ+B6AkLMQ7XRpjj6omL6fXnHfuNyY1xtzJcTCrF2ak3LQvRjHsAxdKXUcqK4eoq8PYuiQWmERWPHHeoVFYFnktIpWt5zBPnkFIz1fxdL+38a/1MBafkogQGDtSwMWXdNnUSCcNA4Wr7A8BrCae8ZgNlRYTk8TOjxN6K9uQVfPXtTIz8OcBKzqhgiq5Cm0a48BFSxC6yBEe4TBqoTGyPu4Ob40xcltT3OWsBTAIsD89RBduyHkQwa0NoJF95Yyy2k0yBlMyysYly8jcuCr+O0Tb6H3C1U4+5TAwZiA2LsJWJRYlioIJ51tjHcHqUtIFVZ7zxgaDWCZPU2oU5rQ62lCQ3cQTrkHVvm5+Ex3A7x0ltAtT6FNq7I618A6DNEeZbC4MW/emCslRtQt1NG6b1pDqYBFjb+mFaJ9zoDW/WARWnY5gy55BWPyZQwefBlfPvY6IuemcfYJBadiAqOZgKWi5YZw0vWJ4zBpYLX1jKHFAJbwNEFRmlCngtUBkwzBJWdhCR3ZcJbQp4HVKk+pZwtDG8CaYLAqpTHyfmYGs4qWDaKkwaJxHrojQ2C/hlZysGgw2yWvoE++jL6DL+Py0tcwf/D7OPPIXjx0VsH+vTWo1c8QGgfd1du70LVLhrM2ZheEsyN+eY5nHL6eMTQlgOVWmlDlaUJLdwdsMohqGYI7tAsWQ4VV1RCBS55CC50llKcwGKDuoPZoZ7A2xNwYf/55Yz5WUjwILYs14y/znZuHZWjoxrlM8YFpmgXbDhHYp850pzOE8UdP/HbD6n3S6ezbFbTLlxE8+DIeX/oaDjzwX+PzB7+P06fmMTfbiMZMwaIEMTshnHT7ml2w9IyhOgEsl9IEl6cJbd0daJRBeGQQ3lAAbmFZQ8vcEIFdA8sqT2HSfxiCVgAitBisym2UlQTQVvaV7kAqjGiVUpdQPZNG94tyQFQFINq61qY10KC7en90Ais8AxG+ghb5MhoPvozxpa9hdv42Pv/AD/G5A+/jQHQC9VVyfWqDPq0hWYWlB9nsgHAGILpHNgy6U5fQpDTBoYHVIYNwyCBqQm3wCgucOr4NEZgMYO2tPgzhOwzRehgiwBUWV1iGql7POX7WvsiMaJUqWCpaPog2uu0LVVkJYO2+gubwy6g7+DI8S19DaP42TmhoLQx8ER5HK4SOViZgUfKY7RD1bRA9dB1gfB4WgSWU+KO+vQMhGVS7hdZQG2qEBVUaWLbafggDWNMEFi0IS2jVMVgMFoOVPgcIqvR3bCjeLqFaCWmVFi03r96rKgGsPVfgmnoZ/oMvQyx9De7525iav40H529joe85mEwuCEdLHK1MwSK0rDaIhlaInog6cdQIltnTgaZgHCxTqA1WYYFLA0tRuuAKHlXHsKhLOFJ9GNa1VazzBFaPYTEN/rbmbmfJ50Dq6oqwKw2wCC9XNURr68Yu4b4rMM+9DPvROFjm+dvonb+Nnvnb2Nv3XLxbqaLVHF9yfg3BhEH3ZAdZR6ujH0awhKcDZk8Qlo4gRKgNJsMYVq0jgMb6WXQEj4LAClYfRrUOlitPYM2FIGba1dv3mISANdm+8O8YsjLJgR0Ci0pj84YpAesD7zQLXKusEp+dHoiW3jhaNIa17wrE/MswLa6DFZy/Ddf8bQR0sOg9CC0zLfygv28GYNEBprMXtU0QVfVrXUKh0NlEWmYsCNHSpu4DoUXbX+MIoMMzhnD9LFwdR9BRfRiBfIP1oIR4ahxiTwfMFjOUMknM9F0H7lpVanx2EKxUaKUBi8BxVkG0aF1DDSzxYBws0/xttO2/DTF/Gw4jWCpUcVTiaGUIFjV+ut+0QzGgpYFFaFXFwdKxtTgCaFF2YdAzZzPBgQAAIABJREFUBm/dDBrcY/kHa0lCvDgL8YVxmPf3wGvLYt8YN668SiwHdhisZGhtAhYF2OGGaO6BmH0WYv4l6GARVK6J2xAztyHuA4sqOvo8gos+I4tvaTrt6qjS0DKA5d4IlskRgF3ZhS5lF+o8Y3BZm1HnHI0PvOerS0hgrcyqD/MX98I7vwyLw5Xd/mUTC34tx3YHc6AIwEpEKwOwKGB2F4Q8BLHvyxCLL6mD7gSWaew2RMttiG5tDGutG6iDpX9eFmCpB8gEYSe0WtYXc00ASzgCMCm7VLS8yi6YTS44LA0QzhGIQoC1chDeL72OtgOnYHIr3LB2sGFl9YXI25lxrhYJWDoievWjjzUlezZA46yB6DsKcfh5iKXX1K6g2HUbovo2hDcdWIb3yDZZ7NUQVa1xtJKAJZRdKlpmejbRSs90oXUdhJ1WfiaM9Uf6syEbEt6UpiI0VFjWlUPwrnwDA89eR9WhhyGc7owTYcPnZRsTfj3HuUA5UERg6WhlWGHpAXJWQ9Diq4evQcz/ECpYym0IZ57Aos+1e+KLr6YAi9BSHypYtD92CHNNxrN5N+JBt+KYgjClGJsygOVcOYTgytuIrLwD36W3ICKzaW83u/FztoG4fiz4meHKcw4UGVjUaKjKSlZZ6b9L0rBoUHzoKMSe/wJi1w8h8g2WjpazQdtebUDfEYhDdR9YxqpKryIzrbBMEG2rMNUswJQMLQNYnpVDOLTyNvpX3oF/5R2Iw2e1WBq7w0nil+ckYxg55rnKgSIEiw4uXVekA5X4nOLg290QPRcghn4PQvlhfissvYFbaaqEhhU9pwWL9om2ffPZvBsPrgmi8z2YO9+D3/vg/WglgPXllbfRvvIOagispQsQgraRuqaM1sa4psgj/djyc1FWi0UKVjq00iQaAdJ6HqLqu4UBawNAmYKlo5VFhdX5HizyI/R1fh9O34Mw0WrTeoPSwDKtzML34iEQWLUr78C5ASwdrUw/M02M9c/l5/VjwLEoWCyKGKxUaG3SmOgCZnsMwvF4QpWWzwpDq5oyqrA22f77kj9eYRFYI/Ij1HR/F/amMQiThpYGlnVlFk0vHMLZZ9+OdwfvA4vQymcMst0vfv3al859x5xjkyo2RQ4WHbjEMa1MDqYVwjoZH+xe61rmu7GaIGy0Io824E7Pa4PuNIZlqIqySlATTJ3vwa6B5ev7EFXDT0J4JyDo7KEGlrIyi/YrhxA+/jb6v/QORFKwKJaZxI9fw3EqzhwoAbAocEa0Mg2kPlZEZ9doHCzfYNGseDeEu2cdrRyB1Tz0Huzhj/C4/Aj+vg+hRK9CdFyEsE9CLA2ok0YbV2bRfeUQ/AfexoVj78By2TiGRdUVPRgshijT9lOcrysRsIxoZRtIaqSEVgHAourF6tVW5MldhTU39x7suz/C5fBHeKDvQ9QQWN0vQFRdhDh0GqaV/WhZmcXglUNoOvA2Lj3wDpyfo7OE+qA7g8VQZdtuivP1JQSWjtZWAkloFQgsFa0aCFdXzrqE55ffg33pI5zY9xGW+z/EePQqzASW8gLE/AocX3wKzdf2Y/jKIQQPvI1jD7wD1/I7EJMMFkO1lfaS4m9otZsdHlIoMbC2E7ACnyGzVhtmtWc5hrVhvpUJKliPfoTQYx9hau5DzE5cRaMO1v7XoZx/HdUnv4Chy0fQ+cDb6NPBGmOwdrqBldXnW8wQVguEekvj7bTFrf9tBYG19SBtPemoqqPqLkuwrM0QZo/2bWbCHFVYj34EsfIRmi58iOjiVbQZwPLEVuGYfgM9h55F5wNfR5DB2vFKYOs5sxN5muFnWiwQblo9fefQYrDyXuLqg/9ZnCW0RyAcu2C2UZVmgn/5PVRrYFlWPkTfU1fRFdW6hPtfR1VsFbaxVXQMv47Qrq8iNP92vEvIFRbDlcv8JrAU1zpa6iToDLHL0XYwWDkKZPpvVB2tDA+ug25JE4PdNwbh8MK0/B5aDGCFVq5i4MgLEA0vQOx/HebYKlxjq2iXbyHU/2WEd30VrqVvQDBYDFYu81sHS0dL7T0UdqiFwcrlAU37XlkcWBWsR1EVPAdz4wRMC99BuwaWY+VDEFiR0y9AhF6AcuB1mGKraBxbRRuBJZ/HYP+XYYl+BWIXTZ7VzxDytIb0XyoZfpmkPcZl/h5GsAgtE00XoiGPLHJ7m/FjsLYZwLw0AhWs8/AEH4Wl9xzE5G+g6dS/gmnlI1SvfIjAylUME1jyBTQvvA5XbBXN46tolG+hRz6PIfkcTP1fhug8xWAV4/Et1W1KBIsWIFbnONJwR2HQYrCKMXk0sOqC52GXj8IUvgpl7+9APP2v4F35EA0rV9GjgRU8+jr8sVUEJ1fRIN9CRD6PPvkcBD1alxisYjy+pbpNScHS0aJKK/8VZiJY3/ve9/DjH/8Yn332GfT/hP7Dvn17CrJRhdjxov4MDazG4Hk0yvNwhK/CFH4J4vBvw/PUH6B+5SoaNLA6jr6Optgq5OwqWobewoh8HkEdrOYHGawCNKKizqVc7n9KsHS0Cg/W7/3e76UGq68vzGDlMgFSvZdjFGblPJqC5xGU59Evr8JMYPW9BPvBr8N38Sr8GlhtR19HILaK/r2r6Bh9C13h59HBYHGepsqt7fw+LViFWUcgscL67ne/i5/85CfJK6yDBx/gRNjOAc/0bx2jcCnnQV3CkDyPKXkV1XJFRcvU9xLcB67Bd/SqOobVcPR1DGlghcbeQkP4eTTTGBahxRUW52umOZfJ63YYLKvVmnQh1T/5kz9JDtb09BQnQCYHdruv0cCyaRXWrLyKWrkCj1yBQ67A1ncNnt3XIORVEFiHYqsY2LuKzrG34As/jzr5HDwMFufqdvMw8e93GCzqeiersGgM69e//rU+cgUew0o8cPn+fwNYbfI8BuVV+OWKila3itY1uMIE1jV4j97EQmwVg3tX0TX2FhrDz6NWPodG+RxsXGExWrnM1SIA671/+S6+/e1vrz2oS/izn/0seYXFg+75H1RUB3A1sJzB8yCwHFqXkNAakiuok9fglHGw7Ec/xETsj1SwesbeQp9WYbXI5+BmsBisMgOLK6xcHtBcvZdjlzqGFQyeR4s8D5u8CqtcQUCuICJX0CSvwayBZTr6J2iP/SUiB/4rEFjz2hhWg3wOVQwWg5WrnKT3MZshqlzxy3No4qg6D4sG2/VH/r/QU4HF0xpyeaCzfS9HFE7lcYwGz8Mnz8Mqr8KiYTUgV9CsYUVdQtvRn8Mb+zXGl/4X9M/8kQoWnSVU5HNwMVgMVra5t9nrnfZ1tIoArLTTGrhLmP9vkHiXcApW5WnMdD0ORZ6HWQNrVK6gR66g3QBW7dGfoy32GSZP/hqRg3+JPeF31qY18BhWgY7XZo283P5dR6sIwOKJo8WQXI4pCOUSlgaeRsPg4+rZQLNWYdGge4+8BouGVv3Rn2N/7DPsO/kZxo/+f5gI/wht8pvxme5cYXGFla98dtDiwHpXUH/O/xcEdwnzdUDve1+61irD6600sB4fv4TR3U/DFX4BBFavXEGnBpZDXoNVXkPD0Z/jcOwzLJ/8DLuP/gqj4Y/RLP8tGuXv8Dys+45B/htUxcx6p9jSIijqmpcMVhl+MxJWGV4kagBraf4SOvqvwBl+UcWqxQAWnSnsPfZzLMQ+w8mTn2Hf0V9hKPwLNMmPMSo/grP5Sb40h9HKc1syopX/LwSusAqW0ASWfufRTSotDaxD45dAYI0PXkZd+MsI9L+IBg0swsolr2H81M9x+InPcOrkZ9h/9FfoDv8CbfIT7JEfo7b5NQarYMc3/421eKs3Ha38x4DBKlhC62DpaKU5uBpY4fFLmNXACoUvo3Hky2jtf1Edw1LkNdTIa5g49XMc+uJneOChOFid4V+gUwXrEzQ0/xaDVbDjm+Z4VsQ2ZHFH3W3Eg8HaRvCy+8YzgkVopamyNLCaxi+hf/4Segcvg8DyRy+jJ3IV3fJlVMtrCMtrmCawnvkMu09/hukHfwUCq1t+ghn5CVqa/wWDVbDjW+lgFWb/GayCJfQWwJq4hND8JTSrXcI4WJGxK+iUX0PNyMuIyGtY0MCaOP0ZJpZ+hf1T62B13AcWQVmYxOLP4TjnIwcYrII14C2AtfcS2g9dgn/wMhzhy/BFL2N47ApC8gZ8e7+G7j2v4EENrMnTnyF67Fc4Mf8LDE/GK6zgfWA5C35L23wkLb9n5WLIYBUzWAcvofbEJXiHL8OsgRXSwPIfvYGaR7+G6Yf/RO0S7jv9GSLHfoXjD/wC4/s/waD8BPeDRaefC38fbgamcoHJ9bFnsIoZrMOX4Dh7Cc7xy7APxCus+rEraJI3UHv0BsTKDbSf+Rl2X/gV5k5/htZjv8KhB36B6P5P0Cs/gfu+CksHS0eLG1KuGxS/X35zisEqSrAm1ZnuTYcvwR67BPPMZfhHL8M3fRm+sSuokTfg1sCqOvdTBD/3/+LQuV+h6divEH7gF5je/wnC8hOY0oJl5/Gsgh37/DbiSkKSwcpn0pppIVQ9WbMZw5qAUJ4FgWWLXYJp5jLaJy7Dd/AyfJNXoMgbMGtguc/9FL7lu1j8wi/RfOZv0fnAL3Bw/ycY2xQsqrL0beNnjkVp5ACDlc9G6+iHsHg1GLIBawRC+QKaDj6rgiVmLqODwDp2GbVzV+CXNyA0sOznfgrv8l0sX76L1i/dg3zwr3F4/ydYkp/A0vp2wrQGY5eQwWKkSgMp43FisPIJlnIIwj0M4SS0zNpMd5pasNk8rIi68nP97BdgO/MsCCw3gbV8Gf4j8bOEnoX4GJbp3E9Rs3wXD16+i7arv8Tw5/4B+xb/BrObjmExWMaGwD+XBl4MVr7B8i5CNI/A5G6GEDRulClYZ+HpisG29AWImedgnriMoAbWoLyB7kM3YL96A+LcT+FZvov5y3cRvPpLjJ4Dxj//jziw9/9AVdoxLAaLkSoNpIzHicEqBFhyEZa2eZg9owa0qIuYImEcVGGdgRI8C8tgDGL2Gsy7n0fP8mU8euQKhuUNRA/cgO/yDdjPx8GaunwXI1d/icg5IHIe6PvCP8E/9J9zlzBVjPn3qfOviGPDYOXz4FCXkCosuQjrwEU4ur8KizKmobU5WNXBM7CEz0LsfR3mmRX0HH8eV49cQUzewMSBG2h65gZqHvspfKfuYvflu9hz9ZfojwFD54GOFaDtwB8yWPk8vvzeBUePwcpn0imHYPYuwiYXYRu4CHf0Dtyh16C4oxAmGtNKX2E1EVjyDMTeN2B+4DfQ/dBLeH7xKr4gbyBw4Aaan7mBhsd/iqZH7mLfF+9i39VfovscIM8DgRUguPRDCOE2oMWD7iljnupY8O9T5+kOxIbB2k7QzSYIU5pKicDyLcIrF6EMXIQSvYOayB10tL0BX2Nn6r/VuoSh4BnYdLAOrCIU+w2cPfE1PDv4n6HpwA34NbACsbtYvHAXk5d/ic5zQOg80LQCtKhgEVKEFj3o0hwau9IfKcDcTkz4b4uqgZcb0AzWdhoYgVXlhLCkQIvA8i/CH1lEYOAi/NE78EXuYFDewdD0w3C2BZKjpYHVHTwDhwaWVQVrFbtjv4uv7P0AbYe+jloNrFDsLh4+dxeRp34JeTEOln8FUNbA0tGiQX8dKx50L7fGXAn7w2BtFyxa7qjBCeFMghaBVb+IugcW0Tt6Ed3RO2iL3EFE3sHe49dQf/AIXIH2+9HSwQqdgVOegWnvG3BrYI3HvoVvPvJ/YWT5Q9R98etql/BA7C5OnbuL/sd+iaHngaGnAQJLbACL0LJodz3V0eIKqxIaeTntI4OVC7CaXRAjhJZnY3eAwGpYRP3nFjE6dxHD0TuIRu5gWgOrNXYBTYcXYW/v2IiWBlbb9BkoA3GwajSwdsW+hd+N3cPi2U8RfPJfo/GxH+FY7C5OxO4i/NgvsetFYPYK0JUULBo3I1jpZmt8aU45NeRK2RcGK1dgjbsg+g7C7GxZR0sHK7aImeMXsT96B1OROzgt72D6+DW0xC6gI3YB1QuLcLe2rqOlgdV84AyGHjwD07434NPAGo59C+/E7mE5dg8j5z5F+5nv4OjZT1SwAo/9EuMrwIEVILoCWO+rsPSBfh0trrAqpaGXy34yWLkCK+qCGHoQ7p4VmGrb42gph2BqWERdbBF7Tl3EMQ2s4/IORo9fQ13sAtpiF1B79jE07dsPW1tbfHVdDaymw2cw/cgZOA+8Ab8G1kDsW3g9dg+nYvewK3YPvQ+dw+mHv4zPnf0YBNb8CrC4AuxbAZwpwSKoknRhtxML/tv1LyqORd5iwWBtJ7lo0J3GsKhLqIFVJd+A9chLqGoMQdA8rIZF2GOLmDp1ESc0sPbIOxg5fg3O2AX4YxfgPfsY2pePo3puHvZAAMI1AuE5AwJrMHYG7kNvIDC/ip7Tq+iPfQsrsXu4ELuHaOwewqcewmPHFTx/+ll0PPrnKlhPaFVWVVqwuLoql6qjkvaDwcoxWHb5Jqwn3kD4oZfg6j+sgmWKLaLu1EUcjd7BZOQORuQdRI5fgyd2ASJ2Ae6zj6F1+Th8hNb8A7B374PJd1YFqy12Bs5DbyA0t4rJCULrW7gau4czsXuYjd1D5NRDuLAs8JvHq9D38It44AWAwDq9AvgZrLx901cSEsW0rwxWjsEyyzfhOvEmBmJvouPSAmzjRyBii3CcuojO6B2MadMaho9fAw26Wwmts4+pWNXoaC2ehn3gPBoPnUVd7Axsh95Ay9wq9vatombqW7h45h4uxe5hX+wejpx6CE8sC6wuC4we78TiY3dx4YU4WAMMFoO1nfwuwr9lsLZzUBK6hObRByHkm1BOvImO2JvofHEBNc8fhP3iAqynLqIuegf1kTsI0zys49fQFbsARQNLLB+HiyosQuvhs6g+dRHe/edR+8hZWA69Af/cKkblKhzD38LcqXs4f+Ye5mL38PCph/DFZYGvLQvsWm7GyRN/gcfP/z84dgVgsLjbW0zVUS62hcHKIVjOvQ/CEnkTnhNvoj72JvpeXIB35SB81w7CE3sEvugdVEXuoFbeQe/xa+im8SsdrAePg9ByEloPn4Uv9hQckxehHHoMlgNvwje3il65itqhb6Fr+R4mT97Dnkfu4ZFTD+HZZYFHlwUiy804vfxnOH/8P2L04f8bPUf+CELQ/Cv9oZ8l5Iaci8bD71H4PGKwcghW7YkHUbXwJpRTb8IXexPDLy7AvXIQ/pWDaPviAqqn/zlckTtQ5B1UHb+GYOwCfDpYh47DpKNFFVbsKdgmnoJ58CIsU9dRv28VIbmKlqFvoXn5HvqW7yF68h6WTz6ES8sCx5cFwsvNeGz5z3Du2F+h/eB/RM3EdwxYEVoMFiNTeGRyGXMGK5dgnXwQ9V98E85H3kR17E1EXlyAbeXg/8/efcDHdVX5Az/TNJrRjHovVrM0qpbbyHK3R5YlVzmOU20nIUU4SoBgnDgYDIEQJ5gQY0qw48ShE5IQQkwgATZAaEtfwCyEXhdYWGLKLll29//7f86bd6Wn5+lFmnLy+bzPyJGmvXfu95173333oI7BmtyIosAOFKy9E0W+J+HYcbOGVbECa3gHrCM7YGO0LtqNQh0s8k3A2nMH5vuDYDX3vxMV48/DN/48Fo8/j5U7dmHnOGHrOKFjvA63j38Pl25/Dg2B52DtO67f+CwZViobjbzW3KEnYCUDloVA7kJQbXBaQ/nOraievB32K29H4Z7b0XVgDPaDI5h3cATVkxvhDozBcsEOFG18A+w7bgZj5eCB991XgQI7YBveAdfIDlh37oZl9wQKByeggeW7Ayu6j6K1643oWvBOlBnAWjS+Cy3jhE06WG8Z/x7Gtj+HmsBzoF7jEsmSYQk0cwdNqva9gJUMWPxcqxVU6QQtdoHBatLBoj23o/plY7DdPILmgyMoV2DtGkPRxDjse6/SpjXY9lwNrwIrsANFwzvgHN0N58UT8C6bgNU3AbvvDqz0HUW17ygCC06g4oLn0Tn+PJaMP4+m8V0oGicMjxMGt9fhbePfQ2D7c/CeB1aRdAmTPdby/Dm/6ipgpSII7RaQz4my7ZvQOXk7iq+8HQwWXT8G600jqL95BGU6WHYGa3IM9uu3wnnNRbDuuRolOljWwA54AjtQOLwblWMTKFk+AVv3BFy+O7FIB+u6gRNouOh5+C4IglU6vguOccJ6HsfaXocbt3wP67Y/B3dIsPjm5+w/y8p3yN9jKGClogFz19BpgXfVMvRc+2o0Xnk7inSwaHIE3ptGUDwR7BI6d42hmMGa3ATL9VtgufaiKbAsgR1wB3bAFdiNuuEJVKybgG1gAsVdb0CtDtbEwAl07jmH7oufx+ILnodn/CJYdLAu316HZSPfw9LNz8ElYAnOqYjtDHsNAStVB8RCsLpdaN68B22Xvwp1e26H5foxMFi8OfduROGyMTBYpTpYNLkZdP0WuK65SBvD4nGsggDPdt+N+sAEqgITsK2eQHn3HbD7jqLKdxQv0sHq3XMOiy5+HjXbJ2AZt2gZFoPVPvw9dIwIWJKF5WYWJmClCix+HYsFDk8p6tZfhnmXvApWA1h04UbYW8dQMDqGMiNYk5thv347Ki+f0NByBHagJrAb1YEJVDJYgQnU994Bjw7WroETmL/nHDSw9pzDwm13o3xbI9aPW6DA8gUELAFLwMLataslzY4CnMVihd1dgurVF8N69fBUhsVgkXcMtgVj8O4Odgk5w7JMbkbh5Da07HsFKva8GAxWXWA3SgMTaAhMwB6YQGPfHWjyHUWd7yjGFpxAy55z6OcMa885bNv6FIbGLsXmrfOmwNogYEmcRonTbAVdMqx0HFiLRUPLElgAunqdhpb9wo2weMdAtWMoWDOGgss3QYFVxWBNHkDj9a+Ae+8+DaziwAT6AxMo08Fq9R1Fi+8o1vWdQPMlQaxW6WBdFTiJPaO7cenmRWgfPouLA8+hkOdhzZjWwFcJZdA9WxuqfO5gxihgpQMs7TX19d7X94CuXgvnhRvh8Y7BUjsG8o3BvXoTLJcFM6zWyW2YN3kAdZMH4Ln+FShZexMYrIWBCbQFJlDXdwcYrDbfUSzpOoH5Y+cweOk5XLznHDZtfQoM1k2Bk7hw+Co0L/sILgv8QAPLKWBJppW2+J6bLqeAle4D6naC1nShcPs61HjHUFQ7BptvDF7fJlhXbYbl0s1gsBonD6B48gBKJw/AOvYqlC88rIHl48H3vju07IrRGug6gb4F57Byyznsvfwc1mx9ClsCJ/GywEmMr7obta2TGBt8HIWBH8AtYAlY6Y7vWX59AWs2drjbCcfyLtRWDKOydgzzfGMo9W2C3bcZtHIz6i4LguWcPIAaBmv0MCq678CygcNgsCp1sOp9R7HAdwILus5heOgctlxwDku2PIXGwEnsCpzE9lV3o9zbh+7mCTj8j8Hde8xQk1C6hNKtmpusKJX7XcCaDbCIYGl0oXjRAlQ3D2O5bwxtvk1wMFi+zfCu2YaOyQNw8TjW5AEUjB5Gte8IlnffAd+C10yBVeE7ig7fCSz0ncPIknNYOHIO88eeQmHgJGoDJ7F61d0o8/ahxNMD67xrUNi2X8CapeObykYprxUeVgFrtgK6xgbrRZXwLu/Div4A/L5N8Po2w+rbDEf/NiydPACvDlbh6GHU+45gqe8IOrvuwLzFN2Ne1xtR5juKeb4TGNPB6hk+h9INT8EdOAlL4CTqVt0Nrw4WeXpgq1hvqvwsg+6CQXgMsmHfCFizCBbtKYH14kq0DPdiRf9GVPs2w+XbDGf/NgxOHkCDAaxG3xH0+Y6gw3cELUtugnPJfpR034VG3wlcrsAKnENR4Cl4AidhDZxE0aq7YfP2ocjTAwaLCpv0wqmqXL2AlQ2NUj5jeFTjBGuNDGImClyNDQwWb45LK7B6wzLU9o+i1LcZRQPbsWzyANp0sIpGD4PB6vQdQbsOltX/EtiWvBz13e/AlSawvIGTsAVOomDV3SBvH6wzwHIY0BKwBIPwGGTDvokPrA3rQHzfXKKNNp+fZwCL0Vp7WQ8aR1aipGMUJf3BMaxmHayS0cNo07qDR9A6BdaNIP9L4Fp6CJd1/1Ybw+oxZFh27hbqYGnZ1VSGxWAptAQsid3sbr/xgTUaADnt0wU/8xmgeL+7Gaw9PjRftgjupjUo6d6EiskDqNW7hWWjh9HjO4K23iNo7Qp2Ca1+ButGFPoPYnDp01i/7N+gwHIEToLBoohgMVqy4qiAlU9gjQ2DipyCVrxY8d+bwFq1x4eWPQOwVS2Cs245Sq7YhzIdLQar33cEzQuPoLFvJlhF/luw2H8GCzY9jf7Nv9bGsHjAnbfoYEnxVAEr38DyOEG8caYl1YNj7x6bwCrkDGvPAKyVA7AUL4CzawlK9r4YVTx5dPSwNn41b/ERVCw5goahm2AfvBEW/40o9t+CDv8T6N1yBkMvfholG94PYqwErNiPRSInHHlORuzf+LqEnGEpsHgGNwlaMZ+xTWBZ9nTDtmcAlsoBUFEfLAWlKOhciIq9L0bp6KtR6zuChsVHUOY/gsq1N6FyxY2w+W9Eqf8W1PifQPvWMxiaPIOG0etBa28TsASUjAAl5vaQ4PFKHCyGiwStmA+QCSy6vBO0ZwCkg8WluBitwvkLULzmpXD77kC1Dlb5upvQu46zqyBYZf4n0LD1DPyTZ9A0+iLQ4GrQqsPSJUywEcR8DOX15xzFFIDFaPGAbnb3jdP++c1grfeBLp4JVhCtEjhqFqCw7WaULnqDlmGVrbsJCwM3Yp7/RpT5bwGDVbv1DBZPnkE9g+X3g/pXg/w3adMaQl8l5GMkY1hpP87SDtJqQYrAYrSkMURsDGawOnygwQFQRbBLOF3s1AWLvQQ2zwKU9B5A6dLbwWDND9yIVv+NqPDfgkr/E6jZegaLJs+gVoHV6wd1LAO5WoKTRs+b1iBgRTw+Ak1aoUnVvk90nRgdAAAgAElEQVQhWHLJPOJBKZ+eOKpNIG3xBbEqPR8sDS9rCRzFvSjpP4DStS9BuQ5Wpf8W1PqfQOX2M1h8wxnUGMFqXwiyFgVnuAtYWdEAI8aMIHreMRSwZisoCq2gHd6p2e7EYHkGQN4wYPGYlrUEdm8XigevgG3d9WjRrxLW+Z9A8c4zWHrTGdRu0ruEnGExWJZCkMUNKmzUb83hzEptkgULENk9dCNgzRZYNgLNc4A2FgXRUmAxWkV9ppLyqlIzo1UMe0k9rIOXYd6SfXD6b0GVDtbyg2dQv/1FoGV+kBEsvhjCaDkqDFhJl1Cwym6s+PgJWLMFlnqfJgdoQxGmMqwoYGkD8VYHLMXVqOu5GJYlL0cpXyXceQYMVtNFLwKtCgGWhlaBviyyZFiCVfZjJWApRGb7sdEBqm8KdgljAEu7oGG1o8BVCUvXbniWPIx+7hIqsAJ+UJ+hS6hNNzFeveXxRcmwBK3sRyu+DGvUMHF0ah4WNwzeZNA9rgZRWgLytAfRitAlDF49DI49WSw2UGE5XL4jGNz+MAYOnkE1Z1gM1oJIYHGg8vGRMay4jtFsn8jk/c4bZDcfr/jACqydnukuYEXdueadPePfbjvIUwbytEUcwzKCpT3fYoPVWYuela9H98s/BE/MYDFaAtaMYyBAJBfDc7D/4gNr7RqQ3TqN1lTXQzKsuBuCBpYD5CkFeZrDDrqfBxYHicUOp7sG83a9BgU7dseYYWV/dyDufTwHDUo+Y3rjLE6wVgfXw2K0eNUGASvxM9QUWIxWCcg+fWUwiJTx3+dnRtw9LCiuhn1FALR2cQxdwvQGkjRU2b+zEQPxg6Wd4Qlk4zERI1oyhhXXAZsBVgHIVRgBrfPB4veyWG2wuItAfe2g3kXT87CmjgsPtEtDkn2QOzGQGFgKLW0gV6ElYMXVMMxgeQojoBUaLO39LBaQswDU1Apq6QtOHBWwBOocPVElDtbUDlGZloCVNFiMlrsQZCs0jWlFAEsdB4cDVNUkYKn9IY85iXYKwOJ0kxtUDI1Kgmg6iEJlWAwWbw6e8MmbGseKcd/a1QRRlfVKlzCuk4jE53R8Zui+SBFYudNHnrUAjwRWAUPDiyMqtGIESwsy/lt+LqMlYM3a8czQBp5r31/AmqtAiwoWV7hRaMUDlsp4+bm8yclE9kHuxICANVcNOiawFFrxgqXQkrJeglXuYMXHUsDKeLAYnUTAUmjlVsAKQPl9PAWsuQLLxbfm8KRR3gqCg+1q0F0bw2Ko1JYoWPkd3IJb7h1/AWuuwHLw3QIClqCSe6ik85gKWHMFljbh06ajJRlWOoNcXjt3UBSw5gosfl8rz1JXaOlzsLhbKF1Cubo5l3GZwe8tYM31wZlCiytq62gJWALWXMdlhr6/gJUJB0ZDyx5cAUMyLMEqE2IyQz+DgJUpB4bHtAp0tCTDErQyJS4z7HMIWJl0QBRafCPz1JSGZOZh5c5gqwycy7HkGBCwMgks/iyMlk3Nv1KPMg9LwBKwBKxMw0p9HkZLW2ssC8DSPqs0JgF1dmJAMiyFRMY9GtHK4AyLLxg4GNbZCVh5n/zezwJWRjc0hVYGg2WzBIuSCFqC9iy0JQFrFnZycllBBmPF+06BxWXf+Cpnxu/P/M5Qsv34CFjSwJJDxggWo6VdMBAUsh2GTP38ApaAlVqwtOWdZUwrUxt8tn8uAUvASi1YBbysM88jk6Ik2Y5DJn5+AUvASi1YdgWWmvwq3cNMbPjZ+pkELAErtWBNZVgMFm8ZftFAjn9yx3+W95+ANcs7PFvPbGE/t3nQXcDKKgDCHtcMbRcCVoYemKwJJLs1OA+LrxBqUxuMXULJsLLmOGZJOxCwsuRAZWzgS4YlGdUstiEBaxZ3dsaik8w+4FtzVHYlGZbglUwsxfBcASuGnZST0KTqezNYRXp3UMASsFIVV2FeR8AKs2MEqTimIzjVaql8e46MYUnsxBE7cbY/ASvOHSbBGCIY1cKDnGkJWJJlpbFNCVhp3Ll5hZtCS7s1R83BkquEeRUDs9CWBKxZ2Ml5E7SMlnbzM6/aoNCSiaN5c/xnoS0JWLOwk/MvYPk+QoWWgJV/xz/EsEGK2pmAlaIdKUFpDlKFloAlsWGOjcT/LWAJWGkcJGa0BCwBK3GgzPtOwBKw0ghW6gLVHLjy7/zctwKWgCVgSQxkTQwIWBKsWROsklXlZ1ZlPO4CloAlYEkMZE0MCFgSrFkTrMYzrfycn9mWgCVgCVgSA1kTAwKWBGvWBKtkVfmZVRmPu4AlYAlYEgNZEwMClgRr1gSr8UwrP+dntiVgCVgClsRA1sSAgCXBmjXBKllVfmZVxuMuYAlYApbEQNbEgIAlwZo1wWo808rP+ZltCVgCloAlMZA1MSBgSbBmTbBKVpWfWZXxuAtYApaAJTGQNTGQJFi8QJuoL/tgFmLAMgvvIbGc8e05CbB4JUkuNCBoCVizgInDBrLOwvsIWhmNVpJgOQUtCfD0BzhnV+4CkNMG4so8ss/zdh+kACxGi6v9ytlP9kGaYoDB4iKtRQWgAkErn+MsRWAxWnLmy+dASut3V2B5dLQcXEJM4i2t+zydCUgS45EpBEvGsrI2gNIZnKl4bSNYjJZLZfWCVlbGnM0CsifmhYCVigYlr5HeIQEzWO5CEBXpQxGCVtahxWDxiScBtAQswSa92KRi/4YFS6GVprGzVHx2eY3z40uBpaFlO//3EfaZgBVh52TdmStXv0tEsBitxLoXcnznCHojWIyWNXa0BKxcbeS59L3MYLlUl5Cx4i32gBek5ggpYzyawbLzmGRsx1DAMu5I+Tmu9HzWGr8ZrKkxLAUWXzXMgIYonyG24xASrNjQErAkyGILsrncTwJW5h+jOOLDarPAwl1BtWkZFoPFW+STTxJg8RlNvQk/yjiCnOXTlOUIWDkFVoHNAqfCih9ngMWWhL/ymyRYrKFCS8ASsNIEFp+9eaa7CnLpEmY1YE6bBZXqWM4uWCyhQkvAErDSCJarQMCKo9uVybHIYNXODVgcoAotASuTgyTrPxvfjuPWsyzJsLI6w7LPLVgKrfD9zqxvLDlyZsvu42ADORzBVRsErKwGy2KzoHjuMqw0dgMEiqwOzNQCyfN0dLScPG6qpjTwY+QrS6n9HBLvSe9PqwV2AUsCKelAyugThA4Wo2VjoFwGtASsrDr2vKYZr2+m0Jq9q4SCRFYFSkaDFC2WDGBpU2gYKTXjXcDKujjkFWQVWgJWtOCX32ddgGu3bii01AUe/jejJWBl3/EkkF1HS8ASkLIygCNmgAorflRg8XE2/1uOfVYde0bLzisWq/mcaZ04KsGRVcEREYRMP5bhwOLPLVeoszoOrXwCMqIV/ngmOdM904NcPl9WB/IMYCOBJcc5+48zo8VVuCTDkqkBMxp+tjZuASv7UYoWewotybAEraxHS8DKfbAYNEZLwBKwBCyJgayPAYKMYeXAQcyPM69kWPlxnCN3GwUsAStLMg/uKii0+OfIgS2/z839I2BJ4GdJ4+dxDQEr3yEWsASsLAGLMwaFlmRY+QqXgCVgZRFYCi0BS8A6iZMnT+LUqVN49tln8cILL0D9R+qHtWtXZ1lw52Y/Pl+DVb63xLNkWJJhyUlIYiBrYkDAkmDNmmCVDEsyLAFLwBKwJAayJgYELAnWrAlWybByNcPiiyjhb8cxHncBS8ASsCQG5jgGeAFG3qKjJWBJsM5xsOZq1iDfy5gZRf6ZseKlZaKjJWAJWAKWxMAcx4ACS6EVHnsBS4J1joM1fHBGPiun7nkWiYE5jgEjWIxW+GMrYEXYOZF2nPwufFBl276xEYG3bPvcufN5zWCFH8sSsCRQ876hOojglDiYwzgQsOZw58uZOtvO/HYiuASsOWwzAtYc7nwBK9vA4s9bKGDNYZsRsOZw56cBLIusTpCNCMpnjrUtCFi5BZbDCRK0cuuYSkZnOJ4ClmFnxKp8Bv+duxhU4AJZecXNDP6c8tnk+CQUAwJWbgVOUSnIUyZoJdQYBPjMP8nxiZjnX6lNpjVkN2AaWBXTaGm126QhZn5DlGMU2zFioBRW/Chg5QhYFSB3KYgK9IKT0iBiaxCynzJ/PxmzLAErd8AqKgdRkaAl3cPsjumQx0+hJWBl98Gd6hJWgKbAYrScEdPnzD+rSuYjx8gcA4yWgJWjYDFaMkdLGr250efuv+VewpCpaYYd8LAZFoPFZ6QM+7zyeeSYpCkGBKw07diUIhIRLJ7DImDJPsiPGBCwsqGxC1iCcjbE6Sx8RgFrFnZy0md/AUvAyoY4nYXPKGDNwk4WsPKju5L0cc6GWJzjzyhgzfEBiCnIXcUgD890N09r4EF3GcOKaR9mw3GWzxg1kxawsiFIHIUg1S2cMQ9LwBKs8it7jQuspUuXRBVQAihNAeRwBW/LEbAkBrPhJJumzxgXWKtXrZRgSdOBiAl6RstVot+aw9mVZFgx7be5PGby3ik1Iy6wFizoT+mbS7AlkI3ZC0HkMqAlY1gSRwnEUZZC+uFHPoSTJ09ObadOncKzzz6Lf/zjH1D/kfph7drVAlZGHGhegkOhJWAJWPkDVrgM6+9//7tiCgJWRiBlDkqFloAlYJljI3f/HQ6sF154QcDK/IbAWMm9hCk7TtbwqwSk7D0y8uSXPcCFAuvrX/86BKysCSxpZCnDxGED2a0gS/Y04JR99yyJ91Bg8RiWgJUlBzDfAjat37fADioqELQyOPYFrAw+OGltnPK9z7+AxGB5nIJWBseGGazTp09rVwklw8rggyaQpanLpsDS0HKCHNI9zLRYM4OlpjUIWALW+RlIru8TI1iMFm88rmWRccJMgUvAyvVGKN8vdnhDgSVoxb7/ZiHWBKxZ2MmZcnaSzxGlKxkOLEbLLtNHMiF+BCwBK6POoHPaKLj7p7qC5kcX14KUruGcHh8iCFgCloClYiBShuVmsCKXoJrrxpwP7y9gqWCVxzyEizMmQ1evUJ/WYM6u+N9TYPHfS2m1ucJRwBKo8hAqNZbFYHHmpN+PGVOGxWAZkJP4mdX4EbAk4GY14ObqzBz6fRksrp6to+WINcNisGQ8K/Q+VSeD9DwKWAKWgKXQsglYc4FQPO8pYAlYApYGlhNksYMKbKAifdKocSxrxhhWqAxLMq544En0bwUsAUvAUmDxWBbPauexLDNaUcEKhVh6ukWJNvZceJ6AJWAJWEawOB54XSyek8UrN6gsKypYvKCioJVuFAUsAUvAMoMVCq2YwBK0BCwBJY9BSXeXSl0l5CuFvJmWm+aF/FSmFTNYjBa/joxppQMvybAExDwGMQpYKjYYrUKVPXG3L1TXj3+vNp4mwT8LWqlGS8BSQSmPeQhXjGBxbDBaPO1BwyoWsDhjY7RkVnwq0RKwBKo8hEp1NeMAy2YFFRYY0DJnTyq74kfOsFQ3k/+t3k8ek90XApYEUx43qDjB4iuGU2jFChbDZf5bgStRuAQsASuPwWI4VCbEj6ZBd2NscIalpjgwWuchFC7DErASxSnU8wQsY1DKz3mIF49HKbRiBIvhspjHsQSsUMCk+v8JWIJUHiJl7pLxwHgcGRaDZWXc+HmquydgpRqnUK8nYAlYApYWA4xPHBmWBhZnWQotASsUMKn+fwKWgCVgTcWAypbMGRiBjGNYUxkWg6XQErBSjVOo1xOwpoI1RJDK7wQzFQMRwWK0ODtTaBmnNcigeyh4Ev1/ApYKSHkUnCLFQFSwjGgJWImCFO15AlakIJXfCWIqBmICS0fLKmBFgyfR3wtYKiDlUXCKFAN8a46ah3XeGBZDZdgcBSCHmiohXcJEcQr1PAErUpDK7wQxFQPxgFXgALm5zL1CK8Jgvnp9eYwp1gQsCZSYAiXU2S6v/l/MXUIbiMHiLGwKLQErVbEiYAlYAlasMRBrl1CBpdCy8FwtuQqdin0gYEkgSWOKNQbs1mBB1WhjWEawtL/l8S1BS8CKNdDk7wSlVMUAr/fOq49OzXQ3DLargffzwOI5WoKWgJWqIJTXEdDijQFrCKiigmUDSfcwqViTLmG8gSp/n1TApeIsmzmvwd28EHCFzbAYLB6Uj3DPosRXxPgSsCRAIgZI5uCQqYPWIdCKBBZnZlw+zMk1EDP1O2Xu5xKwBCwBK+kYMKEVDSweiFdoJf3emYtLOk52ApYEjICVkhgwoBULWBpazuAqECl5//yAS8CSYBGwUhYDOlqxgsVo2Xk8i5+XH+Ak+z0FLAkUaSwpjQHr9Ex3Bok34xQIHsNS/58fHbwkjUx5iBUyASulwSpnyVgDL6f/zmZCKSawBK1YYkLAErAkw0pHDPDUBZVJxQwWoyUnvUj7QMCSAJFGkq4YKNAzLQErZTEmYKUrWOV1Uxakkc64Gf87RkvASlksCFgCS8qCKePxmKtjrd2Oo8+IDzvorv9+rj5jlryvgJUlB0owyPaxHV4Ti7Mt04D81FVCASuWGBewBCzJsGYtBiwCVpL7Oi6w3nX6lAR3kjs8lrOI/E22Z1MRPr/FMn31cMY8LMmwYon7uMD65S9+jjvveD3s2uzcCAdFGrXALjEQPgZ4IUA15UG6hOH3U4gYigssAPjRj36Iu4/eCZfLFdcbxaKn/I2cBPImBtQa8QJWXI7EDRaj9de//gXHj92N4mJvXG+WN8EY4swg310wPi8GGC0BKy5DEgIriNZfce/bj6OiojyuNzzvoEnjlv2XzzHAY1ozFgEU2CMZkTBYjNYvf/lLnDp5L2pra6TR5XOjk++eZPwb0RKw0gbWH//4Rzz88MN43W2vQVNTY5IHTQ5UpAMlv8uH+OArhfnwPRP/jkllWAzWI488gvvuuw9H3vB6tLW1yg6XgJMYSDQGuHuodRETb9C5Dl5KwDp58qSG1tG77oTP1ykBm2jAyvPyO3YYK146WdAKGwcpA0uhdc+bj6K3tyfsG+b6GUC+n2QHCccAQ6XmZ3H9QzmBnbcPUgqWQuttx+/BwoUD572ZHABpzBIDEWLACBbDJZnWeYakHCyF1jvf8Tb4/UvPe0MJ2AgBK2fU/I4XM1iFThBJpmU0Iy1gKbTuv++dWLlieX4HoSAkxz/WGAgJFqMlRSoUWmkDS6H14AOnsG7tagnaWINW/i5/Y4XHrYr1whXcJdQyLAZL0JoVsIxojWwI5G8gCkJy7GOJAZsFVO8ElehozQBLuoeMVlozLAbLiNbmTaMSuLEErvxNfsYJgzXfCWpwgkrNGZZkWbMGlkLrgfvvw/j2rfkZjIKQHPdoMcBgdTqDWyOXs1fdQfUoY1mzkmEZMy1Ga9eFF0jwRgte+X3+xYgCy6ejVaGgUo8C1qyCZcy0Lrv04vwLSEFIjnmkGDCCxWjxeJY24K4eBaykwPqP//gPPProo9o4lcqiYnnkew8507pi724J4EgBLL/Lr/gwg8VjWQLWjBhICqw//elPeOyxx7T7CGOByvw3jNY1L7pqxgdSly/lUSaY5l0MCFhRLUgKrHPnzuGJJ57A/fffnxRa+yaujfpB8y54JbvKv5jQwCoC+QpB3CWUDOu8GEgKrL/+9a/41Kc+hfe85z1Jo/WSG64/78MJUpJl5VUMaGAVg3yeIFoC1nkmJAXW3//+d3zta1/Dhz/8Ybz73e9OGq39N730vA+YVwErWVV+H38NrBKQjzcPqKFQxrBMbSIpsP7nf/4HP/nJT/DZz35WQysVmdbBm1+R30FrOkACdh5lmVNglQbRavCAyIiWXCVMCqz/+7//A686+q//+q/43Oc+pw3ApwKtVx+6VdASuPIvBmaAVQpqKAGR24CWgJUUWFyIgruFv//97/H9738fzz77LD7ykY/gve99b1Ldw/vvP4XXvfZw/gWsIJXfxzwkWFxKr0hHS8BKGizOsv7rv/5LQ+sHP/hBStHideJtVjlI0i3Mk25hSLCKQaTQkiIVSYPFWdb//u//amj9+7//O5577jl8/vOfx+OPP473ve99eOCBBxKe8sCZ1pveeCcKnTyBLk+CVr5n/h7rsGAptOx5v6BfSsAyovWHP/xBQ+sLX/gCPvrRjyaN1qlT9+Et97wJXg8PQApasg9yOAYigsVoOfTF/PJ3FdKUgcVocfeQx7QYrR/+8If44he/mBK0+Faed7ztLSgvKxO0BO3cjYGoYBXoVaJ5mCQ/0UopWEa0+Orhj370I3zpS1/SZsO///3vT6p7yGjdd+IdqKmuzt2AFYzy+9jGDJYNZLGCbPk3vptysMxo/fjHP9bQOnPmDFKB1m23HUZjQ0N+B7bAlpvHPy6wbCCXI+/QSgtYRrR4RQeeXPrlL38ZH/vYx/CBD3wg6Uzrjje8Dq0tLbkZtIJR/h7XeMHidd/zDK20gaXQeuGFF8CrOvz0pz/FP//zP0+hdfr06YSvHnL38I13HUFnR0f+BrfAlnvHnqvmdPBtOTzTXU0c5cF2takxLO4S2qaLrjJa3EXMg5hIK1ih0PrKV76CJ598Eh/84AeRLFr33H0UvT3deXGg8iEY5TsSqKQgfrA407IpzHL4KmqyRSgYpFj+46uHnGk9//zz+NnPfoavfvWr+PjHP54StN76lnuwcGCBoJUHZ9e8AI27hYxWZxwZFoNld+k3Suf25NK0Z1gKNCNaP//5zzW0PvGJT6QErXu5yvTSJYKWoJUbMcBoFReA6lVXUD2qLMrUJZwCK/fRmjWwGC5G67//+7/BC//94he/0JamYbQeeuihpLuHp07eixXLh3IjYAUeOY6MFo9NabflxAOWQis352nNKlih0Pr617+Op556KiVonX7gPqxdI1Wm86LrlA+ocyVo4ttx+F5CRiuWDIvB4k3AUr27pB9VpvXnP/8Zv/zlL/GNb3wDTz/9ND70oQ8lnWk9+MApbBiWKtOCVq4MPhvRErBmPcNS2v2///f/8I9//AN/+ctfNLS++c1v4pOf/KSG1oMPPohTp07FXY2Hi1zwlAdGa9OYVJkWtHINLe4i8qB6pDEsybBIIZPqRyNav/rVr/Ctb31LQ+vhhx9GsmhxRZ7t27bIWEhKuk7qLJ8rAGTj9+BjoGMlYE0lM5zY8Dp8PAtB/Zc2sPgNFFpc0OLXv/61hhYXtkgVWhfu3CFoJY0WNxbujsjyJnObtfLkUMmwjOUCZx2sUGj9y7/8Cz796U+nDK1LL7lI0EoKLQZLFfVktLIxQ8mFz2wAi+Hi6Qxq0+Zhqe6gDLqrbCttj5xpcVELzrR+85vf4Nvf/raG1iOPPIJ3vetdSY1pcfdw757LpaElDI0RLIYrP24DyTyYTWC5CwSs2e4SmgVktP72t79paH3nO9/BP/3TPyFZtDiFZLSuftGVglZCaJnByu3Z1ElDxfcEJrSfo2WBJrB4+XCFlmRYU5SkdQxr6l0MPyi0/u3f/g3f/e538cwzz+DRRx/VMq1kq0y/WKpMJ9CYBKy4AOL7+qzpQN0EFqPIc7V4gqmANSXIrIPF72xE6+zZs/jMZz6joZWKgq03Tu5LoNFGO/vl8u8FrLjAKvCAnF6QNdXjfSHAUmjZuKsuY1hsx5yAxW/MxS3+8z//E7/97W+h0EpVlemXv+wlglbM3RYBK66Z4wyWpx7kLE4xWmHA4uPIy81oF0YUWunqls7tiXnOJo5O5W9RflBo/e53v8P3vve9lFaZvuXAfkErJrQELLLYY8dHgaXQKuApIalo6BHA0i6EcEanMi0BKwot6fu1Ea1UV5l+1SsPpiiYUhGQmfoaAhZZnaDCSpAthm6eESxGq7IKlJJSddHA4ixLRyttA/9zG6MZn2EpBhVaxirTjz32WNJVpvnq4W2vebWgFTEDELCIx4g8zaDiKpAjClpmsNraQTU1oMLCJOMsFrB0tLy8Cunc4pKarHLmd8gasBguRitdVabvuP02WKXKdJgGJWAFwWoBVTWDGqpAxRFACAWWrwNUW5NcpqUtg8wgqc3YmE2YNblBjFbEE5Hx+dnxc1aBZUTLXGX6ve99b1LFLbjK9NG77oAzJal7dhz8+IJZzXTnR24wufgdI3wnLcNqAVW3gDqbQRtrYS3n6QshnhMOLEZLK1OX4PiSTb/pORaw2opAjUUgR26hlXVgGdFKdZVpRuvYm4/Ck2iV6RwdNwjixEgptPIcLF8L6OpWuC6qg01DywRQJLDa23TwTc+J5QRQyPOtOLOLIcNisFo9oKIiUMoG/UPgHMvnTuHfZCVYjBavqcXdw3RUmX77W4+hrKw0/izCbgtO5EvhAcqcTIYbmEJLwKKJNnhe0QbvpfVBtIwnKxNYFh7D4uyKNw0stUxMnGjxBNEiXr9doWUExNQlVGDxyVdDKzcyrawFS6H197//HarK9Be/+MWUVZk++c63o7q6Kj60nHYQnwVzdixMocWNw9hY8uBnY5eQM6yJNngPtqP0FW3wXNIYHFBXaJnAcoQES0eLrz7Gui8ZLL7ZmdE6r6sXASwNLXdOZFpZDZYZrVRXmT59/0k0NNTHHlAMFgdUzqMVZ2YQa4PM5L9TYLW3gHSwPAfbwVvJy+aDenpALlfwZGUCqygsWA6QowJk98QWYwosjjE3Q2c8cUQBy1MEKnKDnKmaEzY3J6msB8uIVjqqTL/h9behpaU5toBSYCm0ZgTU3BzgmM/emYxFJnw2BdZAC2hLMMNirAoOtqPoFR2gpUtBPb2wut2wuouDM915DpanHt62dljO6xJyhuUAFTaAXE2xoWUEi7MsrYuu0IoBLIWWVsMwO+MxJ8BSaPGqgwqtVFaZvuvOO9DRMT86WkawGC0LB6UKqOwMEAFPP24KrKUtoMkW0EvbtOzKerAddgbLPwha4oenrx+uhhpYyhun0GKwrJHA8nSDXPNAdi40ESFOQoLF44kcYzGCxWjZ3foFlAjvFelzzOHvcgYsI1p/+tOf8NOf/hSqyvQHPvCBpItbvPlNb0RPtCrT54HFZ0FOwQWtiA1xDhtA5KHGwAYAACAASURBVM/Fx03v/hrBOtgCurkNBbe2g8EiBZZ/EMVL/Zi/axkK+jtAVUG0eAwrKliMlrsVZG+AdhtQqH0SFiyFFj/qm3HQncewGCq1OYpAlJ1o5RRYRrRUlWlGK1VVpo8fezMGIlWZDgmWoBUZhUw+yysILJiaOMoZFoN1sA3WW9theXc76ICeYfkH4fIPouuq1ah+3XpYV3fCUtMIvkpYHi3DYrA8fSD3GpCjKXSmFREshlVdFLGBooLFaPGWXWNaOQeWGS1VZTpVaL3j7cexdMni0AEVFixGK8rtHKHOqPL/Qu/nWdsvKmOxgqy8umcLyAAW3doOeqYdlnd1wMJdQv8gbP5BNFy9BjXHNsLxWAD2UR8s7R2oixUszw6QaynIMe/87x4VLMZfRytmsJK9XWh2Tzg5CZZCK11Vpu878Q4sH1p2fkBFBCs35sFkb7aUSMNSYPEMcwfIXQ9aMp1haWD9czssn+1A4apBWAaDaLmvXoOS46NwPLMRns8Pw9o1gPrOLtM8LMOgu5Zd6RkWg+XZCXKvBTnqZsZYTGDpaDW6ghNHte5gqC6hyrB4OZpE9s3cPCdnwQqFViqrTPNN02tWr5p5sAWsmfsjixpC6EZrAIvHhhxeUFf9VJdwCqyvdKAkMIjC1YMgRuvqNXAcH4Xtc6Pwfmcj7ItH0NCyGBZfl2HiaBSwNLQGQQ7DlIeYwSJQiQPUwONWjJWAxR5kxX/prjI9HFg/3UgFrOl9kfVYcQZhAov/XeYF7a7TxrCMYJUND8K7fhC0ehCW69aAjo/C8rlROM+OwrF0DI3lG+H0LQF1dASnM/CUBjWtIVSGxWB5AsGsjqHkrl48YNkswRu03W4BKyukMnxIrsjD3cM///nPU1Wmn376aXzoQx9KumArV5keGx0JNlQBK/fBYrQ6PaCXN0GBRV/pgGd4EMWBQVBgEK5b18B6chT0uVFYz47CxWCVjaHUtxHUuwRUwtMXYgFrfXBJm6J6UIEX5C6crpIzNQ9LoapfzTSeKHi9d54Rr6FlvkooXUIDEZn3oyrY+pe//AVcZfqb3/ymVmU6FWhx93Db1s0gASs/wGK0rqsA3ToP9M/tYLDsw4Nw62CV3LEG7k+NwvL5UdDZUXiWjqG0bBPKfJtAg5tBWxeDSks0tFw8cTRShsVrcPFW1ACq6AQVc/dOvz2HP8fUFgIsxotvF9LQcpmmNQhYmaeU6RMptLj2IaP1rW99C6msMr3zIk7jDcUtLXx1UG18Rp2bgUp53xj3ewEDYPxbIwimn6/wgG6tBD0xTwOLNgzCroNVetcalHx7FM5vBDMs79IxFJRtQiGDNbQN9OgkaIdfQ8td2AB7WLBWBLFSaDWNgWoXgrzFwfsJp7DizxYGrCm07CC3jpY2D0vAMvGQmf80ovXrX/8aKa0y/cApXHLFpdNoCVgmAIwYZODPlW5QMZ9g1GczIWUEgsE6WAK6m9FqBoPF3UHeiu5ag9Kzoyj67ijc/Dg0BmvZJlgVWE/vB314EnTRMrhK2yKAFZgJVssFoPmXg4oXg4o4QzN+vghgKbTsOloCVmbiFO5TMVppqzJ9+hT2XL03iJaAZWj8CoEMfqzzgnqqQCVqbpIRBNPPCqyDJbC8sRKOLQtAw0Gw7HetCUJ1dlSDyxkYg7VmE8gI1ieDaDmWBOAoGdC7hX0gNa1BDbpzduXVu4UMlu9aUPEekGcpyGJEKwpYRrRsPJVBMqxwPmTs/1e1D3/zm98gpVWmT5/Ci158NUjAygCwYmjIKqNisPwNoJ5qUBk3ahNSxn8bwbqlBJ5LmkGb+4No3bUG9rPBK4RlZ0dh3zwGu28TnH69S8gZFoP1yf2w7J1AYf0YbKWMVgiwGKsyHS0FVsm1IM+VIOcakJXXbePPGeP35DEtrgCk1TBktGQeVsYCFeqDKbTCVZnmMveJbA+cPoWJ614sY1gKg7l65JUJtBU6Y8jsFFgKLa8xgzHhZQKreE8diNHa0g86slobbLedDXYJbZvH4Fi0CdW7NoEC20AGsOzX3ABP57UobdkMR9mS0BlWbTOoohmWZj3D0sCaAHleAXKuA1nLYwdLOw6MG38fxkrACuVCRv8/M1qpqzJ9CjdM3qCjJYPu02NDMeCRKuC4hHthWWxoGcFitFpaQCUqgwkPFt1SgkIGi7dL54Fevgj0jZEptKw6WK2Tm2C9ZBtsD0xnWI3X3ACvbx8aB65FTft2UPnFwZnuxi4hL2/U2ozCpgtg67wWNAXWIZDnZpAzoK/AEO9+5e9kHLOL9/mz//c5PdM9HiW5Is/f/va3GVWmH330Ubz73e/G/fffj/vuuy+xTOv+U7jpZTfp825m/wDPCRKpwiYVr8NLqXjqQIXl0dEyg9XlA7W1gurLzu8eGjIsBsuiwOLH7U2g+wZBX9ugoWXZPAbbok1gsGzXbYPrxfvhPBVEa8E1N6DMtw/1i/ehe8kELL03gCou0dHSB93nN4MLX8yruQClLdeCSrlLyBkWg8XbQVBpR4IrimbXSiIClkE1Vfvwt7/9bYqrTJ/CzQdekQHjOXkIpgYWL6QXA1qhwOrxgZa1gRpMmZYJLC27UmgN14DWNoJO+EFf2QDaPAbLok0o18HyBvaj4rr98J7cj8XX3IAq3z54Fu9D5+AkrGtfDep7CaiCrzbrYHGG5WvG/KoLMFh+LaxV18JWbATrEGjeMIiX9M6hghOhTrYClgEs/lGh9bvf/Q6prTJ9CoduvUXQSkXWFM9rTIFlRivEIHU4sAI+0FATqImvHupdw2hg+apAKxtA9/pBm0dAizbBMbkJBddtA4PVENiPtmv3o2P3Daj27YN18T6UMViB14LWHgb1vxRUvTE4rUEHq6PyAqwrvhaO1mtRXDUBe4nKsHSwfJ3BMmI5XKpOwDKBZUQrHVWmX3v4VYJWPOAk+7czwGK0akAu1T00oRUJrEAbaMgLmqejFQtYjNZQPWjbcpB/I2hyE1zXbUOvDtaCwH6U77gBJUv3gRbvg3VwEhYGK3AbaN1rQCt2gRrmaeNXvI58Y+UFWO+9FgUd16J3/gQqag/BUqqjxRkWg8UbV5mO9UJDsvt3lp8vYIUAS6Glqkx///vfx7PPPouPfOQj4IKtyYxpce1DXifeoiqszPIBD5Vm5/T/Ow+sWhNahm5yNLACJaDlXlCLCxQrWIzWznZYAitgvX4ERddtw3BgPyoD+8FgOTffAMfIPtDafaDBSZACi9HasRe0qxbU3wTqaoanahxLdbAWdU1gcOEh2BoOwVZmyLAUWjaGNbvGp2KJQwErDFhGtLjK9A9+8AN8/vOfx+OPP66h9cADDyQ8EM9ovfHOO1BQIFcOYwnSpP4mJFg6WoU8LhUnWIzWCi9oZUlwpjvPdr+lJHiF0DiGxVCpbWczrJd3wHndcriv3YStgf0oDexHS2A/CjbfABrfB9qxDzRsAuvCK0CvqATtqQEtaYK3dgdavdfC03EtFndPYNXSQ3ANHoKn/RCoxZBhMVpcuUe7wTq30BKwIoBlRuu5557DF77wBQ2t973vfUgWrXvuPooiLr1kbDTyc2r3hxksL2Olb+7KmVlILBkWg8VbazloXXkQrVjA2tOG0r3z4XzRSowEbkBxYD9qAvthU2Bdtg+WnZMoGNa7hJxhMVgHK0EHKkFX1aDYtwMtpVejvONadHRPYLX/ENwrDqFl0yGQLxRYPGWBT4q5g5aAFQUs/rW5yjSj9dGPfhTJosVTJd52/B6UanfuG870glbq0DKDVVILUmgVcaFcHkTXG3S9PtOd52DxxtMa+CohD7rzGJbCih9rK0D1FaA15REzLIvWJWyGZU8bive0wXZ5BwYCF6I4MKl1Cy1GsC6fhGf4tShgrIxg6WjZj3Whoe9SlPuuRnX3BEZ0sNq3HwItCQeWQss0XpelMSZgxQCWQitdVaZP3Ps2VFXy2V7QSvk+MIPlqwWV6WhNgaWj1egBDepYxQKWtxJUVwFaVR62S+jUwaI9bSjY0wbr5fPhDQygNLATVYHrQSawSje8Fp7AbXCYwTpYCcuTDXCdHEDJ0ktR1XsNtvsPoXvFIbSPHwL5I4HFaPF3zH60BKwYwTKjleoq0w+cOoH6OtMa3gJY8oibwVrKg9i1oHLuFqoMS5+qMN8NWlU3jVa0DMtTCWK0GipAI2XTaPE8LH38qspXBevOZjBYnGVZLp+PosAAKgMDqAtcANp8TXAMi7uEl0+CwSoJ3AY3byN6l5AzLN4+VQfrPzXDfkMvyoYuxdYVtyCw4hAWxgQWdw2zHy0BKw6wjGhxwVZG68tf/jLOnDkDrn2YzJgWdw9vf/1taJ4XolqKwJU4XGawhmpBa2pBCzjTMoHV4QZtrQCtrg2iFQtYjFZpBWi5BzSiD74bwKr3VaFAB4vRosvnwxYYQFlgAE2BAdDmcdD4VSADWGWB27Qsq2LZFaAxHSsdLPpyA+jVTbC/pAdrd01g3bpbsHz8ELqiZlgMFm9843P2ZloCVpxgmdH6yU9+AmOV6WTRuvPON2B+e3viDVRwm7nv+OZnvWS89shgBWpBa2tB3SHAGi+fRqurM/IYFmPFW0kFyO8GLS8CbSgBRQGLAgNwBAZQo4HlB41vB1161VSGVadnWDWLrwDNqwRtnM6w6DsNoNcE0Sr+RC+W7LkOyy66GQH/MKrVlIapq4TcFVSbAosfBawEmn12P4UH4l944QWoKtOM1pNPPqllWqdPn054ygNnWne/6S50d3XNbHgCUWL7gydQ8s3PCi0FFqM1GAYshVZ3G6inM/Sge1NFECsjWIzWUBFoYzWot1rrFpaGyLAYLN4KpsAaAu3aBvulV2ldwqbAbbAHbkMFg8VdzqZK0IZgl1AD61AD6LUNsH6rCe5Pd6P3Zddg7YphtMcMVvZeNZQMKwk3jWj97Gc/QyqrTL/l2JuxoL8vsUYquBn2G1dtLpxGywjW8ghgMVo9DSBGaz2jZbpK2FkBqjBlWAwWb6PVoC3zQH3VsPmqYDd1CRVY2uNmzrCGYBkfgnvXVlQMvwzz9KuEhQosRrGhEnRrHejbDaBXBcGi7zbA8u0mOJ/1YdH4erT2ce1Dfba7Ng9LZVf8aMywBKwkmn12P1Wh9fzzzyMdVaaXLF5kaHxyFTH+q4jc/bFNoxUXWHWgrkbQEKPVOnNaQ38FqLkyiJbqEiqwxqpBl7WBtjaD+qthiQEs2/gQSrYvQ/3wNtQGXqZNa7AYwWK0RupAd+lYcbfwuw2gszpab16JurWLYO3tDqIlYGU3LOn89IyWqjLNaH3ta1/DJz7xCTz00ENItnvIVaaHlg0KWglnjTpYGlpOUAtP/NTHsaJmWHUgXz2opxG0rAm0vngaLQbLVxlEq1ofwzKCpQ2wt4G2N4N2tmhXCdWg+4wMa2MwwyoaH4Jn+zI0D/fCE9gCCrwUZAZraR1oVwPolQ2g26fB0tC6dwVsN42haGgxbD3d+kx3ybDS2e6z+rWNaP3iF79AKqtMn77/JFavWpkdaFkyLQs0gMVouZyg+TpasYKloVULWuaZRkuBxWi1hgFLobWTrw62BdG6fL42fjWF1nI/LGND8IwPwb59GWqHe2EN9IICm0CLdgTHsDi74o3BGm4AHWgAvWEmWHRiBeiWzWi+ZAxl/iWwabcdCVhZjUq6P7xCSxVs/cY3vgFVsDXZTIsLtgbWr8t8tOw2EBfwTDgjSjV4JrAYLXcBqL0YNMSTdfU5WPzI0xp47EptPXqGxWD5qkE9btCgjpYRrK4IYDFaDJZCywyWz4+CRUMo2joE6/ZlsA33wqWB1QsaWApyl04P7iuwXqF3C78V7BJyhqWBdXALWndvxoKtY/BWtsJi4/sJFVoyhpXu9p+Vr88VeYxVpo1oPfjggzh16lRCK5fy1UNGa3SjXmU6Y0AwAcM3dBcWZBBaIcDSMq0CUBOXgI8DLJ8riJbfA+otD3YJOcOKBazxIFq2i9tnZlhtfhRVDqFweAi2rctAw71oVGAtmBdc+lihZQZLH8MyglW7ZwsWjW9Ba08AjtJmkF2hJWBlJSiz8aFV7cN0VJk+ff8pbN2yOYMyGBNYTp735M4gtMKAxVA5uRHHCZZCq7kY1KGPY8UK1ngbija3gJZ2TKPV5ofHMwTH8iEUjgXBmmcEi6/u8eRXV+l0l1BlWEaw3rICdHALSvZsQfv4FrT3j8LbtR5U1QqyM8wC1my0/ax9D4VWuqpMX7BjfBbRiqOLp8BSaM35ul8RwDJixT9H6xIyVmqrLALVlQTRigOs4tFmUIkXtFgfy+IMyzME++AQPBuCYNWbwdLQcoF4KgWPYYUC6yUrQPu2oGjPFlSPb0FD/yhKekdBixitNpCFS3optGRaQ9bCks4PbkQr5VWm778PF1904SyhxY2eg92UTYX6txEsRsvKz4sDvFCvmdT/iwOs9ghjWJ08EdQAVjlXiS4C1ZaAOsuD86/MVwl5/EqNYXGXcLwNxRubg1kdo7WoHdTmh0MHyxtYBstwL4pDgcX7v9gFWlQF2q/PdjdmWBevAC3dgqKdW1A2vgWV/aOY1zsKi38UtCAAKmgHWbJ/jSyZOJpOsQAwWqrKNKP17W9/G5/+9KfxyCOPINkxrQfuvw+7L780NkiSbvRcvy4GtMxgaStf8vPm6qweB1iVhaCxstCD7u3VoHkmsBhkDa1i0EJ90iijxfOwFFbhwOKMrtgD6uyCxTME9+AQNLACvbCFA4vvAyx1gXZWBm/P4dt0eMCdtwtXgEq2oGjpFhSPbUFZ/yh6ekdRzWAtHgV51oMK5utozdWxiOGEFyVOBaw0g6VeXtU+TGWVaR6IZ7SuunJvmtHiRq+KbhZEfq+QYKmZ1nPRUOIAq9AJ6i4GjepoGa8StlWDKlzTaHGGxWDx5nWDqgum0YoVLEarvxzU2gPP4BAKOMNSWPEjD7pPdeMYfb5x2QaqKwRdWgkyXiVksDxbUNSyBU7/FpT1jWKgdxSd/lEUMlheLmjBaHWALIkVT7XMaaYcxE7AUqLMwqNCi6tMf+c738EzzzwDrn34rne9K+Grh1yVmtG67tqrI0MS5cwVubtnBIuDPQI8YcFSaCV/lo38Wc2vHwdYBU5QqRfUVQzaWAYyg+VxgcpdoCZ+NIDFq8ba7aBKHS2+NSeWDIvxWegCBapQuKYbtsAyUCxgKbSO62hx11CB1bwFlq4tKOkeRUffKPr8oyieAktHy8lo8Zrv5n0V+d8FVjtsVr5IEfnv0vl7AWsWoDK+hRGt7373u1NoJV+w9T5MXv/iNAWTGSw+04cJ2ohgMVphnpe2/x8nWB5PcFDcVwzq5nWteA5WPYgzLAZLoVWrZ1acYWnLXPPtP3ZQeQFoHa/Dro9fmbqEXjWGxegosMY9sG2uhGVjV+xg8XM7C0HHKqDdEK2D5WSwfFvg9Y2idGAUrStHUTIDLEZrHSgBtNw2J4qdHljmEC0By6jJLP2cvirT9+FlL70xDSjkGViMVrEX5CsB+XS0jGAxWs1ukEJLgcWIMFr8/y+cB9p9/qB7YRiwaNwDy+Yq0HJejplnukfoEirs+LHNCXpzBWinX+sSWpu3gHSwrItG4R0dhWdIdQkZK95Ggt1Dpw9kif0kwmDVe6pQ4PSA5ggtAWuWkDK/jSrYmvoq0/fhwP6bUoxWHoLFaHXyIHtxcJa7Gaw2N4g3xomzLCMi3D1s9E6jxbPc9auElghg0dZiUH87aEhHK9wYlvG9+Od5fLvRIpBnFGQCi8ZHUbBhFM4qhZUCS0eroDXmq7hOmxMNnmoUeapBjNYcjGkJWGZJZvHfCi1jlekPf/jDeM973pNU7UMe03rlwZtTiFYugaUPXJsbPf+bx7AYKrVpYBUG0Wqvmu4ScobFWPncIJ4KUWMCi1/L4QDVe0A754EumAaLooHV3QpL/3zYV/nCD7qH+uwlVaDCRaCmjVMZlm3RKBgsy9ZRVLRuhHsKLcZK39x+fUySj3Hk7rrN5kS5AovRskQYGojyWtHeK9zvBaxZBCrUWym0VJXpz33uc3jsscdSgtZrXn0oahCGC4yZ/z+XwDJcbTM3/LBgMVoVoCpetE8fx1JgMVotIcDi17Y7QLVFoK2toO06WrGA1d0G17J20BLOfvjzqi0Ctvx+1lJQxQBo/gi8XaNwLBpFoQ5WQ9dG1E6hZQRrSM8O+UJKFLRsThR4quFkrHiz8hXjCBdg0oCWgBVKkVn+f4xWuqpM3/6616YArVwDKwxakcDq4XsHO0C8lIwxw2KweIa8GT/1b+4e9tWANutoxQiW298GYrSaeZHBGMHS0HKBahbAsziAgsWjKB4fhWvrKBisVt9G1LVuhLMhFFh8ESAKWjbOQKthnQGWel7k7GzmCTDxvxWwZhmncG+n0EpHlem7jrwBDu6iJHzGiwMsvhVHzU/iR23iKA/sqi3xYE3s8/Nn16/IaY+q8YdAKyJYZSD/ElBXB6imcrpLGA0sfs+2StDCetCmVtCIPtNdfSae1jDuCW48hsVdwu42aGAtnw9a3grqVGhFybDUa1qdKLxoIRxr1qNsfBTFW0dRrYPFaJUtGIGjWXUJOcPifWHcR2EyLR0sLbuayrDU82Yn0xKwwgkyB//fiFaqq0y/+U13we3mTCARMOIAi1+f0eIrZxkPlqmhxgKWhlYnqLksOIYVC1i8Mml3LWigHrS+Sb/Cpjf0EGDxsswOzrAYrADfKN0K6q6enjg6AxcFxsxHyz0VsO1biJLL1qNs6yjKuUvoC2ZZ1UMj8AyOwNIyAnIPgSzctVPPZxR5C4FWRLD4+YnEVnzPEbDmAKZIb8lranH38A9/+AN++MMfInVVpk/irW95M0pKShIILA5enmioZrtzQEcJNA0tV4ZnWAmCxWjV1QdXL40VLC7gqqFVCypxgGw6EGHAshjB2toB2tgGauArcwqWKI9vKwM9XAnXKwdQcuk6lHVtRLkviFbN0AjKAiOwLRsBVfAS3MbX4mOrsk8TWgJWpKabv79jtLjKNKP1ox/9CF/84hfxxBNP4P3vf39SVw/5Vp53vuOtqKysiA7OeSBxICu0YgBLPd+quoLqMQp06nkpe+RGZ2yQ3BiNm+F3jnBXCQtBPXqXkLHirboFVFkNai6NPIbF780ZFoPFW28NaLkLVKqjFQYsMoM13gHqKwNV8zEwfOZwPzNYj1ZoW+GrFqB47TRadUMjKGWwAiOg9gHT6ymwQqAVD1hpWnlWMqwMdVGh9cc//lFD60tf+pJWsJXRSrb24f33vRN1dbVxosUNX6EVB1gaPNzlyAKwrHZQUVGIaQ0hwKpqAXkaQJU1oCbOWiMgwrUFp8CqBq13g1bw7T0O0KLzx7C0Sj2hwFpcAWovio4WT141gEWPV6Lw8EIUr1+rZVr1QyNwBUbgYLAG1VVC9fmNYDFa/P/1TCsesHjVWV59NmUnnuCJTsDKULD4Yym0zFWmeZ5Wsmjd/rrbMG9eU5wBZcxW4s2UFFrxPi/Zvzd+Zm5AxuxKNUjVWK3B+VMKral5WBHAYrTKo4wvlVeCOlSGVQ0KuINorXQFl6UxDbpPgbVMH8PiLiFnWAyWzxMdLZ6FbgKLK+wU3jaA4uG1qF8exKqcs6yoYDFgOlrxgGWzglwFKUdLwMpgsMxoGatMf/CDH0warTvvuB3t7W0JoKWfceM+ezJayQIU5/MtfPVKgRQNLEvwggFfUWW0OnimO8/BigJWUZ1h3Mf4XvrPXECiphY0vxbUo4PFaPG2zgva6p1xlXAKrKXzQas7QGawGK22IlBhmO5hkSMkWLwMTeEbBlC9cw3swyNoCIygLGaw+LYj7jLzBFrjPCzj9zUcGwbL40w5WgJWhoOl0EpXlek3vfFOdHX5Zh+S2YKLS9Vr98uphhUpw9Ih5gsGjFZrBLB4DIuzK96mwOLXVhmJej8uelEJKq4FVXOWZQIr4A2Wt9/iBW0JTmuYAmvRfNCiDtCYKcNisDp4Rj6j5dJnnBvej4G+p3RqDIu7hKqGIaNVdGwhbHvXoH54BPXxgMXZqYvnoeloaRNHje8bAiyFlrZfDL9P8PgLWFkAlhktVWX68ccfB2dayVbkOXbP3ejP1SrTvB66swLEA+paphUDWKoxVRWC2sJkWH0toOJQYJm7mTpYntogWvUhwBouCaI1yvcttgSrTfMYFoPFk1XX61mW6hIyWJ06WIyWi6/eGuGwgY6HB4vOzoP13oWouWQdGpZFG8MyAmwHWV0gV3kQrVjBYrS05Wz4tZJDS8DKErCMaBmrTD/55JMpQevtbz2GxblYZdrOg+iNoPIKkJO7UHGAxTPaGa1W7hLyMsj6FUJ+5GISvQ1BtGZkWAosQ1eUMywGize+sqi6g9qjN1icldFaVwxq5tJirdCuEiqwVnaARjtAi/QxLDNYjBZnkka0Tk9fJTRnWAwWnW1F0cmFqL54mSlDY1SM+8gEFl884QUAGa24wOI15RnW5NASsLIILIWWscr05z//+ZRVmT5x79uxLNeqTGtgNYEaG0H1laASta65apTGzMQ0NsdgeXW0uACEGazxBlB/A8irxrCMr8mZhI6WEayKMGAFSkBrikFlXlBTLWhx63SGxWDxBNKFEcCycwapsAw96D61nLIOFqPleacf9v4mA1oxgKWhVQjiq6pGJI3ZkxrD4uxKy7AYLIUW7/PEMi0BK8vAMqPFVaa59uFTTz2Fhx56KOnu4f2nTmDVqhUJB1SigZi2502B1QTyccn5eUEUprKIKGCpm515asLQsmm0OMNisHjrCwcWN0pLcAxLZVjRwCopCi4g2F4LWtAW7BIqsAZiAYvROn9ag3EMS2VYDJbt7BJ47twB58J5OloxgqVNU2GQDZmkEaGwYDFajKuAlYX0JP6RecqDKtjKk0u//vWvpwwtLti6ft3ahIMq0WBMy/NmgNUEuqAbtL4FVK5qGh7QPgAAIABJREFU9cUIVm01aM2aabSMYG2KBBaBCrhbqncJYwGLb2nipZpbakGd7aC4wXKAXh15DIux4s16dgnKzx5G1Zt2wruY73NUWaJ6NGZR/LOaT8ePjJUhkzQiFBEs7hoKWIm3/ix9JlfkUWjxlIdUV5neOLIh4cBKNCBT/jwzWDu7Qbt7QcOtoFLzrS4huoQqw2KwAsOgtWtBy4dAmwwZVjSweF6U0wvy1IBiBUtDywOqrwUNcbXoDlDMGZYD1F8Kuqc8eKXQdJXQmGHR2SUoPnsYLWcPw3fsIthb5oOIx8PiAUvPJI0ICVhZqkqaP7aqfchVprl7+M1vfhOf/OQn8aEPfSjpMmKcaW3ZPJbdaIUCa09fEK1V80zjMCawSvS1rxgtBVZgQxCtDfNB2/UuYTSwuCErtMqrQg+6qzEs7hIyVmrjf8+vAa1pjw+s4lLQknLQ0QqcP+jerGVXwSxrCWxnD6Px7GEsP3sYnt1XgNxdBrRiybBCZEsCVppbfha/vEKLZ8T/6le/wre+9S186lOfwsMPP6yhxfcQcnWdeDdVRmzH+LbsRSscWIzWjk6Q22lAywRWI9/zp6NlBIvRWtUDbfVQRisWsBRariLQGn3SqPEqYTiwPIWg0iJQZw1oQaxjWDzxtRRUWg4a09EyFl01DLpzhmU9exhlZw9j6dnDKL/9CKhxH6ioR0dLwMpiGjL3oyu0/vznP0NVmVZoJVNGTKF10a6d2YmWAquaB92bQNwlZKx4u6ATxCBMoWUCaz4Xm3CBykwZFoM1tAC0ildRaAFtqjd0obgrFeEqmNUKmucArVZo6dMaIoGl0PKVBm/NCTWtYeoqod6VY7C85aDictDqctBHa6aLrp6dmWEpsHp4LOv2I7D4joGabgAV9ZomwoYbwwqRYfG9hOoK4YyrhOpKYYjnGLuUYX6Wq4SZa1Dcn4zR4hnxf/3rXzW0VJVpvnqYiirTixctTHIhwMSCNKlxLQVWMU9taALtCAGWQku7jcfwGbVbc3S0GvQxLMZKgeXv1gfEuWupxnyigMUNscACanKAVnFNwhjB4s/YylV8eHKpaeIoz8MKBZanPIhWXTnoxhLQYwqt4Dws1SW0nD2sjWMxWPW3H0GB7xhsjNa8l4I8vLKHujARB1ja8kL6lAYBK+62nDdPYLRU7UOuMs1oPf3003jkkUeSKtiqMq1BPxctMDTqTP9ZgeVpApU2gVZ3gy43ZViMAW/aqqyGLEuB5XOBOqpBa4eDWBnBYrRWtIMquWup0IqQYan95bCAGh2glZ7gxNFoGRZ/vhbGirOsYlCnF+Tl8S59CwcWozWPK1l7QDeUgD5bB/OgO509DOfZw2g/exgNtx+B13cMxb5jwUyruS84nqahFQdYGsy8+oV5HpZkWHmDUaxflKc8/OMf/8Df/vY3GKtMJ4sWj4FpVaavSWeV6RRjyLfmMFZq6+oGDfOgu6FLqMAqULPFdbSMYPFNy8v5KqEpw2Kw/J2gHp5gqtCKASxu0HYLqMEJWq5nWTxx1Dzorj7bFFi80mkpqLsUVFkC8uq36EQCq7w8CNYOD+imEtAH2mYMujNYnGXxOFb1G45oWLWoLMs3BGqpBnndIAuDHGpaQ5hjxllWgY6WhaFSm0xriLUt583fqUyLx7QYrVRWmX7nve/AFXt3Z0empa0w0DgNVls3iO+bHNMH3Y0gcNXqqe6PBdTO9xHyDdCu4CoL/mHQEF8l1MewNKx0sPzuIFrVjFaMYDFafDWtvhA05A3OdI8JrLLgrUJcpEKhFQtYnGUxWld3gd7dq6O1BAwWb3y10H3nERT1HEOr7xic3C1ksHwNoJaa4I3W8YDF30+hZeHluQWsvAEokS+qBuI50+KCrWfPnsVnPvMZPProo3j3u9+d1OqlJ955Ly65eBfs2lK/Yc6wHLBzvVlsIBffy6ejxWD5+kDL+kDr9EF3hdYMsGygugJ9iRkDWH7GagNo2QKQGSxGq9cFqi8AWWP97tYgcIzWUk+MGRaDVQHasgAUmA9LQwmowHSfJA+6c3eQN5VhqXW3xnpAe5eBTjNa02AxWtY3HoFj4TE0dJnAYrSqy/QrhyrLUhNHo3xXRkvLzhRakmEl0p7z4jmMlqp9mI4q07svv2zuUYqGIlfuUWgpsBb3gZZEActmCeLDXUPuEnKGxWDxNhgGLEZrkTt4JTCmZYL1W1sYVkaL6xiqOVjaoz6+NqNLqIM1vhB02QLY9nXAUsHl4w0TPs1gbdcr8zBaoz2g4VWgPUOgk4NTGZaWaR09AsvSY/B0HUMhZ1hdeobFYDXwADyPY/H7GGe6RwFLOz7czeYuJaMlYOUFPsl8SYVWOqpM33rwQHagVchLDOsZFoM1EAUsbmicKXGm5aucCZY/Algri0BDblAxN+xojdlwLx6P9ywoMqEVBay9C2E/ugD26+eDSrmsmo5WNLACq4JoXbYc1uNXTqN19AjIfwy27mMo4oH3/iFQV0OwW6iBxd1dhVaMGdbUPmC0+LmcDUbbL6F/L9MaklEgy54bCq1UVZk+/OpXJhyEiQZv3M/j8azuLlBXHyhWsLhhcaZUXwxauHo6w4oGVsADqnWDtIH80I0v+PkNYDnsoHUe0EJ+rsq0ooPlOL4Qjjf1g26YDyrTl5qJBSxGa/1K2LavQ/E9e4No6WBR9zHtaqFt5RBowAyWQstwRTVmgPg5cYzxmV5XwMoydJL9uAqt3//+9/j+97+PZ599Fh/5yEfw3ve+N6kxrfvvP4XXv+41mY/Wos4gVktizLBUg+FxmJYuA1pRMiwGq8kTXGqZu3vqdc57DAEWP5fRquQrnNHBsh1fiILjAyBG66UdoErGzjSGZe4SBlbBElgF27qVsA/60bhtHejoHpAOlqM7OLXBPjwEWhsKrEjfKRLQ/LtEoAu+poCVrABZ+HxGi2sfGqtMK7SSKW7BaN155HbYuTz7eQ0zWhDP0u8H54NW9cE+1AdaGEOX0Pg9eJZ6sw80sAoUS4bFYHl4bCnSZNIwYDFa7a7gLHyFljYPi6c1GMaw9i4EHV8IO4PF2939oJd3gqp5WWbDoLsRrE09IB2sunUrUeD3o2XQD9q6FvSy67UuYW33MdT4jsE+MgQaSzVYiR9rASsLwUnFRzaixVWmeSFAXnL5fe97X1LFLRitu4/eBZe2bG/igZk28BisQD/ca/uCV/l4gT6vnsWYrxIasVI/a7fWdICW8HQGtXUGq9/wgDtvPIalMiwNLDUYHioriQDWAhfIzuuo8+RLNXE0NFgaVka01reBqquCM935KqERrPEe0Ggww+pftxJlfj+aeEIwo7V7F+iSQ2jqPoalPLWBwdosYKWizclrJLkHeIJpuqpMHz/2ZhQX85pTGYaWDpY30K9lWlRbH1xVlNGKBSz+PowWL4+8pENHK1awQmVaUcDi8R7OWBmtMBmW9ThnWXqGpR63doKWtgZLkFWYwLqoC3TBKlhGV2HJupVo8PtRymDxtmsr6KYbUHzjK7HSdwwlcYGVeFcv1jiRDCvJRp/tT1e1D0NVmU6me8i38tz79reightLJqGlg+VhsNYuALX1YgqtWMHi79NcCFpQp6MVD1iMlhHxGMBSaPXyag3nZ1j24wthU1Cpx+0+0IoO0Pw2UE01aHtxcLY7T2u4pAe0Z5WGVveGlVp2ZTOCdesEbCduQP3Lb0VpXGBxBpletASsbBcnBZ9foWWsMv3EE08gFVWmT528F7W1NaZGamyws/yzDpZTgeVbCmrvA9U1gJw8t4gbndoifLZmJ8jn1tFqi7FLyFglCBZ/phV1oOVcKmx6DMuydyG0q4QKKvXIYPFqElx1p6sdtL1yGq1LFwTB2rMKVVtXotbvh8UAlvXWCdAHJ1BwehLOC18ZR5dQ7bf0oSVgpaDB58JLGNH68Y9/jC9/+cs4c+ZMStB63W2vQVNTY2agNTgftkA/LEawFFpcN9DCFwxUw4sGFt+24wb18VpV+vhVxDGsJMEabgSNt4JWcEHWCtD4Qlj38hVC/SqhwoofjWD1dAT/vakKtK14OsPiLOuilfAorPQuofPWCVg+OAF6dALW3Q+ARg6Duhr1iaNq3/Cjef8Yf8eZo/n3yf9bwMoFbVL0HRRavBAgL7nMaH3sYx/DBz7wgaQG4rl7eOSO16OtrTUtQRxXwxicD3egH3YzWIxWWxeooirKVT290WkZln6fYYcbVFsI6o826B4KLM5G9Iau5mHxgD1vPOiufsePGxpBezpBO1pBK3m1Uy6IuhCu47yZxrCMYPUyWD2glT7QcBXoIr1LqIOljV0ptHZthffWCVg/OAHroxOgvQ+Bhj8CGnodqJEzZSNKZoCMv2P4U4+WgJWixp4rL8NopbPKtM/XObdoDc5HcaAfRaHA8vGYVjuorgpkM3fdTI1zBlhcfdkB4hufGa2wVwlDgcWvq6MVK1iM1rYOWAfXa2B5ji9E6fGBmeNYDBaXue/qAGlg9YKW94D6fKBt011CzrCMYFm3BsGyf3AChY9OwMVgBZ4BrXsctOAlICvPUlcwmfbJ1P/n3zNY/H0ZrdR1EQWsXJEmhd/DiJaqMp2qgq3H7nkT+np5JUtzsM/SvwfnoyTQr23aoDtnVlPbApDPB+prB/GCfZEamhksbpyMFi8xs5hXE9Unjs6Y1hAOLB0tuw20Vs+uImVYDNYlvbA17IJrdQAMVvXxgZlZFoPFFaP7jGD1grp6QKsGQZeuAu0OdgmNYDlWbYXnugkwWN5HJ9CkwGK0ht4Oe/1aWGx8PyCjZD5mCjIjWAot898m9m8BK4UNPZdeSqHFVaYZra9+9av4+Mc/nrIq04sWDoQI+MSC+PyGE+F1BueDrxAyWmHBWsyTQ9v1rmGY1woFlkKLM61lRcGZ7jGDxdMlLEHs1kfpEupg2b1XoLjxIpRcPqyBVWzsFjJYXGmHrxQOcJewF47lvSBfb7BU2cga0K7VoAtnZliFA1tRFJhA8YkgWAuNYK04jYKOS+BsWA+yc8Uh874JBxajZf7bxP4tYOWSMin+Lka0fv7zn+NrX/taSqtMD/qXpiyQY24Qg/NhDfRDm4fF0xr07MqqPeoZFoPl94FsPIbEXZsQXZpwYCm0apygGr5FxrSKgtZNitBYq+ygJW4QoxVuDEtlWN4rUeK9EhUdF6Ns/2aEBIuzLK5ruLUXrqFeOBRYgTWgjWtg2bQClsVLp7qFGlhdE2i5bQLe0xOYCdaDKPDthbvjUlDDMMhhzrIigRViHyaAmICV4kaeay/HaHHtw3PnzmllxBitVFaZXrli+eyipU9r4CuFxgzL4VsKK49hcZdQgcWrlWrLqIRAKxJYCi2e7FlUNHPZl2hgcSNmtLhb2R9m0F0Hi7xXoshzJSq9V8J78dXw3LZ9egKpyrA4y+JtYy+cy3pRaARreA1sK1egYP4CkI4Wg+XtmkD3SydQdOcE2nbpY1jcJVzxIBy+vSjy7QExWo2VIIdxYF3AyrX2n5XfR6HFq5dy7cNUV5let3bN7KHVwnUB+4ObIcMq8C2FMyxYPD+L0TJkRtHAUmjxSqBTa71HGsMyvDa/T6Ud1GqaF6auEhrAsnuuRJnnShRtuhHum/bBc2Ic9NaFwWkMCit+HO6F1d+LAiNYgTWwDS2Ht7QT1N6vocVglXZNoJXBOjgB78hDsKx9JjjwvuJBWH17Uchg8dbZAGri1SEUWgJWVjbwXPzQvBCgqjL9y1/+ckaV6dOnT4OnLsRb95D/np/HBVtHNgzPBMGIQyp/5qViOurOA8vpWwqXAmvAB1rqA01lWAwH3w9o6NbEApaWTfFgPDdkddUsjvEcLz+PMdAhCAOWRwfLM7kfNaevh+V9O0Dbu4KZ1RRavaAlvbAawHIF1sCxeBlKPLyWVieorR/O/k0o65pAxUsn4D04AcfKh2Bb8QzcVwQzLPLthU2B5WsMFsPguonastACVi62/az9TmrJZa4yzQVbU11levOmWaoyzUvFtNeC1kyPYc0Aq8cHWhQKLG6QOlrxgKU9h5+n0DJlUxFB5ufpaIUAy+a5Egqs8sn9aHjXflienARdsBYU0AfeNbSCYE0NugfWwBtYA/sSHSwdLfv8QZR0XYWyl06g9OAEylc+hIJlz6D2jc+Atj8IBuv/t3fn0XFUV/7Ab/Wq7q7etO+WZEslq7XaWi1rcSMZjGxkJIMTMNiQkIQlMTiA4mQmIRACDhkGJgkD1uIVm8XGARII+76F/DJZTDbI9iO/zGQyk9lPcuaf7+/cqnpSqdWSWlILydLjnDotpJa663bVx/e9uvWunl3paOUbHXzS/SCPuHIo0BL7KrJKC/ZT7u/UsZFzWGcsHwvzxmPRiu0yPTg4OOtMizvy9J73AXWZZrRWZIG0tfrEO4OligyrXAMxWvrle86uRIYlTkbFXIVUFI7yXJM4MeM9ipOV1zZ3GAsCzuikNdGKmoWjliGhYgEr96o9KDy4B46n90Dp74OTF+iLikxrIlicYfGQ0BksBTFYKq8Pvwop5Z0IXrkL4YGPYVXrA/A2PY/CkeehXD0JWBkBkI9vdBfx4ccZgMVXRxOMhwRrYc77M/pVBVqiYesPfvADiC7TyWjYuq3/A+oyzWil5upoMVghrRo2nnTnjdGaFCw7SLUbN0DrPQsTBYtbe9lAKjeemDqTmHgCK6DaHNDFZUa1+/YIeNKd1J3geSyew2Kwig7ugffpPXBv2w5v9DxQtA0UXQ2KTgTLzkPC5pZRrHS0coqhaCVIOa8dwet2oaz1AYSankfOyPNI2XsAVB4nw5orWC67ZR5s6rhIsM5oOhbuzcdD69lnn9UbtiYDrQ9/6MKE/9WdeHJPfdCPPZ//ZXeAwtlwa2sR1qrhFGDx41Rg8TAvwGi5QdzSPqEMi0DcQJU768wGraw0UGexgZYFLEbLbgEr/PQeZG/bjkC0HxTthbKhHbYNVfoclnVISNF2eCxguTnLyikGaflQmkvg7luPle0jCDc9j7SR55E1X2Cl8PI5roTQkmAt3Dl/xr8yo8VdpjnTEl2mn3vuuaR1mZ7/3ocMljF8sYeyEC6vhmsmYPEwhifG83nIGG8oKL5nGfIwWPV8w7SJVkKddUyAPSHQihxQe5FxP6B/J2yqsdGmaxAwMywGq2LbdqTrYPVD2dALT2sLlPqqscJRrsOKtsNnASvFAhbV50NZV4zQpo8iuO4xHaxyEyybOenuZNi4C/VcMywGi9vZexkt/jwm/wdHgnXGs7HwO8Boce9DRutHP/oRkoGW6DL9kct3TXkAT3VwT/8zAZaBlqu3CK7V5nAwkQxLnFg8PJwwZyOw4scYsHhFB0aL66wYMPF3pntksNRMUCEvM1MC8u+AW90Jj7oTDJb3qj1QD+4Bg1W5bTtyRsHqQ7AxCkd9C5TV1Uale7QdIQtYiroKzhiwqCEftvPb4DpvN8L3PorIZ0b0IaFb2wGHtgOqlg8Xg5U5xzksAZZAa4o18CVYC3++L4l3INBKdpdpnoj/xMevSPyknu6kH/dzK1h20BU5sO2vAgm0phsSjvtbfCUvdqJZoGVBiYESSykzWqkx5RLj/mZMpiHAYrTyckD+VrjVS5CrXgrbpmvguWoPnOakO4OVawWroQvuhiicNS1QGtfp2VVxtB1plgzLFgcs6muActFGuK+/BhXX36ODxYWjfm0HfFo+gloAtvwAyD+HSXcrWIyWjYfYHMuY/SeCBGtJcLE4doLXiZ+PLtOM1ievuSruARzvoE78ezFgfSwb9ONa0AETrRmBxScX/714aE0CFsPFN0vrw0nLc+KcqPo+WcFSM0BqLhzqOuSpl8C56Wq4TLDo6T1It4BFG/rg18HqQkrDWbDXdcHWHkV5tB25FrDEpDvPYfGQkDMsBot2tMG2qxurLrsazshOqOWXIEPbAR4S+rUAHGU8LEwmWNzSnsskJqIlwVoc5/qSeReijVhsl+lDhw7NqY0Yo7Xnut1JRisOWKdrDbTur55+0j0uLPHQsmBkzbDGgcXZmKgYn5hZxAfLC0XNQVBthmvTVaCr9sDOdVhP70Fg23YEzQyLwfKZYLkauuCq2gzPmh6sao+iMEGwlB1tKL7wAuSvuxa+1TuRqV0CxRwSOnhYWOI3C2R5eBxviGyJQWzcJmRYDJZAi//WWDwkWEuGisWzIwIt7jL9zjvv4MUXX8TJkydx+PDhOaP1mRuT2WV6ErBMtJTyarNLcWwdFp9EU5yA+s/4OdMMCSeANQ1aEzIs7lvohVPNhr37HNBV10I5uAduEyy/BSyvCZaNH6s2I1jeh5w1PchtaJtQ1hAvw2KwirZthbZhAPa11yFd2wnSCvVJdxuDtWo+wGK0OPYSrMVzdi/Rd2JF6yc/+QleeuklJK3L9OeS1WV6CrBO10Kpb0HWCl4Ghxet47kmRkhsU4ElhocCLctzp8ywBHCTZFqTgMVoKVxn9ZFeKAeuRfCpPQhu2w7VApbHBIsauuCp2gxV60NY60Na9UZQqjaGVrZR1jA6JNxkDAl5WJi9bStWR/dCaR6AS7vOuOKoN8WYT7DGt7WXGdYSBWMx7JZAa166TN/01+P+5bX+K5z419ODla+tAxXXmWgJrPjRgpAlAxj/2uLvW56bEFiTZFpTgEUbikCXNkD5/HkIPXEtQv3bkWIBS7GA5a3aDJfWh5DWB7+2GVRYCUoz0SpcoddhjYIVbQD1tunzWMq2rSiI7gW17IWiDYC0z4G0EqMpxrxlWBKsxXAuL5v3wGhx70NG62c/+5nesFV0mR4aGpr1TdPcsPXLX7oZ9mnqdsYDMja0ML4vQDEh4kl3Hg6Krb4FqQwWbwWcafEksEDLgtCkYIlMy/LchMFitCy/x68xHVg7IlA+Vo/sfVsQOv9C2C1g6ZlVQxfsDV1gsGxaHwJaH3wMllano+VitPKLxoPV0QDa2Gag1b8VFN0LW8tekMbbN0DaTSBe9ro0PA9zWDwklGAtGywWy44KtP75n/8Zye4yfce+25CSMv6gnhopK1rTg+USYJU0gHzFxjLIOloxmEyJluU1ZwQW42j53QTAsu2IoPATa+Hr3Ah75/kgRmtDnw4VDwvD5pBQgOUUYGl1CK+ohLOAM6axq4R2Botv72G0Nm4FbdgLV8tehHSwBkHaEEi7BVSqgRTrsDn2aukU8Zp00l2CtVjO4WX3PgRa3LCV0Xr11Vfx6KOP4ujRo3PsyHMf7rrzDvj1OiDLyW090af82lwJgRGKk2Hp2RWjxWBxnZKvxDwxpzgBp3q9eQZL2RFB0Y4I3GtbEVzbDYXRMq8S8pVCBouvEjr14WAf7BawsrU6qCtXgbS80bIGtaMBNv1+xDZQ21ZQ/V64mveipnwv3BqDdchAq/RmkD3dgtYMwNLvr3Qb1e56HRZDJbbx/xjJOaxlR8fC7TAvBPjnP/8ZjNYvfvELvPbaa0lCaz++8bW7kJo6my7TDI+JVixY5S3GcNAKFqOlrgQ5eMg2CyDt5q05onh0tA5LTLhbH2MyrJSAUenOhaN6HZZxlZAn3fU5rB0R0I4IsndE4KxpQnbFeqSs7QK1b0W6iZUAK6gPB8eDlcVZFg/vGKzaPL0OK6ujASkCrHVbQZG9sNXvRdXqvUgvF2AdApX+PcjXDXJmmGjNACy+CZ2XW2asJFgLd4LKV54YAYHWfHSZ3n/vN5CVNZsu0yZasWAVtoDyzTkskWHpYK0CFeeDXHxSzhAtvnew0GXcmhO3rGEKsJwpIF+aiRYXjsYHy7MjAkdNE3K1FqgVrVDqNiKt9lxkWTIsBsuu9cFmybBStToEBViRPFBdHrI7GhCwgqXthbJmL9Kb9iKzZhC0mjMsBmsQ5N8KCneDvFlxloWeJiO1omUT2ZUcEk48g+R3PvAIWNHiLtOvv/56UrtM5+fnzRwSnuDuTRubcOeJ99wWUOokYJUUGJmIfxaZlscGKnAaaM0kw2IcXV4TrcnB4izLVtOEHK0Ffq0FitYBNf+jyKjpGR0S+k2wyAJWWKuDV4DFWVYkD2lNaxGMAYvq9sLZuRfFFw3CtuaQgZYOVh8o/TxQyUaQLz0GrWnA4n0TaEmwPvBzUr7gNBEQaM1Ll+kv3Yzi4qKZo7UiBXS0dAwtBitogGUraQDfIKzPY/GjAKs9DxTkyeYZZlopCijfCUoXt+ZYMyvxdcyQUH8NxUQrddIMi8FSapqQpbXAy2CVtsMdvAGevCsQqNk8Oofl1voQC5bHCpaWh0BVLbwtfO9hG4iHhDzZXrdXv1pY/ulBeC4/BGriLIszLAaLn9MLWtkM8qVY0EoALIGWwvcSiixLzmFNcyrJH39QEWC05qvL9Fduvw1lZaUzg4TnlzoCoMOrQD+qMTIsEyx7SYOxmoFAS4DVkQdqy5n+tpp4oLkVkE/gFO8xHlgMI6PlAfl4iRpzWMh1WOYclgArU2uBi7fSdrj8n4ESuBGuvCvg0c6DovUhVeuDYsmwvFodYsHy8hph1Y1wMVoxYFXsHYT/84eg3HgI9uZBUFCAxWh1gFYGQarHRCtBsPQ4MVJ8L6EcEn5Q56J8nQQjEIvWW2+9hWR1mb7zq19BJFIxM7TcNtA6P+jgKlBu82iG5ShpgFdgZc2wGKz2XPMWkkkq1ONhJb6nd5yJnaAWeE0GlokWt7YXaMWA5a5pAoNl52GhCRape6EEBhDK7oO75Dzk6MNCsw6La7G0OjhLzEl3HhJqeXonIe7Z6K9uhKOhe1yGVbx3EIFbD0G57xB8nxsE5fVByWCsTLC0kIGWnzOmmYLFv8NoyQwrwVNJPu2DioBAaz66TP/dXXeidqZdpjnzaVRB6RFQ0LhSyGD5pgWLh3czRUuUVcRDayqwzCGoQCsGLLWmCT4TrLAFLEYr3X8BMjM3Ir/kPDi1HqNw1ASL8spAeQZW+sqjWjUUrR5B7ipUsw5UtWN0SBjcOwj7oLdXAAAgAElEQVQfg3XoEIIHB0FdfXAVbwWVC7DCRhV8SdDsqpMoWowUg8WbvJfwgzoP5evMIAJWtLjL9He/+129y/Tx48cx1zZi93zja2iYaZdpFw+7eGG6CKisGYmDxSdYoicmoyPAYpxi0UoALM7UGK2G3HFDQn9NExyTgJWhXoBifydWZHQjpficiWCpeaBcgRavUloPr1YPX2U9aM0G0NqL9Tks2jsI562H4Gawjg+CLu5D1llbQbWMVoeBlX6vYRjE/RkTLriVYM3g1JFPXagIMFqxXaaffPJJPPDAA3NGa/C+ezDjLtOKDWRXQfkVcBStTTDD4hNzJuUOVrAYKP7/RIaEZoYlhpaZXtDmlaNoMVg2E6x0nnT3fwacXfEWYrDUDn0LZnTCXlwzhhZnWAzWKFpGKzTOshgsG8Nf3wlquwgMFt16CKmHDqGAwbq0D0Xbt4IYrepYsBghUQk/HegSrIU6B+XrzjACsWgls8v0yPB+dLS3zWxOiwFJ8cGercHHBaNiWGiddB+dw2Ks5gqWyLoYrQQzLEaL67sK/KCeEh0tK1gZpe1It4Clqhcg1wQrTW2FN6MSVGSiZQWL0Sqr1TMsPcuqrIenoR4Ko9XUAdp4BehLB5F76BDWHB9E2qV9KP4wN3HdClofDyyOjcu455BLGAS2Ex4lWDM8beTTFzICAq3/+I//wHx0me46KzrFyRKTuegYGFflUjw5ILXEQGtewRJozQAsfp/c3y9PBZ1bgliw8i1gedULkK526GgxWEG1ApRuopXHqzbkwa7mQWGwiow5LAFWWkM97OamX5TY+FHkDI8genwQNZf2IZ/B6t0K6poMLF4C2W1Utk+KlgRrIc8/+dqziIBoI8ZdphmtZHeZ3nTO2TNGy2ZzggRaJQVw8JW0cVcJk5VhCTR5eCi+TvCR0cr2wVdaCZvWrA8LU0vbUWgBy6NegLDagTS1A34BlkArqwqk5kNV8+AwweKrhGIOK72hHq6Geng5y/JooNR6+Ldejs6D9yB6aR/SEwHL7gb53MadAnHRkmDN4pSRv7LQEbCi9f7774O7TD/99NN46KGHkIzeh+dt6ZkhCArIxj30skFFefBoeVDmFawEkYpFTSE4fEEoK3j+qRme0nZYMyy7egGCaoeOVoraihBjJbZQE8hfhYA/HwHOsoqq4dDqEdbqkVpZDwFWRkM9bJ4yEK2CPW0tivouRcfF5yOUKFh8z6BAK/b966UM8irhQp9/8vVnEQGBlugyzWgls8t0f9/W2aGVkQ7fqhzYFiNYDIDiAKUEQYzWqvXI8X8GdnPSndQL4FI7EFA74DLBShFgqW0gfze8BdUIBQrgKqqGh7HS6pFZWQ+3mWFlNtTDqYO1UkfLnbEWKzp7ELigd/ohIWdY4kZnRssWm0nKDGsWp4r8lcUSgVi0fvCDH4C7TCcr0/rQ9gtmiBaB7E6kZIdha+HGpqJwNNlDwllmWHrGwvNfjFYAVFCHdP/18FjAUnSsOuBUWxFWKxBQK+DQ0WKw+uGo2whfUQ3cJdXIM8HK4LIGzqwa6sEZ1hhYK0H2MrgiXXC3nQvq6Z16DssKFsPl4Kuq1kl4CdZiOffk+5hlBBit+ewyfcmOi2aIlg2K3QGlLAxqyTavDi42sEy03EGE/LsQUK83SxsuAKkd+uYwwWK03GoFPHqG1Q9q64ejcSMc1TUoLDeGhCETLEaL57GsYCn2Mti1s6BEukEt54K6OmPqsBghMz5xweL3KtCSYM3yNJG/ttgiIBq2zkeX6csv2zkDtMz6Kc4OKsKgbHXshJxTHdZcsirr7zIA5qY4YVdL4OMO0eqnwUNCAZbdApZHrUBQbYPL3w+lrV9frVRprUHammqEtHo4I0aGpZc1NNRDHR0SrgSD5dXOgl3rAlV0gc46C0pD9hhajkTAEmgxbHIOa7Gde/L9zDICAq356DL98Y99NEG0TLC4rXqqG7QjB5Qj0JpL4agVnSm+5ror3iZMWIvvWcFygNR02NQikHoJKHB+XLA4wwqrbfD4+5HS1g9FXxO+Fq715fBUVUOpMsBymMPCgKcMDuI5LAOskHYWVK0LXkYr2g33x9aCIjkGWgmDxe+ba9BElsV4iX2SnZ9necrIX1voCFjROn36NF544QWcOHECyWjYes3VV447SawnzNjXJlicxYRcoNcqQZflgvK4A/JMwOJhkAUXy8k59lpjJ+zo97h8wWebAi3L31QcsKm8HE06SC0AZXaCQut1tGyWDMumVsCvtsHr74e/rR9eEyzasAr2NRpoTR2Uxnr4zLIGBstJK2HjzV4GBitV60KJ1gVHtBu+v9kEW3M9SMsFzQgsK1oSrIU+1+TrJykCoo0Yd5kWaHHD1mSgdd21n5oGLQtYvB7WD2tAb1SCrsgFFfAqA3GQmfR7VrQS/D1eCiefr7bZJ0FrDCxFcSBFTYWi8mqlaaBIGqiwWkdLUVuh6pmVUdrgNDOsQFu/3jnaFq0Fg0UNq0DrKuHorIfaWI/chnoEPWVw0UrYaSVyTbDStC40aF0IRrvhubsHjg3nGpXyvPDgtHNYY+957L7K8WuNyTXdk3TyyD+zMBEQaM1Hl+kbb9gzBTwxYPH6WT+uAb1ZCboqB7RifGYwPWACrRmApXlBBW6QPx5aYyc/gxVUU+EQYFUFQB1+0IoqUKhJvzros5Q1pPj7EWzsRzjaD4cVrPYK+HoaEdrQgLzGeoQ9ZfCaYK0wJ905w2rSupAd7YaDwYryahCbQL4wyGauvjDppPvYezayTs5UGSwxGS+HhAtzlslXTWoErGglu8v05z47MAlaFrBCbmPBv9M1IN7ejIA+lQUqng1aMwRLoJVmB9msvzt28jNYITUVrlGw/KCoF9SpggpXg4KaWdLAWVYb3Go/wpF++NdNBCvU24j0nkYENjQg7NMQopX6PFaBvQyKOYdVp3UhJ9oN5e4eKDpY54KCGSC3aqCVMFi8DwwWz2cZaMkMK6mnjvxjCxUBgVayu0wPD+3HTV/4qzhoWcDK9YBeiBhY6WhVg95aDdqTDVo5U7Ss6EzxNQ8JGSuxRdygLGumNQYWF5EyWO5xYHkMtFpVUHahjpZR7W6CVdoPd3U/3G2WISFnWL2NyOhthKOnESltzQjbV8GlrEK2CZaP56+0LmS0d4Pu7gFZwVKDUFJU2J28UqqleFSvw7K833FzegyWWHlUgQRroc4w+bpJjwCjZe0y/fLLLyNZXaZv/dIXYRtXkW0Bi+eweEgoMqzT1aDTlQZaAzkgz0zntKaASsyDxYLV4gWtTQFlCLQsACgOuOKC5QG1MXp+UHYBKMRLy5hgreqHXeuHr6EWzvXmHFZ7BRy9jQj3NoJ6G2H7yEaktK+D21mKkMPIsPQrhFoXlJJu0F/FAUsNwuNRQWrKGFoJgWWgJcFK+mkj/+BCRkCgFdtl+siRI3Nq2Do0NIiv7Psy3G6RMSUAlkCrsAikd4JJACIB0nSP8cDiYV5lCiid0RoPlqKmwjYhw7KAxWjlMFrN+pAwc1U/HFo//HW18DWNgcVQuUyw6Loe2K48F4HOVgS85SDtLKQwVlzWUNQN8veA1vMcljkk5AxLDUJVub8ir0VvopUwWD48853v4L777hvdBgcHwf8wcW8A8R+JL+SjjMCZEAGBVrK7TA8O7sff3nkHVJXrraYCq8rIsBgs3uoaQO6VyUVrMrA406rgTMs5hhbfV6iXNZhXCat4DouHhAIs1ciyGK381XCHNyN/VT8CJlhBvkLIW3uFnlkxWrzZr+sBDfQi7apz4Y62gio64Sw/Cy4BltoDKh4PFqlBeHWwfGNoSbDOhNNKvsf5jACvqcXDw/noMv31r92FcJi7TJtZzIQhYQxY9U0gtQnkXpU8tKYCixu0RlJAmSZaCYFlolWVCndRA/LLNiNf60ewrhYBC1h2kV31NsJzXQ8cA71IH+iFcuU5oPY1cEQ64Ss/y8iwJgHLPgqWiZbeRduSEYq46o9iDsto+yUzrPk8a+TfXtAIMFp//vOfIbpMv/baa3jsscdw//33z2l4uH//fuy/9x5kZvI9hHajL2G8OSyRYelgrQOpzaCUkjirE8xiqDgdWA0eA60sp7EkzrQZlgqbpoKqQ3DXZyJcVY+C1T1IrauFxwKWs7cRbhOtwHU9UAd6ER7oBd2wGbS5HLb1dfBGOkHF3aBJwKJxYPlADkZJgrWgJ4t88cURAStaye4yfdMXPo+8vIIZgMVorQWlcINRHlLOAirxO4mAxWjxnFYWX5HjSvephoQqnJoKG4PVkAFbfSZCNWuRWl0DmwUsnr8K9DaC4fLvPlfHyjvQCyeDtbUUtEmDo7kOtGqDMYcVZ0gowVoc54Z8F4s0AgKt+egyfestN6OoqjT+VcLTlVD+TxVoNMNisBpAPAc2K7QYObOIMlGwGK0KD8jPE91Tg5WiqXBVh+BsyICib5kIrqyErbZMn8Oyt1foE+58ldDDcF23WQfLNdAL/w2b4WWwelZB2VAGqquHM7wp7hyWBGuRnijybS2eCDBafCVJoPXmm2/iW9/6Fo4dOzbnjjz7/vY2lP5088SyhtOVcJ2uhK2V57AYKwtYjJbHA7LzUCjRTEtM9CugmYC1hsHiq3J+I9OKO+muwqOp8FSHYDPBooYM+LNWI6WoArS2DM72CqT0NiLY26jXY4VuOA++gV4wWKk3bEb21lIoPatAUeM2nszCDXCWbDIq3blwVOVO0Lwxnjx/ZW4ThoRiPzk2cg5r8ZxF8p18oBEQaP3pT3/Cr371K4gu03NGa3g/7nxvCBU/32qiZdZhna6E/3QlUs5pAqXFAUtHKwWkd39OBC3Licw3P4uiUX7kq4Nc1sCPPOnOmZXYdLC4hMBEKxLvKuEYWJxdMVa8qZnlCIRrQFURuNdVwWtmV/zIc1gpA736xDuDVby1FDYBVmsExVobQmUboGhng0IzAYuzSLGvEqwP9CSRL7a4IiDQSnqX6SND+LtfHkDNL7aBROHo6UqopysRuqQJirbORMscEjJW+uYFedwJoiVOYnOCOs89hlZCYDFaHlA2lzPEljWMgSWw4kdvZjmCoRooWg3U2np4z1kHZXRI2APnQC/sA73IjgNWibYe2VobHOWdoNwMkD/RDEvgzfsrwVpcZ5B8Nx94BKxoJbXL9JEh3PPLI6h/98LROiweEqbvbIKtYx2onNFqNKGygMUFlAmhFQMWDyVzTbQSBotfywVa4QKtt9ZhxQfLYQErVN4Cb+PZoHNa9bms4HU9OlYMVsENmxGKybBytfXI0dbDVd4Kqk0H5QRBgUSGhAIsfmScjZIGfpRlDR/46SJfcDFEgNGaly7TR4Yw+Kv70fLuh3W0lNOVqGKwoutAnetAZXEyLL3iOwWKxw0H2aFMOqcVByx+bo4rwSEhZ1gpIKfTaLFV6AI1e0HlXIOlwmHOYVkzLJsVLK0F3vJeUMPZcJ7TirA5JGSwCm/YDMfWUrgtQ8KQth5hAVZnGqguCMoNmhcApprDsoLFw0O+u0DWYS2G80a+hwWMQCxaSesyfWQQI+8cQ/t7l+hord/ZBCeDxdu6KcDyeeAnj4mWeTVwHF6TgMXPqTJvZp5yDssCFmcuTgdolRtUrepoKYxWdWh0/orhigXLp20FlffCVn8O/DuNsgYeFq64YTOUraXwWsBStfVI4Y0zLAYrGjTQyppu0t0KFn89NjSUGdYCnjDypRc+AgKtpHeZPjKIA+8cw1m/vAydO5vgNsFyrJ8arBD5EJgUrSnAynWBmqabdI8Bi9FKd4LO9oNqTLRiwFJ40t2cwwppLVC1rVBMtJxVG5F6+Ra4LWD5LGD5tPVwaOvhKW+FIsBitMoDIE+iGZbAy0BLgrXw54x8BwscAdFGzNpl+qmnnsKDDz44t4atJlo33vHJUbDSEgBLoOXUh4fWTGsasDQPqG6qq4RxwEp1gi7yG2jVGpXu1iEhZZbDYwErpG2F00RLSetGRsVGhK4+DyuuNzIsK1iMlVNbD295K2xWsOoDIIdvDK0JZQ0CqdhHG575zpOjNz7zTdDy5ucFPnnkyy9MBKxocZfp73//+3qX6bmiNXhoCA88fBR9n/20PiTMSwCsMPlgoOWFkxxQRLHo6KV+8yqhdbjIGRaDxVv1ZGUNk4C1IwC62A86xw+qDoLq08eGhZnlsIVqQFoNgloLGKyAthUuRivcjaxAFGsaNqLwI+dC6S2DFSyFsTIzrAlg8ZyUQCthsOSKowtzdshXXZQREGhxl2lGK1ldpoeHhzBy/Cj6Pn8jChIES6AVJCtaCWRYAq11aXHqsKYAS6BV6wNFwmNoZZaDTLC8JliMVpDRYrDUKDqKoyjYcBaUDRp855YahaOtEZC2Hvo8VrwMS1z5s/tAvAKpfjUwDsRWlEmCtShPHPmmFi4CVrR+97vfIWldpoeHMHz8KK7664H4ZQ1qCmxej55ZMVZi40yL0XLpmZY4ocWjZchkzbAYrY48UBsXf3pAo4Wj04DFaPFz0/h2npCBlgUsG18l1LbqWZaOVrgbGWoUrSuiKCjrhJJbDU9bGZQNpSALWO7YOSweEgqw+FHhtd65tVec/ZJgLdzJIF/5zIgAoxXbZfrZZ5/Fww8/jIMHD+rzJtZF5BL9enB4CIePHcGOyy+zoCUWskuB3eMZhUqAZc20bHr7MHFS8+M0YEULQW2ZMweL4Uj1gFaHQFljGRZpLbBpW+ERaIW7kapGUbUiivzSDbCH1sCZXQ1HYxmUdWMZll6HFTuHZQWLeEVWXrddrNpg2S/rPsoM68w4geS7XJgIiN6HSe8yPTKEyz5+xVilu6jD8sUHS6DlGJeFJAgWo9WaDfLzOuoJZlgi02G0sleNDgkZLNK2jqKVmtqNsBpFxoooUks3gNRaOP21CGRUw76mElRuDAkTA4uzLIGWBGthjnj5qmd8BARasV2mOdMaGhoad8Uq0UyLnzc8MoSPXXPV2KqbagoU38QhoTXTGgeWbQZgdRaBVqw2bssRhaOjKDlBPBQUGw8Jxc/4kZfPyeRsiSfeDbAEWgX53Qj7owitiMJuguVQaxHy18KXXweKtEItNyvdp82w+HUFWtYro+Pxkmu6n/GnlNyB+Y5ALFpJ6zI9MoSrr/vkaOYzHVhOa4aV4gAVWDpMx5vD4uyKNwaLbwtaETHQ4kp3gRKXNQisxByW+Bk/FmSBilaCtIpxYDFaWmk3MnKjCBZFQQyWvxZ2tRYBtRZq1hpQfQtSIq1wr7YUjnIdVuwclj4kFGDxowRrvo9p+feXeAR4nfj//u//RtK7TI8M4dobrtPRmhFYQSfo6gBohYnWtGC1grRWUFElyDVDsLRCkMZoNepDQsaKtxKtGzmlUQRXR0FlBliKWguPWgsfg9XQAoXRqlwHWm9WukuwlviZIndv0USA0fqf//kfHa133nkHL774Ik6ePInDhw/rw0NeOnkmw0LxXB4e3vDZG6cdEo7LsEJO0I/zQNcGQcUOUKJgMVqR7LEGFYlkWDpYjNYakHY+qNwAy6N1I0OLIlgTBVUZYPE8lk2thcsEi9Hyrm2GUpkGagsYt+fIDGvRHNPyjSzxCAi0/umf/glJ7TI9MoTPff5zE8oarHNYE8D6dQHonTzQDUFQmVk0KuqwuKxh3JDQzLAYrOYVoLVeA60ZgcXzWP2giIGWonXDpUWRVhcF1Y2BxWgpVrDqm2FLCYF4HS5GS4K1xM8SuXuLKgICLWuX6UceeQTc+5An4medaQ0P4bbPfzFuaQPDFRes35podQVBmm+s2n06sKIqqNIHmjFY20A1/aA6RqsbpEVRUBeFY83YHBYPC8kClofBcoWMjkGr+b5F//g6LDmHtaiOb/lmlmAEGK356DJ9YGgIX735VqQq/glwOUfrlOwgHhJyhsVg8XZFJkizoJUIWE0qaLUP9GH/2MR77FVCnnQfHRLyQn7bQHXbQOv7QavP1sEqqovCb4LFVwndMRmWU4DFtVfcUHYF93UcW+OKJFhL8AyRu7ToIiDQ4i7TP/vZz/DKK6/gm9/8pp5pDQ8PzzrTYrTuvu0ryHKFx6E1aYbFYF3JsKSNoRUPrFpzWMhDQs6wGKwq1ViBdLuJ1jRgubVtUBis6DZQhJukdmNFXRRBS4YVVGuRkm1MuhsT781QOMMSSOmV7Xw7DheMMlz8KK8SLroDXL6hpRcBK1o///nP8eqrr+LRRx/F0aNH59T7kNG656t/izxf5ihaHnJCESUHsRmWDlb6GFodqyfOYa3j+StzDkuAxWth+blTtAe0zQ+qYzgs1fQxGVZY2wa/AKtyi95gIqOqG2ETLB4O+vhK4Yp6/Sohg0X1zSArWDpOXF8l0JJgLb0zQ+7Roo0Ar6ll7TKdLLQGuWHr3V9DUShPRytATrgFJuGYIeEoWCZaHWeDNlRb6rBaQe2t+vLG1G7JsBgsLiZltPgeQu5jKF6DH2PACmrbkD8OrB74KjZhZXUXKFA7WovlLkwELEaLb8exZleyDmvRHujyjS2dCDBa89FlmtE6cM+9WJW+AmFywq+vkcWQuEC/scxhjQMrHdSxE9TeB6WtxiwcNcHqbQV1m2A1m0NCccsOo8XrvU8BVoq2DdkxYDm1HtRXnAMlZ60OFheQ2njSvb7FyLImzbBEFTvXhTGUAi5ZOLp0zgy5J4s2Ala0ktllmtE6OjiM1TmFCAmweEhoBevjPIfF2ZW5dVwOWn8NbHXbYG9dC+JlijnDYrDONsFazwv2mRmWQMs9NVg86a7GgOXSetCmbYKysgkk0LJcJZx8SCjA4kcugBVoSbAW7UEu39jSioBASzRsfeONN/D444/rDVvnMhHPaN1x882oKiw25rFi57AuywKVxoK1G/bV18Bb/WFQybaJYG1QQWtmBhZZJ92beA6rB26tB43aJvDyMyTQylqbwByWFSwrWhKspXVWyL1Z1BGIRcvaZXquaN15260oXVk6vqyBM63+LFB++hhaeoa1G3ZtN4Jl14Ey7gCtuRDUu34swxIT7yK74sfYDKuIEeQqd964cNQsa+CrhJu2gOp74NV6UMQZln5zdDNoVRNs+c2gta0JDgmtcHGmJcFa1Ae4fHNLLwKM1l/+8heILtOM1re//W090xoZGZl1yQNnWn9zxz6sbqwcX4e1LhMUTAflmWhZwSq9HhR4CJR7J6hjO+jsIqOsgcHieaypwCr3gCI58cG6cAuopwfu2h7YTLDsWjNIa4ZjxXrYi88CrV0/xVVCK1SJfS1Xa1h654rco0USAStav/71r/HWW2/hiSeewPHjxzEXtLiS/q5v3Inq97vGCke3Z4H86QZauemgdp7DMjMsBsv/CCjwMKjwLlBLG2hD0EArEbAavKDK7IkZ1oe3gC7qgb2zB1SzSV/NwctYac1wFrXBEebvd8K2dt0kZQ2JIWVdqFCCtUgObvk2lmYEBFr/9m//BtFlOilojezHN/7vINb+v3MMtBgsNd1AK5QJarsc9s4YsNRTBlp5nwXVV4E2hBLLsBgs3rSy0SGhg4eEDNaOHiibekDrNoEiLUgvb0ZQa4arqA1OdQtoZQ9SqqIgp6VwdLQOS4K1NI96uVdndAQYLdFlmtF6++238eSTT+KBBx6YW6Z1dBD7/+8Imn+/GSTAYrRCuaDWy6GetxuBlt0IigyLwdLR+joo51Og+mpQY3j6IeEoWOmgwrP0W3Oc0W2wmWDRuT2gzk2guhYEI83IL2+GhzMsBqt4C1LLe2Bzpo5VukuwzujjWb75ZRABK1q//e1vkbQu00cHMfL+YbT99WYjw2KweOv4BNJ37Ebtnt3IbjKHhAIs9V5Q4Mug7GtBkWqQyp2YzeWTYyfdeQ5rFKw0kMpZ1ga4ottgt4K1YZM+we6sa0ZapBlqcRtsJlhZZZtgd6RJsJbBcS53cQlFQKA1L12mHzmI6LnnjaHVejkKr9yN3mO7sfba60GZjxjZlXoKHgZL3WeglbYH5KkEqUEDrWnBKgVllcHe1An7h4whoZ5hmWApDc1wrWlGyqo2KCLD0jbD6cqUYC2hY1nuyjKJAHfk4eFhPLQOHDgw6448PBF/4OBBnN3bb6DVejncl+zGxhO7ce7B66E0PgLKNIaEBeq9sDFYvPluBdl2gzycaYUmljVMyLBKQZml+nyWEu3S57CsYFFDMxgtW3kb3OoW2Iq3IKBtlhnWMjm+5W4uwQiI3of/+Z//qTdsTVaXaUZr5MAINm/brs9hKZfsRuWJ3dh65EYo5z0CajoFV9YpMFguAZb3dhDdBLJxplUHcvNaVZabnycFq9Sono92IxYsRosq2pGqboGveAu82mbY7OGYDGvyWivrVcHYr+VVwiV4QshdWvwREGglu8s0ozU8MoLzB+4GXbIbOSd247Jj10M5/xEoW04ht/kUisKxYN0Coi+CbNeDXGUgxXIDtAUsBy9fo4oMi7OsVlB5O6imC2QOCXWsTLAy1S3INzMs24Q5LEZx5mhJsBb/sS3f4RKNgBWtpHaZHhzC8LETuPDvhpB5YjeuYrC2PoKU3lMo33IKZYX3wj0uw2KwTLRcHwY5csxuzHaQBSyflgZ3LFhaOyijHVTWZd6K0wyRYWWoW1BcvAXpnGHFBWvmaEmwlujJIHfrzIgAozVZl+k5zWkNj2D45CO48o0DuNoEK7f3FGp6TyFSei/86j4ojJY+JBRg3QJyXQbytYCcuQZaFrBCWhrSJwMr1AFq6DSwMjMsv7oFK4q3IHNKsGaGlgTrzDiu5btc4hEQvQ+T2WV6/8ERHHn6ERx+9aieYZX2nsK63lNo0O5FqrpPn3i3e2+HomdXJlquy0Fqm4lWHqjUP1rWwGAVTgVWfRfs1SZaFe16WUN68RZkTAsWo2VD7HxVvP+XYC3xE0Hu3pkTAYEWd5n+0Y9+hOeffx4nTpwAd5keHBycVQsxbiX2yJPfxEZX6WcAAA8eSURBVMe+9hbKek8hylvxN7BS3Qenug9+7+1w0y1jaAmwBFr5uaDagI6WJwGwnBXdcOd16pPupG6BvXgL/AmBlRhaEqwz53iW73QZRMCK1o9//ONRtA4dOjS3jjwPPoWb7nlbB2t72b1oUfchW92HVO/tyKVbxtCygsVoBapAK3NAtUHYtTSEpsmwHBXd8KndoMxWkLpZr3RXtM1QJp3DYqis29SZlgRrGZwEchfPrAjwOvGxXaY505orWvc/+BS+ft/3wGBdoO5DvboPRd7bUUS3II9ugZOHhinmkJCx4s1fAwquBpXkgkoz4IgHVl47iOew6rugVHQjhcFS14HUCKh4M0jbDBoHFq/hbkUq9uvJ7zGUYJ1Zx7J8t8skAozWfHSZfuDBp3Dktpd0sPrVfajw3I5C5RYdrXS6Bbbw5aCwiZWOFq/THjHQWpEPCq00C0fNsgatHcrKdjizDbCoohv2UbAKQKmr9UX+JFjL5MCVu7l8IyDQsnaZPnnyJA4fPjyn4eGJw9/G0b9+BgzWeu/tyKJbUEC36EPDlNrLQVobKFWgVWtkSoxW5ipQbiEoZyVIs4CltcNX0gGq7QKDRaNg5YPUfFCqFpNhxXTmmZBtyQxr+R71cs/P6AgItESX6ZdeegnJ6DL98MhjOH7zczpYYROrUroF3qbLQZ9oA61ug6KjZYLFw7uMUlBZDqiIVx9ltLjPYTsUrR1BrQMU6QKVxQGL0fJZuz1LsM7og1K+eRmBqSLAaIku0z/96U/x8ssv49SpU3rD1qGhoVmvXnp8+CQOfPkFMFi81Sm3IHX9Tig3toGuboMj0gYlLQYsLdtASyuEjZHiwlGtHQH96y5QSTyw8kCqD+QVjVMlWFN93vJnMgJnfAQEWsnuMn10+ATu+vILyHDeiigPDTd9CN6BNh0t9ZNtcFTXgtIjxrCQMywGS99ykKIvi9ylg+UWYBVNAZbqAflE09TYiXbr/8sh4Rl/wModkBGwoiW6TH/zm99MQpfpE/j6HS/hXO9tqGi+HOGBNrgH2hC4sQ2Ba2uh1EagMFrjwMqGX+uDXevT29UrJljKdGAxWh7OsLjZhBUp69cSLHm0ywgsiQjwmlrz0WV6eP8BnLzrFTR1XYXcgTaoA21IH2hD8MZa2K6NwLkmAiq0ZljZCGj9cGiXgrR+kMaZVhfsRdarhOaku2oOCRkr3rwM1lRoSbCWxMEqd0JGgCPAaHGX6T/+8Y9499138dprr+Gxxx7D/fffj7m0EWO0jj/0HVTevFnPsvIG2uAfqIV9IILgdRFQWymoTgwJDbCc2i4Qo1V2PqikA46ibvjVbjj0OqzpwOJVIeJlWhIseaTLCCypCAi0/uVf/kVH6/XXX9cbts4VraEDQzj2+kmUf6kXhQNt8A3UwjMQQWggAmVvKagvexQtzrBcOli7QKUXgTLr4cjvQIbajVBCYHGWZVnKZnSIKMFaUger3BkZAY6AQIu7TL/33nsQXabnitbggSF85fF70XxbP7wDtQgIsG4qBd2RDdqWDdsaI8MKjoJ1MShQCVvaWqSpHchJGCxGi+ev+JYcMY8lwZJHuIzAkoyAFa1f/vKXSFqX6QND+PoTQ6jc14OwFay7s3W03NsNsMLaLjgYrdKLjYp4fwRedQ2y1CajaJRrsCadwxJzWQwVIyXQkmAtyYNV7pSMAEeA0ZqXLtMHhnDnd+5D41d7jCEhZ1gM1t3ZCH41G+HSfgRLd0GfxxJgqRVwqRGkeWvh8BabaE026S7A4nksgZS8+Vke1TICSz4CVrSS2WV68MAg7nl6EOvu7IViguW+Oxvhu7ORubIfvtxdcJZZMiy1Ak61AmFvJVRHJRRviYmWz7hCOO4qYTywBFzxH+XNz0v+UJY7uFwiINBKdpdpRuu+50aw5u+36NmV7+5sFJhguQK7YF+5C7Yyc0ioVsChViDkjSBEdbDbq0CcafnVKcASQ8L4SI1lXwQJ1nI5muV+LosIMFrz0mX6wCDufekgmo6fo2dXpSZYbnUXbEW7kKJdDApxRXyFvqneCMK0Bg6qA9krQakqyB9bhyUyLAnWsjg45U7KCMSLgBWtpHaZPjiIoTcPovvBzVh9dzayK3qRpu6CfcUuBBms/AgoZIBF3giCOlhrQEodqDAASveAAtbCUQlWvM9Pfk9GYNlFQKDFDVuTjdaRVw7h0oe3Ii3jYuSou5AiwCqLgPIrDLS8EahWsFYGQCUeAy2fgEo8ygxr2R2gcodlBGIjwB155qPL9NDBQTz0yiFceOlNKPDvgrfIzLC0CKisAlRQoZc4TABL84BWekAhAZV4lGDFfnby/2UElmUERO/DZHeZZrSOHnkcO/vugLeEwboIpEVg1yoMtDIj8MZmWAwWb3lc3e427ydktCRYy/LglDstIxAvArFo/cM//AOeeeYZPPTQQ5hL78PBwREcHnkYH/ronQhq22HTKuHVKmBjtPIjcEwGVqFxO46N3FD0m6AlWPE+N/k9GYFlGwGB1n/9139BdJlOFlojhx7Gzk/dqUMV0CrgZrAKIlBojb7pk+48hyUyLBMsB9nh1DMtCdayPTDljssITBaBWLR++MMf4tlnn8XDDz88p0xr/9AIDh5+CBft2YOQVgGfCRbRGugbXyWMA5aT7PAncP+grMOa7BOV35cRWOIRYLRE70PuMs1oPffcczpac2nYOjg0jOHDh3DljTfCMwOwAjpYiuXWnKmLR2Xh6BI/QOXuyQjEi4BAy9plmjOtuaDFXaYPHj6Eqz/7WdhWVBnZFa2BfZIMy052SLDifTryezICMgITImBFK5ldpg9wpvWZL8DpbNTRcit1UOIMCfnqoFtmWBM+F/kNGQEZgUkiwOvEz0eX6eGDh/GpT34ZKSnN8Cp1sE0CllHSEDskjP3/sWGiHBJO8kHKb8sILJcIMFpTdZnmod5stuGhI/j0nq8g1ds8Q7D4qiEvMzMRLgnWcjkq5X7KCEwRAYHWZF2mZwMW/w6j9fmBOxGo4rXgzcJRs6xhbIXRWJgYrPhoSbCm+BDlj2QEllME4qHFXaYPHz4Mbtg6W7QOMFpfvQmBtZkGWgmDNREtCdZyOiLlvsoITBMBgdYf/vAHxOsyPVu0hg8O4eav3YxwQw5oRmCNR0uCNc0HKH8sI7DcIsBoce/DZHeZHjo0hIs/fQnSanItDScYpMmGhPwzsRlzWhKs5XY0yv2VEUggAla0uMv0K6+8gmR0mWa0dn3qMmRl51gwSgQsI9OSYCXw4cmnyAgsxwjwmlqTdZnmOa39+/fPal6Lf++Kj34EOdki00oULLtcInk5Hohyn2UEEo0AozVZl+m5onXVlZ9Abk5+gkNCY2goM6xEPzn5PBmBZRoBgZa1y/Rjjz0Gbtg6V7R2f+qTCPgDMfcSinmriY8SrGV6EMrdlhGYSQQEWsnuMs3Dw4Ebb0AgYEVrIlRi8l2CNZNPTT5XRmAZR8CKFneZfuONN/Ctb30Lx44dw/Dw8JzmtD73uc8gGBRoSbCW8WEmd11GIHkRYLTmo8s0Z1o3feGvoGlllquHE+GSGVbyPkv5l2QElkUErGiJLtPf/va3ceTIEYyMjMwp07r1li+iMsJL00zEir8nwVoWh5jcSRmB5EZAoMVdphmt7373u3jiiSeSgta+27+MulperXQiWhKs5H6O8q/JCCybCDBa3EaM0frNb36Dt99+G08++SSOHj0650xrePA+NDY0TUBLgrVsDi+5ozICyY+AQOvf//3fxzVsffDBB+eM1sjwIFrXrR+HlgQr+Z+h/IsyAssqAgKtpHeZ3r8fB4aH0NnROYqWBGtZHVpyZ2UE5icC3Nwitsv0448/DpFpDQ4Ozvo2Hkaru6tbR0uCNT+fn/yrMgLLLgKijZi1yzTXaT3wwANzayNmZlqatlpeJVx2R5XcYRmBeYxALFrcZZpLHubaZZrrtIaHBvHS88+Oy9Q4c3v55Zf12jCxWyS+kI8yAjICMgLTRUCgZe0yzSUPc0VraHAQDz/0oARrug9A/lxGQEZgZhGIRStZXaZjVzyVGdbMPhf5bBkBGYFJIsBoce9DzrSS2WXaipYEa5Lgy2/LCMgIzC4ComEro8UV8c899xyS0WWa4ZJgze4zkb8lIyAjMEUEBFq///3v9Yr4Z555BidOnMChQ4fmtKaWBGuKoMsfyQjICMw+ArxOvOgy/b3vfQ8vvPDCnNGSYM3+85C/KSMgIzBNBEQbsX/8x3/ET37yE7z44os4efLkrDMtCdY0AZc/lhGQEZhbBARa3GX6nXfeGUVLNGzlmivrxPpUX0uw5vZZyN+WEZARSCACsWi99NJLsHaZThQtCVYCwZZPkRGQEZh7BARa77//vp5pccX6qVOn9DW1Em1uIcGa++cg/4KMgIxAghFgtLj34e9+9zucPn1ab9g6E7QkWAkGWj5NRkBGIDkREGhxndZMu0xLsJLzGci/IiMgIzCDCAi0uPfhL37xC7z66qt49NFH9dVLp+rII8GaQZDlU2UEZASSFwFeCFB0mWa0XnvtNXDDVl5yeTK0JFjJi7/8SzICMgIzjACjxcWlf/zjH/Huu+/i9ddf19HiLtPx0JJgzTDA8ukyAjICyY2AQOsPf/gD3nvvPR0tXr00HloSrOTGXv41GQEZgVlEQKD1r//6r5iqy7QEaxbBlb8iIyAjkPwIMFpc8vCnP/0Jv/rVr/Dmm2/qq5ceO3ZsdHgowUp+3OVflBGQEZhlBBitv/zlLzpa1i7Tx48f19uIcYGpXCJ5lsGVvyYjICOQ/AgItGK7THNzi4MHD+rFpoya+E+u6S4iIR9lBGQEFiQCXKfFKIku07wQINdp8TrxXP4gwVqQj0W+qIyAjMBkERCZlugy/fbbb+Opp57SFwSUYE0WNfl9GQEZgQWLAKPFDVsFWt///vf1exD5e+I/OSQUkZCPMgIyAgseAW5uIbpMc8nDb3/7W/zv//7v6PuSYI2GQn4hIyAjsBgiINqIcZdprtXiOS7xnwRLREI+ygjICCyaCAi0uFaLh4riPwmWiIR8lBGQEVhUEWCouCOP9T8JljUa8msZARmBRRUBzrSs/0mwrNGQX8sIyAgs6ghIsBb1xyPfnIyAjIA1AhIsazTk1zICMgKLOgISrEX98cg3JyMgI2CNwP8HOTUg7A0WJSMAAAAASUVORK5CYII=;" vertex="1" parent="1">
          <mxGeometry x="1769.96" y="2350.5" width="78.27" height="239.5" as="geometry" />
        </mxCell>
        <mxCell id="taAj6aya3iwNu6nGRGRA-138" value="&lt;font face=&quot;Times New Roman&quot; style=&quot;font-size: 16px;&quot;&gt;motion image&lt;/font&gt;" style="text;html=1;strokeColor=none;fillColor=none;align=center;verticalAlign=middle;whiteSpace=wrap;rounded=0;shadow=1;fontSize=16;" vertex="1" parent="1">
          <mxGeometry x="1787.55" y="2570" width="40" height="20" as="geometry" />
        </mxCell>
      </root>
    </mxGraphModel>
  </diagram>
</mxfile>
